<svg xmlns="http://www.w3.org/2000/svg" width="106.853" height="20.858" viewBox="0 0 446.853 279.858"><defs><style>.a{fill:#e6e6e6;}.b{fill:#fff;}.c{fill:#008dc8;}</style></defs><rect class="a" width="446.64" height="279.582" transform="translate(0.213 0.276)"/><rect class="b" width="418.245" height="222.083" transform="translate(16.034 39.346)"/><rect class="c" width="446.64" height="20.663"/><ellipse class="b" cx="3.91" cy="3.83" rx="3.91" ry="3.83" transform="translate(11.766 6.734)"/><ellipse class="b" cx="3.91" cy="3.83" rx="3.91" ry="3.83" transform="translate(26.606 6.734)"/><ellipse class="b" cx="3.91" cy="3.83" rx="3.91" ry="3.83" transform="translate(41.446 6.734)"/><path class="c" d="M290.575,192.205,259.61,222.159l30.965,29.953,6.967-6.825-23.415-22.94,23.61-23.128Z" transform="translate(-192.641 -126.756)"/><path class="c" d="M327.33,192.205l30.964,29.954L327.33,252.112l-6.967-6.825,23.416-22.939-23.612-23.129Z" transform="translate(-216.656 -126.756)"/><path class="a" d="M451.271,201.655c-2.533,0-4.586,1.427-4.586,3.187s2.053,3.187,4.586,3.187H667.442c2.533,0,4.585-1.427,4.585-3.187s-2.053-3.187-4.585-3.187Z" transform="translate(-277.686 -127.81)"/><path class="a" d="M581.168,402.551H265.611c-3.226,0-5.84-2.1-5.843-4.693V334.985c0-2.591,2.618-4.693,5.843-4.693H581.168c3.226,0,5.84,2.1,5.843,4.693v62.872C587.008,400.448,584.393,402.548,581.168,402.551ZM265.611,332.168c-1.936,0-3.5,1.262-3.506,2.816v62.872c0,1.554,1.571,2.814,3.506,2.816H581.168c1.936,0,3.5-1.262,3.506-2.816V334.985c0-1.554-1.571-2.814-3.506-2.816Z" transform="translate(-192.671 -170.13)"/><ellipse class="a" cx="16.27" cy="15.937" rx="16.27" ry="15.937" transform="translate(84.801 181.581)"/><path class="c" d="M369.934,359.655a3.187,3.187,0,1,0-.008,6.373H523.293a3.187,3.187,0,1,0,0-6.373Z" transform="translate(-235.556 -173.265)"/><path class="c" d="M369.934,383.692a3.187,3.187,0,1,0-.008,6.373h66a3.187,3.187,0,1,0,.008-6.373Z" transform="translate(-230.863 -180.18)"/><path class="a" d="M449.693,225.655a3.192,3.192,0,0,0,0,6.373H591.367a3.192,3.192,0,0,0,0-6.373Z" transform="translate(-259.086 -134.714)"/><path class="a" d="M450.624,249.655c-2.175,0-3.939,1.427-3.939,3.187s1.764,3.187,3.939,3.187H636.333c2.175,0,3.939-1.427,3.939-3.187s-1.764-3.187-3.939-3.187Z" transform="translate(-263.821 -141.619)"/></svg>