<svg xmlns="http://www.w3.org/2000/svg" xmlns:xlink="http://www.w3.org/1999/xlink" width="589.12" height="610.541" viewBox="0 0 589.12 610.541"><defs><style>.a{fill:#bd6997;}.b{fill:#444053;}.c{fill:#fff;}.d,.j{opacity:0.1;}.e,.g{fill:#008dc8;}.f,.g{opacity:0.2;}.h{fill:url(#a);}.i{fill:#212b34;}.k{fill:#394855;}.l,.m{opacity:0.05;}.n{fill:#ffcdd3;}.o{fill:#dce6f2;}.p{fill:#575988;}.q{fill:#2b3b49;}.r{fill:#2d293d;}</style><linearGradient id="a" x1="-4.28" y1="0.935" x2="-4.28" y2="-0.076" gradientUnits="objectBoundingBox"><stop offset="0" stop-color="gray" stop-opacity="0.251"/><stop offset="0.54" stop-color="gray" stop-opacity="0.122"/><stop offset="1" stop-color="gray" stop-opacity="0.102"/></linearGradient></defs><g transform="translate(-699.12 -132.77)"><path class="a" d="M976.837,685.407s-17.949-10.456-35.736-3.029c0,0,5.477,9.321,28,8.431Z" transform="translate(57.963 -13.527)"/><path class="a" d="M970.833,684.56s5.462,18.359-8.223,30.852c0,0-8.237-7.568-.073-26.107Z" transform="translate(66.172 -12.125)"/><path class="a" d="M995.422,673.469s-1.329-15.613-41.272-10.443c0,0-.175,10.082,13.844,14.852S988.426,678.624,995.422,673.469Z" transform="translate(63.971 -18.657)"/><path class="a" d="M987.782,670.81s16.883,4.783,1.825,37.852c0,0-11.129-2.192-13.144-15.355S980.466,675.594,987.782,670.81Z" transform="translate(74.064 -16.102)"/><path class="a" d="M1011.732,658.831s2.3-25.694-38.529-23.052c0,0-2.924,23.206,31.325,29.24Z" transform="translate(72.718 -26.288)"/><path class="a" d="M1032.621,636.08s-5.594-29.124-46.383-20.443c0,0-.161,25.179,39.724,27.383Z" transform="translate(78.746 -32.529)"/><path class="a" d="M1047.246,612.685s-9.375-28.363-49.8-19.88c0,0,9.624,25.515,47.113,25.114Z" transform="translate(83.904 -39.123)"/><path class="a" d="M1059.558,590.147s-9.157-29.434-48.194-20.628c0,0,13.027,27.964,45.61,25.618Z" transform="translate(90.313 -45.875)"/><path class="a" d="M1066.327,570.118s-7.039-36-43.437-28.028c0,0,10.558,32.747,40.746,33.262Z" transform="translate(95.621 -53.667)"/><path class="a" d="M1074.644,543.713s-8.441-36.293-45.273-25.785c0,0,14.444,34.294,42.673,30.748Z" transform="translate(98.604 -60.874)"/><path class="a" d="M1078.371,521.154s-13.422-36.279-41.885-35.3c0,0,13.728,38.33,39.431,42.545Z" transform="translate(101.883 -69.606)"/><path class="a" d="M1080.127,498.646s-14.6-43.68-37.781-40.315c0,0,10.121,33.391,36.949,47.122Z" transform="translate(104.581 -77.613)"/><path class="a" d="M1081.514,469.773s-13.689-36.4-36.514-37.853c0,0,9.3,35.816,36.043,47.3Z" transform="translate(105.802 -85.2)"/><path class="a" d="M1081.969,443.359S1064.9,406.926,1049.84,406.1c0,0,7.419,35.88,30.669,43.241Z" transform="translate(108.03 -92.668)"/><path class="a" d="M1081.212,420.048s-10.485-39.58-25.582-42.854c0,0,2.059,32.373,24.068,45.819Z" transform="translate(110.692 -101.03)"/><path class="a" d="M1084.334,386.494s-11.041-31.535-23.265-36.343c0,0,2.425,37.182,20.446,44.066Z" transform="translate(113.2 -108.851)"/><path class="a" d="M1083.148,369.75l2.234-55.617s-22.812,41.977-3.915,65.429Z" transform="translate(119.144 -119.27)"/><path class="a" d="M1095.156,324.02s16.444-40.611,20.447-42.88c0,0-32.276,26.352-29.121,60.246Z" transform="translate(124.8 -128.812)"/><path class="a" d="M1002.43,653.5s28.946-3.352,28.07,32.773c0,0-26.156,3.752-34.686-26.107Z" transform="translate(83.153 -21.133)"/><path class="a" d="M1021.1,630.37s33.459-.09,30.669,36.873c0,0-28.069,4.422-37.343-29.885Z" transform="translate(91.726 -27.799)"/><path class="a" d="M1032.6,610.257s30.362-12.57,49.8,19.88c0,0-28.055,10.468-52.474-14.633Z" transform="translate(98.863 -34.31)"/><path class="a" d="M1045.628,585.988s31.093-13.37,49.348,18.32c0,0-32.378,9.85-51.9-13.3Z" transform="translate(104.913 -41.446)"/><path class="a" d="M1052.778,566.678s29.924-25.243,53.817.284c0,0-30.581,20.753-55.19,5.338Z" transform="translate(108.752 -49.443)"/><path class="a" d="M1059.545,539.324s30.114-25.785,53.8,1.186c0,0-33.794,21.182-54.868,4.233Z" transform="translate(112.008 -57.349)"/><path class="a" d="M1063.07,518.28s23.192-32.231,50.487-25.024c0,0-24.053,34.126-50.239,32.6Z" transform="translate(114.122 -67.762)"/><path class="a" d="M1067.935,497.107s23.367-40.6,45.463-33.52c0,0-16.839,31.2-46.062,40.37Z" transform="translate(116.087 -76.28)"/><path class="a" d="M1069.578,466.038s24.024-31.948,46.529-28.055c0,0-19.643,32.4-48.852,37.3Z" transform="translate(116.05 -83.541)"/><path class="a" d="M1070.1,442.489s18.62-35.841,33.765-36.1c0,0-8.953,35.6-32.51,42.184Z" transform="translate(117.358 -92.584)"/><path class="a" d="M1072.63,417.992s20.694-36.318,36.248-36.382c0,0-10.589,31.045-35.562,39.567Z" transform="translate(118.523 -99.751)"/><path class="a" d="M1074.76,387.573s15.481-30.039,28.3-33.443c0,0-7.74,36.615-26.594,41.411Z" transform="translate(119.503 -107.7)"/><path class="a" d="M1083.113,366.886l34.6-46.516s-8.865,45.9-39.636,55.438Z" transform="translate(121.028 -117.465)"/><path class="a" d="M1103.058,323.686s40.221-24.5,41.662-28.466c0,0-20.447,34.32-58.417,40.379Z" transform="translate(124.821 -124.74)"/><path class="a" d="M1099.777,317.531s46.164-39.167,57.95-39.131c0,0-38.073,1.534-59.059,37.053Z" transform="translate(130.513 -129.605)"/><path class="b" d="M1075.07,407.233l1.68.193c8.675-59.95,21.323-95.4,35.62-99.749l-.554-1.419C1096.653,310.9,1083.945,345.814,1075.07,407.233Z" transform="translate(119.647 -121.546)"/><path class="b" d="M1066.34,528.9l2.542.193c.522-5.6.94-11.333,1.212-17.036,2.425-49.611,6.177-95.172,11.128-129.324l-1.462-1.612c-4.951,34.216-9.77,81.158-12.195,130.846C1067.3,517.623,1066.862,523.347,1066.34,528.9Z" transform="translate(115.627 -99.891)"/><path class="b" d="M933.538,768.124c.453-.167,45.186-17.8,91.613-59.872a328.9,328.9,0,0,0,66.96-83.8c21.453-38.587,34.539-86.005,38.935-132.07l-2.658,1.1a328.608,328.608,0,0,1-105.574,212.532c-45.974,41.681-90.2,59.137-90.632,59.306Z" transform="translate(53.856 -67.712)"/><path class="c" d="M989.239,270.315v72.193c0,2.153-4.557,3.868-10.223,3.868H763.223c-5.638,0-10.223-1.741-10.223-3.868V270.315c0-2.153,4.557-4.345,10.223-4.345H979.049C984.682,266.008,989.239,268.162,989.239,270.315Z" transform="translate(-28.644 -133.2)"/><g class="d" transform="translate(699.12 145.907)"><path class="e" d="M971.915,280.5v72.2c0,2.14-4.571,3.868-10.223,3.868H745.943c-5.638,0-10.223-1.755-10.223-3.868V280.5c0-2.153,4.557-4.345,10.223-4.345H961.721C967.344,276.16,971.915,278.352,971.915,280.5Z" transform="translate(-735.72 -276.16)"/></g><path class="c" d="M989.239,270.315v72.193c0,2.153-4.557,3.868-10.223,3.868H763.223c-5.638,0-10.223-1.741-10.223-3.868V270.315c0-2.153,4.557-4.345,10.223-4.345H979.049C984.682,266.008,989.239,268.162,989.239,270.315Z" transform="translate(-28.644 -133.2)"/><g class="f" transform="translate(724.356 132.77)"><path class="e" d="M989.239,270.315v72.193c0,2.153-4.557,3.868-10.223,3.868H763.223c-5.638,0-10.223-1.741-10.223-3.868V270.315c0-2.153,4.557-4.345,10.223-4.345H979.049C984.682,266.008,989.239,268.162,989.239,270.315Z" transform="translate(-753 -265.97)"/></g><rect class="e" width="112.394" height="3.506" transform="translate(828.076 158.555)"/><rect class="g" width="112.394" height="3.506" transform="translate(828.076 167.09)"/><rect class="g" width="112.394" height="3.506" transform="translate(828.076 175.624)"/><rect class="g" width="112.394" height="3.506" transform="translate(828.076 184.16)"/><path class="g" d="M793.509,280c-11.777-.02-22.172,6.785-25.57,16.74s1.007,20.7,10.834,26.424V319.18a5.651,5.651,0,0,1,5.33-5.3,11.291,11.291,0,0,0,18.547,0,5.651,5.651,0,0,1,5.331,5.3v4.087c9.9-5.669,14.4-16.411,11.055-26.4S805.31,280.013,793.509,280Zm11.683,28.711a1.171,1.171,0,0,1-1.125.632,3.794,3.794,0,0,1-.54,0c-1.5,4.44-6.459,7.245-11.656,6.578s-9.052-4.6-9.054-9.234a8.409,8.409,0,0,1,1.373-4.589l-.117-.064a2.87,2.87,0,0,1,.351-4.319,7.8,7.8,0,0,1,2.193-.709,9.66,9.66,0,0,0,5.55-3.739,7.729,7.729,0,0,1,0,1.419,2.5,2.5,0,0,1,1.648-.668,2.536,2.536,0,0,1,1.7.566c.336.3.555.709.964.942a2.782,2.782,0,0,0,1.183.3l2.643.31a3.716,3.716,0,0,1,4.03,2.581,20.686,20.686,0,0,1,1.737,4.963,7.034,7.034,0,0,1-.847,5.054Z" transform="translate(-22.289 -129.142)"/><path class="h" d="M1064.76,850.365c-2.015-6.446-3.33-12.093-3.33-12.093s.088-7.078-3.739-12.261l-.073-1.767h0l-.584-13.1a41.656,41.656,0,0,1,3.446-6.962c2.483-4.19-.835-19.145-.835-19.145s-10.807-20.873-8.98-34.4-22.885-59.035-22.885-59.035a52.651,52.651,0,0,1,1.566-13.254,9.343,9.343,0,0,0,.161-2.788,2.564,2.564,0,0,0,0-.336v.1c-.731-8.858-9.39-25.2-9.39-25.2L1019.8,618.4s4.264-18.861-5.116-43.654a209.817,209.817,0,0,1-6.82-20.959c-.161-.606-.322-1.186-.453-1.755,16.927-2.862,29.837-5.157,29.837-5.157s-11.45-36.1-18.4-42.287-13.144-26.03-13.144-26.03-4.586-25.643.686-33.349,5.477-20.834,5.477-20.834,12.443-8.651,13.887-12.351,3.754-12,3.564-16.321-1.957-8.157-1.462-10.456-4.221-10.817-2.264-14.994a9.924,9.924,0,0,0,.686-3.983V366.1a49.463,49.463,0,0,0-1.592-10.649,36.442,36.442,0,0,0-12.939-5.557l-.322-.967-.835-2.581c-.438-.232-.861-.439-1.285-.62V344.8l-.278-3.7,1.636-8.393c3.315-14.608-18.664-16.025-18.664-16.025a11.248,11.248,0,0,0-6.4-4.577c-4.469-1.29.209,21.8,2.337,23.206,1.592,1.057,6.689,8.148,9.143,11.6h0l.409.567a9.246,9.246,0,0,0-.964.967l1.052,4.989.161.773a19.579,19.579,0,0,0-3.257,5.364s4.162,3.739,3.55,8.1,1.65,9.695,1.767,9.979c-.248-.232-3.184-2.824-5.959-2.065s-10.558,3.1-10.558,3.1-5.842,1.109-5.243,2.23-3.724,6.292-3.724,6.292l-16.357-12.66c-.175-.387-.351-.773-.512-1.173a29.909,29.909,0,0,1-1.621-5.738,38.7,38.7,0,0,0,4.979-1.586,11.058,11.058,0,0,0,4.264-2.581c1.462-1.715,1.723-4,2.278-6.085,1.066-4.1,3.593-7.8,5.345-11.72a33.383,33.383,0,0,0,2.147-20.705,12.876,12.876,0,0,0-2.688-5.969c-2.715-3.043-7.433-4.164-10.939-6.537s-5.842-6.111-9.9-7.847c-3.655-1.572-8-1.29-12.008-.5a69.077,69.077,0,0,0-22.052,7.928c-2.234,1.29-4.7,2.759-7.3,2.424-2.278-.284-4-1.831-5.534-3.313a.967.967,0,0,1,0-.193l-.19-.167a22.046,22.046,0,0,0-1.984,10.494,6.4,6.4,0,0,0,.146,1.663v.58a2.753,2.753,0,0,1,0,.489h0a2.618,2.618,0,0,1-.088.747,5.375,5.375,0,0,1-1.462,1.921,11.64,11.64,0,0,0-1.227,1.6,1.8,1.8,0,0,1,.19-.58,7.465,7.465,0,0,0-1.462,4.448,4.1,4.1,0,0,0,1.314,3.107,17.2,17.2,0,0,0,2.658,1.741,22.258,22.258,0,0,0-.278,4.646c.469,9.424,6.484,17.947,15.86,22.472.209.387.395.773.6,1.173,2.22,4.615,3.968,10.015,3.52,15.085a7.012,7.012,0,0,1-.146,1.109c-.058.361-.38.4-.541.606h0s-26.039,1.109-32.378-3.584-14.954,12.493-14.954,12.493-9.26,1.921-11.2.387-12.823.207-12.823.207a25.6,25.6,0,0,0-16.488-4.693,51.053,51.053,0,0,0-12.209-5.454h0l-.307-.077h0a15.107,15.107,0,0,0-5.842-.465S801.9,371.984,797.942,367.1s-22.554-22.884-22.636-22.975l-.1-.89-.322-2.707a12.431,12.431,0,0,1-1.592.181l-.395-.929a47.4,47.4,0,0,0-4.118-7.529s-.146-3.43.949-4.319-1.051-13.382-1.051-13.382-12.575-23.426-22.136-5.286c0,0-18.986,12.171-2.059,25,0,0,6.674,2.581,7.7,4.77.671,1.419,3.067,5.364,4.674,7.98.263.439.512.826.715,1.173l-.175.141.336,2.23.132.864c-3.008,1.652-5.038,3.262-4.484,4.41a22.84,22.84,0,0,1,2.132,6.085s23.776,24.3,27.178,34.926c0,0,62.215,29.846,82.325,31.445l-2.624,16.033a112.292,112.292,0,0,0-.234,13.022c.409,3.416-1.577,19-1.577,19s-2.483,22.91-5.272,26.21-1.68,16.941-1.68,16.941a102.6,102.6,0,0,1-3.154,19.519c-2.556,8.754,0,19.4,0,19.4s-9.245,20.856,14.429,6.124c0,0,11.888-1.057,25.582-1.934v1.212c0,1.56.088,3.249.146,5.028.322,11.758.949,27.951,2.088,40.186,2.03,21.621,11.362,64.165,11.362,64.165l.94,21.53a26.178,26.178,0,0,0-.424,6.175,36.742,36.742,0,0,0,7.448,21.389l2.5,14.285s4.791,9.321,5.126,14.971a6.863,6.863,0,0,1-.132,1.379,8.431,8.431,0,0,0-.117,2.2c0,6.523,5.17,21.981,5.17,21.981s.949,15.716,3.655,16.541c2.322.7-2.644,9.166-4.133,11.6a4.166,4.166,0,0,1-.116-.453c-.19.322-.307.49-.307.49a10,10,0,0,0-.658,4.009,5.55,5.55,0,0,0,3.2,5.428c5.184,2.581,8,4.749,3.753,5.8q-2.366.413-4.674,1.044c0-.181-.175-.361-.248-.529a2.517,2.517,0,0,0-1.636,2.81,10.884,10.884,0,0,0,1.825,5.286c4.644,8.29,7.74,11.384,7.74,11.384l2.03-.271a8.962,8.962,0,0,1-1.1,1.985,8.3,8.3,0,0,1-2.924,2.462A9.933,9.933,0,0,1,927.4,846a10.669,10.669,0,0,0-7.419,3.51c-2.527,3.12-4.016,7.322,1.462,10.778l19.336,5.157s32.976,2.656,30.947-3.79-3.33-12.093-3.33-12.093a23.385,23.385,0,0,0-3.169-11.436A14.131,14.131,0,0,0,964,836.458l1.148-.155s1.767-14.439,4.849-17.289c.715-.644.861-1.136.671-1.508.292-.8-.554-1.29-1.651-1.445a1.894,1.894,0,0,1-.209.567,18.5,18.5,0,0,0-3.2-.206s-1.462-7.477,1.957-10.315a2.627,2.627,0,0,0,.569-2.256,10.885,10.885,0,0,0-.5-3.043.761.761,0,0,0-.1.181c-2.059-6.769-8.441-17.418-8.441-17.418s-.554-6.833,1.462-9.631-1.9-37.156-1.9-37.156.088-16.67-2.658-24.328,2.205-16.967,2.205-16.967a2.14,2.14,0,0,0-.088-.5v-.116s-.161-1.018-.424-2.581a.755.755,0,0,1,0,.167c-.715-4.384-2.088-12.325-2.924-16-1.3-5.157-1.051-30.323-1.051-30.323l4.385-10.881,9.347,18.179,10.15,24.315s4.717,5.041,5.053,10.314v.773a12.465,12.465,0,0,0,0,1.652,13.535,13.535,0,0,0,3.14,8.663s2.924,11.6,6.777,14.388,4.118,8.534,4.118,8.534,5.272,16.76,7.536,19.61c1.9,2.437,2.3,9.292,2.366,11.4h0v.619s.905,6.008,1.1,11.074v1.676a16.245,16.245,0,0,1-.38,4.112v-.606a38.38,38.38,0,0,0-.905,10.546c.146,6.072,1.462,13.216,5.842,17.289,7.518,7.052,12.019,5.982,12.019,5.982s-3.067,9.231-7.3,11.2a3.139,3.139,0,0,0-.453.271,3.256,3.256,0,0,0-.117-.516,4.057,4.057,0,0,0-1.11,3.429c-.131,4.027,3.028,10.443,5.842,13.344a8.912,8.912,0,0,0,3.681,1.727,7.241,7.241,0,0,1-.642.4,14.577,14.577,0,0,1-1.462.658,7.874,7.874,0,0,1-2.161.567,10.745,10.745,0,0,0-7.419,3.51c-2.512,3.12-4.016,7.31,1.462,10.778l19.336,5.157S1066.848,856.81,1064.76,850.365Z" transform="translate(-35.799 -122.672)"/><path class="i" d="M883.1,746.357,864.372,741.2c-5.243-3.468-3.8-7.671-1.357-10.792a10.249,10.249,0,0,1,7.17-3.494,9.415,9.415,0,0,0,3.476-1.289,7.786,7.786,0,0,0,2.819-2.463,10.978,10.978,0,0,0,1.84-6.369s20.037-5.931,25.821-.877a14.028,14.028,0,0,1,2.6,3.1,24.109,24.109,0,0,1,3.081,11.448s1.285,5.647,3.237,12.093S883.1,746.357,883.1,746.357Z" transform="translate(20.996 -3.644)"/><path class="i" d="M944.734,737.729l-18.708-5.157c-5.257-3.455-3.812-7.658-1.373-10.766a10.14,10.14,0,0,1,7.17-3.494,8.016,8.016,0,0,0,2.088-.58,12.737,12.737,0,0,0,1.462-.658c5.067-2.684,4.659-8.831,4.659-8.831s20.048-5.931,25.821-.877a13.022,13.022,0,0,1,2.045,2.256c3.71,5.157,3.637,12.274,3.637,12.274s1.285,5.672,3.242,12.106S944.734,737.729,944.734,737.729Z" transform="translate(49.377 -6.118)"/><path class="j" d="M899.2,715.958a14.036,14.036,0,0,1,2.6,3.1h0l-30.261,4.136a10.98,10.98,0,0,0,1.84-6.369S893.417,710.905,899.2,715.958Z" transform="translate(25.935 -3.634)"/><path class="j" d="M964.211,709.6l.219,5.028c-4.385,7.039-27.339,6.3-34.13,3.081a12.744,12.744,0,0,0,1.462-.658c5.067-2.684,4.659-8.832,4.659-8.832s20.048-5.931,25.821-.877a12.946,12.946,0,0,1,1.969,2.257Z" transform="translate(52.991 -6.124)"/><path class="k" d="M1007.389,751.232a41.578,41.578,0,0,0-3.315,6.962l.774,18.05c-4.834,7.735-31.793,6.111-35.591,2.127s-8.135-14.558-4.072-16.528,7.01-11.191,7.01-11.191-4.385,1.057-11.683-5.995-5.93-23.309-4.8-27.229-.744-16.876-.744-16.876-.132-9.128-2.322-12.016-7.3-19.61-7.3-19.61-.248-5.7-3.987-8.548-6.572-14.388-6.572-14.388a13.686,13.686,0,0,1-3.008-9.705c.522-5.724-4.908-11.706-4.908-11.706l-9.858-24.315-9.069-18.191L903.77,592.96s-.209,25.114,1.066,30.323,3.418,19.055,3.418,19.055-4.776,9.292-2.1,16.967,2.61,24.341,2.61,24.341,3.812,34.333,1.869,37.143-1.462,9.631-1.462,9.631,11.464,19.7,8.223,22.549-1.879,10.314-1.879,10.314,7.3-.245,4.264,2.581-4.688,17.289-4.688,17.289l-31.078,4.255s-3.008-3.1-7.506-11.4.453-7.537,4.571-8.6,1.462-3.236-3.637-5.815-2.454-8.818-2.454-8.818,7-11.422,4.385-12.248-3.564-16.541-3.564-16.541-5.974-18.513-4.908-23.581-4.878-16.953-4.878-16.953l-2.426-14.3a35.864,35.864,0,0,1-6.864-26.932l-.905-22.188s-9.1-42.545-11.068-64.23c-1.271-13.847-1.913-32.773-2.205-44.595-.161-6.626-.219-11.023-.219-11.023l111.1-14.042a73.107,73.107,0,0,0,2.658,14.558,216.618,216.618,0,0,0,6.645,20.959c9.1,24.805,5.012,43.666,5.012,43.666l.351,31.716s10.734,20.856,8.98,28.234a54.389,54.389,0,0,0-1.462,13.292s23.965,45.523,22.228,59.047,8.763,34.41,8.763,34.41S1009.8,747.042,1007.389,751.232Z" transform="translate(12.487 -69.514)"/><path class="l" d="M908.13,602.477l33.779-5.157S923.435,615.318,908.13,602.477Z" transform="translate(42.783 -37.358)"/><path class="j" d="M928.754,574.74s1.621,10.559-5.564,14.8C923.234,589.541,936.334,587.271,928.754,574.74Z" transform="translate(49.717 -43.89)"/><path class="j" d="M937.039,548.63s-27.485,21.6-37.972,20.237S937.039,548.63,937.039,548.63Z" transform="translate(37.926 -51.442)"/><path class="j" d="M886.433,610s-21.366,5.054-21.672,12.712S886.433,610,886.433,610Z" transform="translate(22.812 -33.691)"/><path class="l" d="M892.957,683.55S862.74,689.6,871.5,692.716s23.119,5.39,23.119,5.39S904.45,698.221,892.957,683.55Z" transform="translate(25.184 -12.417)"/><g class="m" transform="translate(854.774 430.005)"><path d="M868.221,695.854a5.387,5.387,0,0,1-2.924-3.8c-.175.31-.292.489-.292.489s-2.571,6.24,2.454,8.818c.584.3,1.125.58,1.636.864.905-.181,1.869-.322,2.8-.567C875.9,700.662,873.173,698.432,868.221,695.854Z" transform="translate(-832.149 -439.963)"/><path d="M894.217,693.648c.8-.709.7-2.463.088-4.693a11.4,11.4,0,0,0-1.462,6.652,5.231,5.231,0,0,1,1.374-1.96Z" transform="translate(-819.05 -440.86)"/><path d="M887.7,604.75a27.706,27.706,0,0,0-1.694,8.457,30.208,30.208,0,0,1,2.118-5.841S887.967,606.362,887.7,604.75Z" transform="translate(-822.176 -465.215)"/><path d="M934.728,594.191a8.975,8.975,0,0,0,.175-2.5c-.307,1.715-.512,3.3-.642,4.693C934.406,595.673,934.552,594.939,934.728,594.191Z" transform="translate(-799.96 -468.992)"/><path d="M889.3,668.76a12.872,12.872,0,0,0,.54-5.08,15.353,15.353,0,0,0-1.2,6.446,5.833,5.833,0,0,1,.658-1.366Z" transform="translate(-820.968 -448.17)"/><path d="M908.647,700.8a80.294,80.294,0,0,0-2.924,14.182l-31.078,4.255s-2.994-3.1-7.492-11.384c-.395-.735-.715-1.393-.978-1.985-1.84.826-2.5,2.581.175,7.491,4.5,8.29,7.506,11.384,7.506,11.384l31.078-4.255s1.694-14.439,4.674-17.275C911.057,701.754,910.049,701.058,908.647,700.8Z" transform="translate(-832.048 -437.433)"/><path d="M875.861,720.346s.949,15.729,3.564,16.554h0c1.2-2.643,1.957-5.157.788-5.505-2.629-.826-3.564-16.554-3.564-16.554s-5.987-18.513-4.908-23.567-4.878-16.953-4.878-16.953l-2.439-14.3a35.865,35.865,0,0,1-6.864-26.932l-.964-22.111s-9.1-42.545-11.068-64.23c-1.271-13.847-1.913-32.785-2.205-44.595,0-2.14-.088-4.035-.132-5.634l-.891.116s0,4.384.234,11.023c.292,11.809.94,30.748,2.193,44.595,1.984,21.621,11.085,64.23,11.085,64.23l.964,22.11a35.865,35.865,0,0,0,6.864,26.932l2.425,14.3s5.959,11.887,4.878,16.953S875.861,720.346,875.861,720.346Z" transform="translate(-842.301 -496.52)"/><path d="M931.816,710.389a25.277,25.277,0,0,1-5.4-10.649c-3.081,2.581,1.008,12.376,4.615,16.154,3.8,3.983,30.756,5.583,35.591-2.114l-.19-4.345C959.724,715.805,935.408,714.179,931.816,710.389Z" transform="translate(-804.073 -437.74)"/><path d="M956.925,687.041A41.583,41.583,0,0,0,953.61,694l.132,3.2c.54-1.186,1.315-2.772,2.4-4.654a12.344,12.344,0,0,0,.876-5.686Z" transform="translate(-791.05 -441.465)"/><path d="M935.2,698.245a39.957,39.957,0,0,0,2.307-5.505s-4.385,1.057-11.683-5.995c-5.3-5.157-6.032-15.148-5.594-21.723-1.125,3.868-2.483,20.177,4.8,27.229C929.844,696.865,933.347,698,935.2,698.245Z" transform="translate(-806.831 -447.783)"/><path d="M935.373,679.757a109.529,109.529,0,0,1,1.11,13.485,14.887,14.887,0,0,1,.438-2.127c1.125-3.868-.744-16.863-.744-16.863s-.146-9.128-2.337-12.028-7.3-19.61-7.3-19.61-.248-5.7-4-8.534-6.572-14.388-6.572-14.388a13.73,13.73,0,0,1-3.008-9.721c.522-5.724-4.907-11.694-4.907-11.694l-9.873-24.328-9.069-18.179-4.177,10.868v3.468l3.4-8.832,9.069,18.179,9.843,24.315s5.43,5.969,4.907,11.694a13.662,13.662,0,0,0,3.008,9.722s2.819,11.6,6.572,14.388,3.987,8.534,3.987,8.534,5.126,16.76,7.3,19.61S935.373,679.757,935.373,679.757Z" transform="translate(-822.673 -479.382)"/></g><path class="n" d="M930.028,330.708l-1.577,8.393.278,3.7.209,2.733-10.734,1.29-1.3-1.934h0c-2.381-3.494-7.3-10.6-8.875-11.6-2.044-1.405-6.616-24.432-2.3-23.206a11.091,11.091,0,0,1,6.221,4.589S933.239,316.114,930.028,330.708Z" transform="translate(40.849 -120.455)"/><path class="j" d="M924.844,338.412,914.11,339.7l-1.3-1.934h0a10.392,10.392,0,0,1,11.829-2.14Z" transform="translate(44.938 -113.333)"/><path class="o" d="M927.881,342.627,913.8,346.018l-.38-1.858-1.022-5a10.512,10.512,0,0,1,13.685-2.115l.818,2.581Z" transform="translate(44.748 -113.12)"/><path class="n" d="M775.986,341.655l-14.852,7.735s-.626-1.032-1.462-2.478c-1.566-2.581-3.884-6.575-4.542-7.993-.993-2.179-7.448-4.77-7.448-4.77-16.459-12.893,1.957-25,1.957-25,9.23-18.127,21.425,5.312,21.425,5.312s2.1,12.493,1.037,13.382-.905,4.306-.905,4.306a48.181,48.181,0,0,1,3.987,7.537C775.712,340.882,775.986,341.655,775.986,341.655Z" transform="translate(-34.24 -122.699)"/><path class="j" d="M770.053,333.252,755.2,340.987s-.626-1.032-1.462-2.478c2.059-1.652,9.419-7.349,11.917-7.181a21.806,21.806,0,0,0,3.593,0C769.778,332.478,770.053,333.252,770.053,333.252Z" transform="translate(-28.303 -114.296)"/><path class="o" d="M771.62,337.095,754.9,345.088l-.482-3.223-.336-2.23s9.551-7.8,12.487-7.62a17.868,17.868,0,0,0,4.385-.155l.322,2.695Z" transform="translate(-28.146 -114.142)"/><path class="n" d="M914.7,381.292s-73.985,9.927-60.271,5.479c9.551-3.12,13.144-8.673,13.7-14.711.424-5.066-1.271-10.468-3.432-15.1a63.912,63.912,0,0,0-7.157-11.6s55.6-29.511,45.273-4.048A35.833,35.833,0,0,0,900.1,353.3a29.915,29.915,0,0,0,1.984,11.977,36.159,36.159,0,0,0,12.6,16.013Z" transform="translate(17.275 -114.402)"/><path class="j" d="M901.352,341.325a35.837,35.837,0,0,0-2.7,11.99c-5.169,4.152-11.055,4.087-18.591,4.345-5.842.193-12.151,1.652-16.883-.658a63.914,63.914,0,0,0-7.157-11.6S911.619,315.871,901.352,341.325Z" transform="translate(18.79 -114.397)"/><ellipse class="n" cx="30.756" cy="27.151" rx="30.756" ry="27.151" transform="translate(865.989 190.76)"/><path class="j" d="M914.7,374.15s-73.985,9.927-60.271,5.479c9.551-3.12,13.144-8.673,13.7-14.711,3.55-3.675,10.865-6.446,15.583-7.993a24.974,24.974,0,0,1,13.451-.644,20.186,20.186,0,0,1,5,1.831A36.123,36.123,0,0,0,914.7,374.15Z" transform="translate(17.275 -107.26)"/><path class="j" d="M927.558,341.76l-14.078,3.391-.38-1.858a13.433,13.433,0,0,1,13.48-4.589Z" transform="translate(45.071 -112.257)"/><path class="j" d="M771.513,336.478l-16.722,7.993-.482-3.223A131.434,131.434,0,0,1,771.224,334Z" transform="translate(-28.041 -113.523)"/><path class="j" d="M956.1,500.746c-28.6,4.989-69.332,11.6-75.942,10.069-5.462-1.29-22.666-.529-37.635.439-.161-6.626-.219-11.023-.219-11.023l111.1-14.042a73.135,73.135,0,0,0,2.7,14.557Z" transform="translate(12.473 -69.502)"/><path class="i" d="M1026.386,537.641s-94.139,17.573-104.435,15.188-62.374,2.347-62.374,2.347c-22.885,14.7-13.976-6.149-13.976-6.149s-2.527-10.635,0-19.4a106.089,106.089,0,0,0,3.028-19.507s-1.11-13.654,1.592-16.941,5.067-26.2,5.067-26.2,1.9-15.59,1.462-19,.219-13.009.219-13.009L859.6,418.9c-19.467-1.624-79.725-31.535-79.725-31.535-3.315-10.611-26.288-34.939-26.288-34.939a23.946,23.946,0,0,0-2.074-6.1c-1.708-3.6,21.22-11.68,21.22-11.68s18.11,18.05,21.906,23,16.634,13.821,16.634,13.821a13.986,13.986,0,0,1,5.711.451l.292.077h0a48.648,48.648,0,0,1,11.815,5.466,24.4,24.4,0,0,1,15.976,4.706s10.529-1.727,12.4-.193,10.851-.361,10.851-.361,8.295-17.186,14.444-12.48,31.356,3.614,31.356,3.614c3.184-4.048,11.231-7.155,16.289-8.776a24.975,24.975,0,0,1,13.451-.658,18.5,18.5,0,0,1,5.418,2.089l15.861,12.7s4.177-5.157,3.608-6.292,5.082-2.218,5.082-2.218,7.39-2.308,10.223-3.1,5.52,1.858,5.769,2.075c-.117-.284-2.3-5.737-1.723-9.979s-3.471-8.1-3.471-8.1c8.193-19.906,29.3-4.19,29.3-4.19s2.8,10.634.905,14.813,2.629,12.686,2.205,14.981,1.3,6.124,1.462,10.456-2.03,12.622-3.418,16.321-13.436,12.325-13.436,12.325-.209,13.022-5.3,20.731-.613,33.349-.613,33.349,6.047,19.88,12.778,26.043S1026.386,537.641,1026.386,537.641Z" transform="translate(-29.372 -113.335)"/><path class="j" d="M844.869,382.448s-3.169-7.426-5.842-8.019a66.967,66.967,0,0,1-7.609-2.707l1.462-2.862s9.8,2.011,11.465,4.474S844.869,382.448,844.869,382.448Z" transform="translate(7.463 -103.439)"/><path class="j" d="M811.967,369.1c-.424,2.3-23.367,5.157-23.367,5.157l11.172-10.688h0l.292.077h0a48.7,48.7,0,0,1,11.9,5.454Z" transform="translate(-12.253 -104.97)"/><ellipse class="p" cx="2.074" cy="1.831" rx="2.074" ry="1.831" transform="translate(729.789 233.266)"/><ellipse class="p" cx="2.074" cy="1.831" rx="2.074" ry="1.831" transform="translate(732.593 236.825)"/><ellipse class="p" cx="2.074" cy="1.831" rx="2.074" ry="1.831" transform="translate(735.324 240.099)"/><ellipse class="p" cx="2.074" cy="1.831" rx="2.074" ry="1.831" transform="translate(738.187 243.658)"/><ellipse class="p" cx="1.679" cy="1.483" rx="1.679" ry="1.483" transform="translate(981.976 235.536)"/><ellipse class="p" cx="1.679" cy="1.483" rx="1.679" ry="1.483" transform="translate(982.384 238.888)"/><ellipse class="p" cx="1.679" cy="1.483" rx="1.679" ry="1.483" transform="translate(982.75 242.239)"/><path class="j" d="M842.56,427.31c-.248-.258,60.783,62.657,104.347,23.619C946.894,450.929,875.873,461.9,842.56,427.31Z" transform="translate(12.592 -86.533)"/><path class="j" d="M820.67,454.36s34.875-.348,38.906,8.363l.395,9.206a7.418,7.418,0,0,1-6.484.219c-3.578-1.549-25.046-10.314-32.276-5.479Z" transform="translate(2.514 -78.71)"/><path class="q" d="M821.12,454.34s33.342-.336,37.2,7.98l.38,8.776a7.142,7.142,0,0,1-6.206.206c-3.418-1.483-23.951-9.8-30.859-5.221Z" transform="translate(2.721 -78.716)"/><path class="j" d="M831.7,402.07a98.238,98.238,0,0,0,14.4,20,88.147,88.147,0,0,0,21.906,17.3S832.459,406.273,831.7,402.07Z" transform="translate(7.592 -93.834)"/><path class="j" d="M822.83,374.66s6.777,21.917,22.082,28.957Z" transform="translate(3.508 -101.762)"/><path class="j" d="M816.916,376.631c-.175-.413-4.385,17.688,20.445,26.765C837.407,403.4,826.878,400.637,816.916,376.631Z" transform="translate(0.614 -101.193)"/><path class="j" d="M920.492,361.108c-.38,0,12.385,6.588,15.9,9.734C936.4,370.841,927.839,360.4,920.492,361.108Z" transform="translate(48.471 -105.692)"/><path class="r" d="M874.648,365.183a4.107,4.107,0,0,0,1.721,3.1,5.291,5.291,0,0,0,3.759.961c9.39.193,19.161.232,27.748-3.249a10.532,10.532,0,0,0,4.1-2.581c1.462-1.715,1.664-3.983,2.205-6.085,1.037-4.087,3.461-7.735,5.17-11.706a34.51,34.51,0,0,0,2.074-20.8,12.937,12.937,0,0,0-2.6-5.969c-2.628-3.055-7.214-4.164-10.6-6.549s-5.681-6.124-9.595-7.864c-3.534-1.572-7.755-1.29-11.683-.516a65.577,65.577,0,0,0-21.323,7.916c-2.176,1.29-4.557,2.746-7.141,2.411-2.264-.3-3.958-1.908-5.477-3.416a22.569,22.569,0,0,0-1.781,11.9,4.567,4.567,0,0,1,0,1.779,5.414,5.414,0,0,1-1.357,1.92c-2.205,2.45-3.491,6.253-1.1,8.56,1.037,1.018,2.585,1.534,3.608,2.581,1.811,1.844,1.344,4.6,1.462,7.039a3.28,3.28,0,0,0,.788,2.385,4.4,4.4,0,0,0,3.826.67,11.609,11.609,0,0,1,4.016-.477,6.734,6.734,0,0,1,3.622,2.271C870.658,354.121,872.571,359.407,874.648,365.183Z" transform="translate(14.857 -122.401)"/><g class="d" transform="translate(862.36 188.131)"><path d="M912.857,355.854a10.557,10.557,0,0,1-4.118,2.581c-8.529,3.481-18.284,3.455-27.67,3.249a5.294,5.294,0,0,1-3.759-.952,4.109,4.109,0,0,1-1.731-3.1c-2.059-5.789-3.986-11.074-8.529-15.78a6.758,6.758,0,0,0-3.608-2.271,12,12,0,0,0-4.03.477,4.4,4.4,0,0,1-3.826-.67,3.352,3.352,0,0,1-.788-2.385c0-2.437.409-5.157-1.462-7.039-1.008-1.032-2.571-1.549-3.608-2.581a4.861,4.861,0,0,1-.835-5.428c-1.534,2.359-2.118,5.338-.117,7.284,1.037,1.006,2.6,1.521,3.608,2.581,1.811,1.844,1.357,4.6,1.462,7.052a3.271,3.271,0,0,0,.788,2.375,4.351,4.351,0,0,0,3.827.67,11.947,11.947,0,0,1,4.03-.477,6.833,6.833,0,0,1,3.607,2.272c4.542,4.718,6.455,9.991,8.529,15.78a5.705,5.705,0,0,0,2.556,3.584,7.36,7.36,0,0,0,2.924.477c9.391.193,19.161.219,27.748-3.262a10.675,10.675,0,0,0,4.118-2.581,7.047,7.047,0,0,0,1.227-2.243,3.85,3.85,0,0,1-.336.387Z" transform="translate(-847.496 -305.137)"/><path d="M850.21,322.138a3.759,3.759,0,0,0,.876-1.405,4.3,4.3,0,0,0,0-1.779,22.439,22.439,0,0,1,1.022-9.862l-.19-.181a22.6,22.6,0,0,0-1.781,11.9,6.774,6.774,0,0,1,.073,1.328Z" transform="translate(-846.357 -308.911)"/></g><path class="j" d="M862.82,364.654s38.584,3.2,41.812-2.024" transform="translate(21.921 -105.242)"/><path class="j" d="M913.5,351.365s21.323-.7,26.288,6.2" transform="translate(45.255 -108.506)"/></g></svg>