<!-- Generator: Adobe Illustrator 24.2.1, SVG Export Plug-In . SVG Version: 6.00 Build 0)  -->
<svg id="Layer_1" data-name="Layer 1" xmlns="http://www.w3.org/2000/svg" width="1329" height="823" viewBox="0 0 1329 823"><defs><style>.cls-1{fill:#f2f2f2;}.cls-2{fill:#3f3d56;}.cls-3{fill:#008dc8;}.cls-4{fill:#fff;}.cls-5{fill:#bd6997;}.cls-6{fill:#2f2e41;}.cls-7,.cls-8{fill:#394855;}.cls-10,.cls-12,.cls-8{opacity:0.1;isolation:isolate;}.cls-9{fill:#fbbebe;}.cls-11,.cls-12{fill:#212b34;}</style></defs><path class="cls-1" d="M1309,823H22c.3358-164.7828,51.0547-316.4546,135.9968-437.0623q10.2063-14.5593,21.0843-28.4772C297.0823,206.54,471.2414,111.0712,665.5,111.0712a585.5514,585.5514,0,0,1,89.3961,6.8318c5.4614.84,10.9228,1.7689,16.3393,2.7416q17.8614,3.2835,35.4093,7.65,8.83,2.1889,17.5481,4.643a597.0593,597.0593,0,0,1,118.18,47.4029c2.104,1.0835,4.1855,2.2109,6.2671,3.3607,1.8354.9949,3.6708,1.99,5.5062,3.029q9.6357,5.3726,19.1147,11.099c1.813,1.0834,3.6035,2.1889,5.4165,3.3165.291.1769.6044.3758.9178.5748q21.2522,13.1994,41.4973,28.1234,18.0965,13.3322,35.32,27.9465a3.44,3.44,0,0,1,.291.2653q10.6765,9.0539,20.9948,18.6605c.8505.7518,1.7235,1.5477,2.574,2.3658.2462.221.5148.4643.7611.73q22.1923,20.7941,42.594,43.777,22.0581,24.7405,41.8331,51.8249a710.5115,710.5115,0,0,1,47.8765,74.7525q7.319,13.0668,14.0786,26.5315C1279.1639,579.1754,1308.7314,697.2628,1309,823Z"/><path class="cls-2" d="M1108.8673,750.61c-17.4967,12.7164-24.3834,38.28-24.3834,38.28s21.4813,4.9447,38.978-7.7717,24.3833-38.28,24.3833-38.28S1126.36,737.8931,1108.8673,750.61Z"/><path class="cls-3" d="M1109.7875,758.4936c-9.7983,21.9359-30.3255,31.1683-30.3255,31.1683s-4.6418-26.3231,5.1565-48.2526,30.3255-31.1682,30.3255-31.1682S1119.5884,736.5631,1109.7875,758.4936Z"/><polygon class="cls-4" points="1123.627 323.589 1079.623 340.082 1078.795 340.392 1068.7 344.173 1064.582 345.72 1064.134 345.897 932.368 395.312 576.417 528.81 922.475 438.691 1017.131 414.039 1018.026 413.818 1076.243 398.651 1077.564 398.297 1078.101 398.164 1080.048 397.656 1089.919 395.091 1165.46 375.413 1123.627 323.589"/><path class="cls-4" d="M1081.5928,213.0185a57.8246,57.8246,0,0,1-.0673,5.9032l-.4252.0664-.2462.0442h-.0224l-17.8166,3.228c-.0223,0-.0223.0221-.0447,0l-3.76.6854-.3133.0664-13.8773,2.4984-23.927,4.3334L845.21,261.66,704.7144,287.0635l-3.76.6854h-.0224L452.0147,332.764l-2.0592.376-36.7746,6.6328-2.3055.42L157.9968,385.9377q10.2063-14.5593,21.0843-28.4772l236.83-53.4831,36.5508-8.247,310.1111-70.021,4.0064-.9064,8.6622-1.9457a.0312.0312,0,0,1,.0447,0l22.763-5.1737h.0224l23.6361-5.3283,5.6628-1.2824,10.0946-2.2773,9.0874-2.0563,88.7246-20.0312,13.3624-3.0069,6.3119-1.4371,18.309-4.1346,10.52-2.3656,12.4-2.8079,17.727-4.0019,9.58-2.1667,11.5942-2.609,3.9394-.9065,4.387-.9728h.0223l17.1227-3.8692,3.1113-.7075a7.3094,7.3094,0,0,0,2.7754,4.1345c20.2114,17.6214,17.8613,36.2376,15.0858,45.0815A55.0767,55.0767,0,0,1,1081.5928,213.0185Z"/><path class="cls-2" d="M433.3505,331.3676c-.5714-2.094-1.2242-4.2113-1.8941-6.279l2.08-.682c.6785,2.1,1.3255,4.24,1.92,6.365Z"/><path class="cls-2" d="M420.0092,208.3534h-2.19c0-2.2047.0371-4.4386.1157-6.6462l2.1854.0758C420.0535,203.9644,420.0092,206.1749,420.0092,208.3534Z"/><path class="cls-2" d="M420.7462,174.7026c-.7834,4.3778-1.41,8.8438-1.88,13.2878l2.1712.2212c.47-4.3778,1.0967-8.8,1.88-13.1331ZM427.349,148.68c-1.41,4.2228-2.6635,8.5564-3.76,12.89l2.104.5306c1.0967-4.2672,2.3279-8.5564,3.7156-12.735ZM771.325,125.774l-1.97.9729c1.9248,3.9577,3.7378,8.0257,5.3717,12.1161l2.0145-.818C775.0853,133.91,773.2723,129.7759,771.325,125.774Zm-333.9261-1.8792c-2.0145,3.98-3.8723,8.092-5.5734,12.2045l2.0145.84c1.6787-4.0682,3.5365-8.1143,5.5062-12.05Zm320.5188-21.3137-.4923.3317-1.3206.9064c.2015.31.4252.6192.6267.9507,2.2383,3.3386,4.3869,6.81,6.4014,10.281l1.9025-1.1276C762.7971,110.0763,760.4023,106.2514,757.9177,102.5811Zm-305.2763-1.7466c-2.5292,3.648-4.9914,7.4509-7.252,11.2758l1.88,1.1276c2.2606-3.7808,4.6556-7.5393,7.1624-11.1432Zm288.7133-19.28-1.6116,1.4814c2.9545,3.25,5.8419,6.6549,8.55,10.1041l1.7236-1.3709C747.2637,88.2763,744.3315,84.8272,741.3547,81.5549ZM470.01,79.9852c-3.044,3.25-5.9761,6.655-8.7739,10.1261l1.7011,1.3929c2.753-3.427,5.6629-6.7877,8.662-10.0156ZM721.9937,63.0934l-1.3877,1.7025c3.38,2.7857,6.7148,5.7484,9.893,8.7774l1.5-1.5918C728.7757,68.9082,725.4183,65.9234,721.9937,63.0934Zm-234.346-1.3487c-3.4692,2.7859-6.8714,5.7485-10.1168,8.7775l1.4772,1.6141.0224-.0222c3.2007-2.9848,6.5581-5.9033,9.9827-8.6449Zm212.5677-14.15-1.1191,1.8794c3.7379,2.2993,7.4535,4.7313,11.0346,7.274l1.2534-1.7909C707.7584,52.37,704.0205,49.916,700.2154,47.5946ZM508.7545,46.5112c-3.8273,2.2772-7.61,4.7094-11.2584,7.23l1.2535,1.813c3.6035-2.4984,7.3415-4.9084,11.1018-7.1415ZM676.49,35.39l-.8728,2.0121c4.0288,1.7244,8.0577,3.626,11.9522,5.6158l1.0073-1.9678C684.6147,39.0382,680.5635,37.1146,676.49,35.39Zm-143.0472-.7959c-4.096,1.68-8.17,3.5376-12.1313,5.5274l.9624,1.9678c3.917-1.9678,7.9458-3.8029,11.9971-5.4612ZM651.22,26.7452l-.56,2.1226c4.23,1.1275,8.483,2.41,12.6238,3.8249L664,30.6144C659.8149,29.1772,655.495,27.8728,651.22,26.7452Zm-92.44-.5084c-4.2974,1.0833-8.6173,2.3214-12.8252,3.7143l.6715,2.1005h.0224c4.1407-1.3929,8.4157-2.6091,12.6685-3.6924Zm66.2078-4.4-.2463,2.1888c4.3647.5085,8.7517,1.15,13.0491,1.9676l.4029-2.1888C633.8286,23.0087,629.3968,22.3233,624.9875,21.837Zm-39.953-.995c-4.4093.4642-8.8412,1.0612-13.2057,1.835l.38,2.1668c4.32-.7517,8.7069-1.3707,13.0491-1.813Zm13.3177-.11.0672,2.2109c4.3645-.1327,8.8186-.1106,13.2056.0663l.09-2.1888C607.26,20.643,602.7615,20.5987,598.3522,20.7315Z"/><path class="cls-2" d="M781.1268,157.7844c-.5714-2.094-1.2185-4.2113-1.88-6.2892l2.0854-.6718c.67,2.1027,1.3085,4.2434,1.9026,6.365Z"/><ellipse class="cls-3" cx="432.2477" cy="358.8632" rx="36.4513" ry="2.7512"/><ellipse class="cls-3" cx="791.2927" cy="220.3808" rx="36.4513" ry="2.7512"/><path class="cls-2" d="M667.2348,321.6663l109.6216-110.32,1.5484,1.5569-109.61,110.3092Z"/><rect class="cls-2" x="451.7461" y="334.3781" width="183.5374" height="2.211"/><path class="cls-2" d="M452.4623,336.589a14.4928,14.4928,0,0,0-.1791-2.2109c-.067-.5528-.1566-1.0834-.2685-1.6141a20.2879,20.2879,0,0,0-10.7885-13.9732,17.1073,17.1073,0,0,0-1.8354-.8181,21.3646,21.3646,0,0,0-22.92,4.7315,19.9262,19.9262,0,0,0-5.5957,17.4887,20.6048,20.6048,0,0,0,1.522,4.93,21.21,21.21,0,0,0,12.4447,11.0548,20.327,20.327,0,0,0,7.4087,1.0391,20.9081,20.9081,0,0,0,6.2672-1.0612h.0223a20.0779,20.0779,0,0,0,13.9445-19.3017A1.0578,1.0578,0,0,0,452.4623,336.589ZM438.63,353.7018a19.0911,19.0911,0,0,1-20.4577-4.223,17.5787,17.5787,0,0,1-4.9913-9.706,17.8968,17.8968,0,0,1,1.3653-10.3031,18.904,18.904,0,0,1,9.4678-9.22,18.2459,18.2459,0,0,1,8.2368-1.5477,18.4658,18.4658,0,0,1,8.0354,1.9457,17.886,17.886,0,0,1,9.6693,12.492,16.8788,16.8788,0,0,1,.3357,3.7143A18.1668,18.1668,0,0,1,438.63,353.7018Z"/><path class="cls-2" d="M669.1484,322.8589a20.1971,20.1971,0,0,0-1.6116-1.4813,19.4716,19.4716,0,0,0-5.7971-3.4049,21.3568,21.3568,0,0,0-22.92,4.7315,19.6756,19.6756,0,0,0-5.73,11.6739,18.0224,18.0224,0,0,0-.1567,2.2109,19.99,19.99,0,0,0,1.813,8.5343A20.9856,20.9856,0,0,0,654.6,357.2172c11.37-.1989,20.4353-9.3081,20.2338-20.3629A20.5957,20.5957,0,0,0,669.1484,322.8589Zm-8.1921,30.8429a19.0541,19.0541,0,0,1-20.4352-4.223A17.785,17.785,0,0,1,636.895,329.47,18.7165,18.7165,0,0,1,654.6,318.7023a18.0852,18.0852,0,0,1,6.3566,35Z"/><path class="cls-2" d="M802.7726,181.7555a18.8247,18.8247,0,0,0-4.3423-2.2772,22.4067,22.4067,0,0,0-4.7-1.26,21.3221,21.3221,0,0,0-14.2353,2.8964,20.259,20.259,0,0,0-3.984,3.0953,19.9588,19.9588,0,0,0-4.0737,22.4412,21.4069,21.4069,0,0,0,4.1856,5.9254,20.4626,20.4626,0,0,0,1.6338,1.4813,21.0723,21.0723,0,0,0,6.67,3.6481h.0224a20.4335,20.4335,0,0,0,7.3416,1.0171,21.5892,21.5892,0,0,0,6.2447-1.0392h.0224a20.1225,20.1225,0,0,0,13.9667-18.8594v-.4422A20.5343,20.5343,0,0,0,802.7726,181.7555Zm-5.1033,33.474a19.1,19.1,0,0,1-20.4578-4.245,17.7846,17.7846,0,0,1-3.6259-19.9872,18.9237,18.9237,0,0,1,6.9163-7.871,18.3272,18.3272,0,0,1,10.7884-2.9185h.0224a18.09,18.09,0,0,1,4.2526.5749h.0224a18.107,18.107,0,0,1,13.6311,15.1451v.0222a14.5073,14.5073,0,0,1,.1343,2.432A18.22,18.22,0,0,1,797.6693,215.23Z"/><path class="cls-5" d="M432.2508,212.1341c-20.48.3317-36.797,16.7591-36.4612,36.68,0,10.8338,10.43,35.0217,20.1219,55.1635,2.4844,5.1294,4.9018,9.9714,7.0953,14.2827q.5037,1.0281,1.0072,1.99c4.79,9.3523,8.2368,15.6978,8.2368,15.6978s1.0072-1.8572,2.6859-5.0188v-.0221c.1119-.1991.2462-.42.3582-.6633,1.3429-2.5205,3.044-5.8148,4.9913-9.5956q.47-.8955.94-1.8572c3.4022-6.6771,7.3863-14.7471,11.2361-23.06,8.3935-18.13,16.2274-37.52,16.2274-46.9165C469.0478,228.8932,452.7309,212.4879,432.2508,212.1341ZM413.45,256.6407a18.8987,18.8987,0,0,1,3.8721-21.2252,20.2509,20.2509,0,0,1,21.6664-4.4661,19.18,19.18,0,0,1-6.7372,37.122A19.8715,19.8715,0,0,1,413.45,256.6407Z"/><path d="M1061.0971,94.6182c-7.7133,22.9871-19.5462,43.9342-43.6561,43.9342s-42.2963-19.7084-43.6561-43.9342c-1.7326-30.9565,18.9878-44.0639,43.6561-43.9342C1046.576,50.8443,1070.2546,67.3382,1061.0971,94.6182Z"/><rect class="cls-6" x="973.2609" y="91.1726" width="87.2922" height="110.5479"/><path class="cls-7" d="M1073.9154,377.4918a69.71,69.71,0,0,0,.7835,9.4187l-.6268-1.26-6.7148-13.531-2.7754-26.3989-3.5365-33.4961-.5148-4.8641-4.3869-41.6323-.1791-1.7908.4477-6.1466,2.3948-33.6066.09-1.1717,1.522-21.2916.1342-1.8572,1.9249-26.8852h7.3192a65.3391,65.3391,0,0,1,11.7284,33.96,55.0767,55.0767,0,0,1,.0673,6.08,59.68,59.68,0,0,1-.4925,5.97,2.4175,2.4175,0,0,1-.0448.42,64.9514,64.9514,0,0,1-1.4772,7.65c-3.5589,13.5753-4.32,22.3086-4.0513,27.8581.3358,7.2078,2.4174,9.0208,2.4174,9.0208s.7162,2.3214,1.5891,6.6328c.4924,2.4542,1.03,5.5494,1.5,9.2418l.0223.022a174.2132,174.2132,0,0,1,1.343,24.52.4485.4485,0,0,1,0,.2432,209.3487,209.3487,0,0,1-3.6036,35.7954c-.4925,2.6311-1.03,5.3506-1.6564,8.0922-.6042,2.6752-1.0967,5.24-1.522,7.7162A108.2909,108.2909,0,0,0,1073.9154,377.4918Z"/><path class="cls-7" d="M1087.7032,413.0882a19.247,19.247,0,0,1-4.23-4.1124,37.4939,37.4939,0,0,1-5.909-10.679c-.4253-1.1276-.8282-2.3214-1.1862-3.6038a52.6454,52.6454,0,0,1-1.6787-7.7825l5.3494,10.7452Z"/><path class="cls-8" d="M1074.0721,385.65c.1343,2.0119.3358,3.8913.6268,5.6822l-7.3416-14.7913-3.2231-30.644-3.5588-33.695-.5147-4.9083-4.0961-38.9349.1791-2.6311.56-7.6721,2.44-34.0045.0672-1.1055,3.2678-45.5457h7.3192a58.9737,58.9737,0,0,1,3.5141,5.6158,65.3317,65.3317,0,0,1,7.9234,24.829c.2015,1.7025.3133,3.4271.3582,5.1737a57.8246,57.8246,0,0,1-.0673,5.9032c-.0224.398-.0448.7961-.0894,1.216a63.7736,63.7736,0,0,1-1.8578,11.3423c-2.7307,10.4136-3.8051,17.9751-4.0513,23.4362-.47,10.9,2.4174,13.4427,2.4174,13.4427s.4475,1.3928,1.0295,4.0459v.0222c.4029,1.7025.8505,3.9355,1.2982,6.655a163.52,163.52,0,0,1,2.1264,25.2712.4485.4485,0,0,1,0,.2432,201.76,201.76,0,0,1-2.7754,35.4859c-.6716,4.1346-1.5,8.4238-2.4846,12.8236-.3581,1.5476-.6715,3.0512-.94,4.5325a118.1077,118.1077,0,0,0-2.2831,20.0534A80.3354,80.3354,0,0,0,1074.0721,385.65Z"/><path class="cls-8" d="M1087.7032,417.51s-7.5206-4.7315-11.46-18.8594a55.3167,55.3167,0,0,1-1.5444-7.3183l1.6787,3.3606,1.7235,3.4712,5.3717,10.8116Z"/><path class="cls-9" d="M1036.8258,133.2308s-6.5148,26.2294-3.2567,26.2294,14.6553,13.9322,14.6553,13.9322l7.3291,27.0425-5.7008,19.6545-19.5419-4.0961-24.4256-27.0425-7.3291-7.3763-6.5177-23.7712s8.1418-9.8272,2.4439-18.03S1036.8258,133.2308,1036.8258,133.2308Z"/><path class="cls-10" d="M1036.8258,133.2308s-6.5148,26.2294-3.2567,26.2294,14.6553,13.9322,14.6553,13.9322l7.3291,27.0425-5.7008,19.6545-19.5419-4.0961-24.4256-27.0425-7.3291-7.3763-6.5177-23.7712s8.1418-9.8272,2.4439-18.03S1036.8258,133.2308,1036.8258,133.2308Z"/><path class="cls-9" d="M839.7654,206.1674,821.849,176.6623S802.5,133.6038,788.6673,149.1739s20.966,47.1575,20.966,47.1575l17.905,23.7638Z"/><path class="cls-9" d="M1077.5423,462.6675,1064.51,558.5359s1.6284,7.3763-14.6568,34.4188S989.5944,679,989.5944,679l-13.03-24.5857s15.4709-77.8532,42.342-94.2422l-3.2582-118.0075Z"/><path class="cls-10" d="M1077.5423,462.6675,1064.51,558.5359s1.6284,7.3763-14.6568,34.4188S989.5944,679,989.5944,679l-13.03-24.5857s15.4709-77.8532,42.342-94.2422l-3.2582-118.0075Z"/><path class="cls-11" d="M976.5674,644.5931l17.9049,34.4187s-14.6554,41.7951-8.9518,45.8912,13.03,40.9747-2.4426,36.8785-27.6866-20.4967-27.6866-22.9463,8.9532-36.8785,4.0724-45.0723a39.63,39.63,0,0,0-8.1419-10.6535l-12.2157,20.4968-4.0724-2.46,20.3576-34.4187a21.6226,21.6226,0,0,1,12.2156-10.6535Z"/><path class="cls-12" d="M976.5674,644.5931l17.9049,34.4187s-14.6554,41.7951-8.9518,45.8912,13.03,40.9747-2.4426,36.8785-27.6866-20.4967-27.6866-22.9463,8.9532-36.8785,4.0724-45.0723a39.63,39.63,0,0,0-8.1419-10.6535l-12.2157,20.4968-4.0724-2.46,20.3576-34.4187a21.6226,21.6226,0,0,1,12.2156-10.6535Z"/><path class="cls-9" d="M1016.5822,449.0632s6.3249,90.6371-7.5092,114.4V681.47l-18.7277,2.46s-37.831-62.474-23.9756-123.9382-14.2839-117.8107-14.2839-117.8107Z"/><ellipse class="cls-9" cx="1011.1761" cy="118.8921" rx="34.2016" ry="34.4188"/><path class="cls-7" d="M1045.7875,209.4344l-34.2016-43.4315L992.044,152.8882l-8.1419,10.6536-22.8144,6.5573s-14.6553,3.2772-30.1292,21.3056-43.1376,28.6993-43.1376,28.6993l-22.8144-4.0962s-26.8538-12.2928-26.8538-15.57-23.6143,22.1259-17.905,31.959,17.905,22.126,24.4256,28.6819,8.9518,25.4061,48.8512,19.6545,54.5649-25.4046,54.5649-25.4046,7.329,37.6946,28.5008,45.0709,90.3905,12.2928,90.3905,12.2928l14.6553-49.1684s16.2838-21.3056-5.7007-52.4472a206.79,206.79,0,0,0-2.7868-28.998,19.2072,19.2072,0,0,0-3.7281-9.51c-5.7008-4.9165-35.83-13.1147-35.83-13.1147s4.8865,16.389,7.329,17.2094S1049.0386,205.3456,1045.7875,209.4344Z"/><path class="cls-11" d="M936.258,454.0614c41.0079-2.8692,64.8821,3.8921,75.5351,9.0462a26.9749,26.9749,0,0,1,5.5536,3.3923c.7828.663,1.1556,1.1789,1.1556,1.4907,0,2.46,56.1861,7.3763,76.5436,2.46s-13.8412-110.6283-22.8144-119.6454-4.13-42.0078-4.13-42.0078-17.8549-3.8834-22.7415-2.247-30.1292-2.46-39.0881-7.3763-20.3561-1.6393-27.6866-3.2772a4.6024,4.6024,0,0,0-5.7508,2.09,14.1144,14.1144,0,0,1-5.5451,5.667c-17.2835,10.0211-31.1633,79.3192-41.6121,117.6286C914.2721,463.0769,936.258,454.0614,936.258,454.0614Z"/><path class="cls-11" d="M1011.5832,674.0953l3.2568,18.0283s17.105,24.5857,12.2128,45.0708c0,0,4.0724,27.0425,18.7277,34.4188s2.444,24.5857-11.4,23.7653-26.8725.82-28.5009-3.2772-11.4014-44.2519-11.4014-44.2519l-2.674,46.9885-8.1419.82,2.674-54.3647s-6.5149-12.2928,2.444-32.7794l-2.2641-31.4505S1009.1406,682.292,1011.5832,674.0953Z"/><path class="cls-10" d="M1011.7945,463.1075a26.9964,26.9964,0,0,1,5.5536,3.3924c.4285-7.7435,2.9226-54.579-.0657-53.8242Z"/><path d="M1081.5255,206.9384c-.0894.3095-.2013.6191-.2909.9064a28.62,28.62,0,0,1-1.8354,4.3335l-3.5588-3.5817-.1343-.1327a26.781,26.781,0,0,1-12.691,13.7964c-.0223,0-.0223.0221-.0447,0a34.88,34.88,0,0,1-3.8275,1.7909q-.1679.0663-.3358.1326a45.6557,45.6557,0,0,1-14.5709,2.8964l.7833-1.57,2.8873-5.8148,3.738-7.5174-6.8268,6.854-4.2974,4.3335,1.0072-5.0189.8506-4.2893c1.4325-7.23.649-3.2722-6.6477-12.3371a115.353,115.353,0,0,1-8.17-11.8949,34.9769,34.9769,0,0,1-3.76-8.3132,27.0852,27.0852,0,0,1-.3134-14.725c1.7458-7.1856,6.021-13.8627,10.4975-20.4072v-.0221c3.6932-5.3727,7.5429-10.701,10.2513-16.1622a36.884,36.884,0,0,0,2.6858-6.81c1.7459-6.5445.2687-11.0328-3.0216-14.5039-3.4022-3.5817-8.774-6.036-14.4815-8.5123a159.3778,159.3778,0,0,1-16.72-9.1975q-4.4654-2.786-8.7739-5.9034-1.1417-.7959-2.2831-1.6582c-1.1862,1.194-2.35,2.3438-3.4469,3.4271-1.5,1.4813-2.91,2.8521-4.23,4.1345-7.0282,6.7655-11.7285,11.0327-14.5263,14.924a17.7476,17.7476,0,0,0-2.2831,4.0681c-1.5891,4.0461-1.2534,8.468.5148,15.6757a3.4972,3.4972,0,0,0,.112.4644c.179.7738.4029,1.57.6266,2.41q.0673.2322.1343.4644c.291,1.1276.6268,2.3215.9849,3.5817.8729,3.0953,1.634,6.1023,2.3279,9.0208a100.8241,100.8241,0,0,1,2.5068,21.1367,98.5417,98.5417,0,0,1-.582,12.8457,102.8954,102.8954,0,0,1-3.7826,18.5057,42.387,42.387,0,0,0-1.3207,6.8761,4.9635,4.9635,0,0,0-.0446.5748,42.6516,42.6516,0,0,0,7.2743,28.1676l-9.2664-5.5937c-.6268-.2654-1.2535-.5307-1.8578-.796-14.974-6.5664-22.405-21.8664-20.6367-36.7682a30.664,30.664,0,0,1,.8057-4.4661,37.1853,37.1853,0,0,1,5.26-11.9171c.6043-.8844,1.2534-1.7467,1.925-2.5867a22.3675,22.3675,0,0,0,3.402-21.7338c-6.088-19.9872-1.1415-51.5375,9.11-65.1128a16.79,16.79,0,0,1,7.1848-5.9475c14.7949-5.5936,15.1754-3.4712,15.1754-3.4712s42.8179-7.473,59.493-.0221a19.4279,19.4279,0,0,1,5.4165,3.7586c13.2058,12.58,19.7191,45.9,8.2368,62.4154-7.0952,10.1926-7.5429,16.4716-6.4908,20.0755a7.3094,7.3094,0,0,0,2.7754,4.1345C1086.6511,179.4783,1084.301,198.0945,1081.5255,206.9384Z"/><ellipse cx="1017.4382" cy="42.5879" rx="17.2322" ry="17.3405"/><path d="M996.7592,33.342a17.2927,17.2927,0,0,1,15.5081-17.2546,17.0115,17.0115,0,0,0-18.7306,17.2531,17.01,17.01,0,0,0,18.7291,17.2532,17.2928,17.2928,0,0,1-15.5081-17.2546Z"/><path class="cls-5" d="M791.29,80.0735a37.08,37.08,0,0,0-33.8649,22.8393c-.2462.619-.4925,1.2381-.6939,1.8571a34.9509,34.9509,0,0,0-1.88,11.9835c0,.3758.0224.7517.0448,1.15.7834,13.1774,14.2578,42.4947,24.5985,63.2114.3358.6854.6715,1.3486,1.0073,2.0119,6.0433,12.0719,10.7884,20.7609,10.7884,20.7609s3.8273-7.0308,9.02-17.2454c.4925-.9507.9848-1.9678,1.522-2.9849.291-.619.6268-1.26.94-1.9014,3.2231-6.4338,6.7594-13.7521,10.1392-21.1589,4.3871-9.5955,8.4831-19.3679,11.281-27.659,2.1934-6.5887,3.5587-12.2709,3.5587-16.1842C828.0873,96.8327,811.77,80.4274,791.29,80.0735Zm0,55.9373A19.8618,19.8618,0,0,1,772.5112,124.58a18.3635,18.3635,0,0,1-1.2758-3.9356,18.7574,18.7574,0,0,1,5.1257-17.29A20.2786,20.2786,0,0,1,798.05,98.8888a19.2456,19.2456,0,0,1,12.3777,17.8646,18.5851,18.5851,0,0,1-3.7827,11.5412A19.567,19.567,0,0,1,791.29,136.0108Z"/><polygon class="cls-4" points="1227.415 476.698 1078.392 544.463 1213.337 450.166 1227.415 476.698"/></svg>