<svg xmlns="http://www.w3.org/2000/svg" width="689.053" height="459.2" viewBox="0 0 689.053 459.2"><defs><style>.a{fill:#e6e6e6;}.b{fill:#fff;}.c{fill:#008dc8;}</style></defs><rect class="a" width="688.725" height="458.747" transform="translate(0.328 0.453)"/><rect class="b" width="644.938" height="364.402" transform="translate(24.725 64.56)"/><rect class="c" width="688.725" height="33.905"/><ellipse class="b" cx="6.029" cy="6.284" rx="6.029" ry="6.284" transform="translate(18.144 11.05)"/><ellipse class="b" cx="6.029" cy="6.284" rx="6.029" ry="6.284" transform="translate(41.027 11.05)"/><ellipse class="b" cx="6.029" cy="6.284" rx="6.029" ry="6.284" transform="translate(63.91 11.05)"/><path class="a" d="M453.756,201.655c-3.905,0-7.071,2.342-7.071,5.229s3.165,5.229,7.071,5.229H787.095c3.905,0,7.071-2.342,7.071-5.229s-3.165-5.229-7.071-5.229Z" transform="translate(-186.087 -80.487)"/><path class="a" d="M755.37,448.857H268.779c-4.974,0-9.005-3.45-9.011-7.7V337.993c.005-4.251,4.036-7.7,9.011-7.7H755.37c4.974,0,9.005,3.45,9.011,7.7V441.156C764.377,445.406,760.344,448.852,755.37,448.857ZM268.779,333.37c-2.985,0-5.4,2.07-5.407,4.62V441.153c0,2.55,2.422,4.618,5.407,4.62H755.37c2.985,0,5.4-2.07,5.407-4.62V337.993c0-2.55-2.422-4.618-5.407-4.62Z" transform="translate(-156.303 -64.493)"/><ellipse class="a" cx="25.088" cy="26.151" rx="25.088" ry="26.151" transform="translate(149.764 298.944)"/><path class="c" d="M371.7,359.655a5.233,5.233,0,0,0-.013,10.457H608.181a5.233,5.233,0,0,0,0-10.457Z" transform="translate(-106.488 -57.82)"/><path class="c" d="M371.7,383.692a5.233,5.233,0,0,0-.013,10.457h101.77a5.233,5.233,0,0,0,.013-10.457Z" transform="translate(-89.251 -53.763)"/><path class="a" d="M451.32,225.655a5.268,5.268,0,0,0,0,10.457H669.782a5.268,5.268,0,0,0,0-10.457Z" transform="translate(-157.401 -76.436)"/><path class="a" d="M452.759,249.655c-3.354,0-6.074,2.341-6.074,5.229s2.72,5.229,6.074,5.229H739.125c3.355,0,6.074-2.341,6.074-5.229s-2.72-5.229-6.074-5.229Z" transform="translate(-164.706 -72.386)"/></svg>