<svg xmlns="http://www.w3.org/2000/svg" width="145.95" height="153.216" viewBox="0 0 145.95 153.216"><defs><style>.a{fill:none;stroke:#000;stroke-miterlimit:10;stroke-width:3px;}</style></defs><g transform="translate(-3.5 -1.395)"><path class="a" d="M142.305,36.665,82.121,4.4a12.038,12.038,0,0,0-11.286,0L10.643,36.665A10.368,10.368,0,0,0,5,45.739v64.525a10.368,10.368,0,0,0,5.643,9.075L70.832,151.6a12.038,12.038,0,0,0,11.286,0l60.189-32.26a10.378,10.378,0,0,0,5.643-9.079V45.739A10.368,10.368,0,0,0,142.305,36.665ZM108.638,67.773V88.228M97.917,78h21.442m14.3-10.228V88.228M122.933,78h21.442"/><path class="a" d="M55.884,13a43.38,43.38,0,0,1,34.1,16.163L74.332,37.809a25.594,25.594,0,0,0-18.448-7.762c-13.794,0-25.016,10.7-25.016,23.864S42.089,77.776,55.884,77.776a25.594,25.594,0,0,0,18.448-7.762l15.655,8.643a43.38,43.38,0,0,1-34.1,16.163C32.238,94.82,13,76.468,13,53.91S32.238,13,55.884,13" transform="translate(20.589 24.091)"/></g></svg>