<svg xmlns="http://www.w3.org/2000/svg" width="296.727" height="227.361" viewBox="0 0 296.727 227.361"><defs><style>.a{fill:#008dc8;}.b{fill:#2f2e41;}.c{fill:#d0cde1;}.d{fill:#3f3d56;}.e{fill:#ffb8b8;}.f{fill:#394855;}.g{fill:#212b34;}.h{fill:#bd6997;}.i{opacity:0.1;}</style></defs><g transform="translate(-137.913 -159.361)"><path class="a" d="M.515.505,22.281.4l-.1,21.883-21.765.1Z" transform="translate(375.161 217.801) rotate(150)"/><path class="b" d="M898.376,451.7l-11.334-19.842,19.63-11.459L918,440.247Zm-10.026-19.488,10.375,18.163L916.7,439.891l-10.374-18.163Z" transform="translate(-536.076 -219.148)"/><ellipse class="c" cx="9.11" cy="9.209" rx="9.11" ry="9.209" transform="translate(340.271 267.458)"/><path class="b" d="M877.589,575.386a9.694,9.694,0,1,1,9.589-9.693A9.641,9.641,0,0,1,877.589,575.386Zm0-18.416a8.724,8.724,0,1,0,8.63,8.724A8.677,8.677,0,0,0,877.589,556.97Z" transform="translate(-522.77 -289.027)"/><path class="d" d="M338.154,547.763Z" transform="translate(-200.241 -252.411)"/><path class="e" d="M464.876,687,462,701.055h11.986L472.548,687Z" transform="translate(-231.422 -324.308)"/><path class="e" d="M376.876,677,374,691.055h11.986L384.548,677Z" transform="translate(-178.014 -319.155)"/><path class="e" d="M528.392,486.938s3.836,16.963,7.671,22.294,12.945,20.84,12.945,20.84,1.918,19.386,9.11,15.025-3.836-18.416-3.836-18.416l-13.9-31.018L537.5,485Z" transform="translate(-316.7 -252.438)"/><ellipse class="e" cx="13.242" cy="13.015" rx="13.242" ry="13.015" transform="translate(217.798 164.761)"/><path class="e" d="M555.57,384.331l-6.234,14.055-12.945-3.393S546.46,383.85,545.021,379Z" transform="translate(-320.912 -197.811)"/><path class="f" d="M510.183,407s15.342.488,19.178,5.816,5.754,7.754,5.754,7.754,5.274,1.454,5.754,8.239,1.439,17.932,1.439,17.932,11.507,12.6,13.425,36.834,18.22,95.476,0,95.961-31.165,7.269-28.767-1.453,6.232-59.128,6.232-59.128-2.873,62.033-14.384,61.55-26.37-8.239-29.726-9.209,24.452-60.581,24.452-60.581l3.356-51.858S492.443,415.239,510.183,407Z" transform="translate(-294.543 -212.241)"/><path class="g" d="M411.5,370.5l2.4,31.5h10.548Z" transform="translate(-200.817 -161.201)"/><path class="e" d="M565.392,484.938s3.836,16.963,7.671,22.294,12.945,20.84,12.945,20.84,1.918,19.386,9.11,15.025-3.836-18.416-3.836-18.416l-13.9-31.018L574.5,483Z" transform="translate(-339.351 -251.407)"/><path class="g" d="M575.159,771.063s-3.356-3.878-4.315-1.938-5.274,11.632.959,11.632,33.562-1.454,30.206-7.269-8.151-4.362-8.151-4.362h-6.232s-4.485-5.061-5.359-3.254-2.312,4.711-2.312,4.711S577.556,773,575.159,771.063Z" transform="translate(-341.356 -396.982)"/><path class="g" d="M480.406,755.032s-.836-5.082-2.661-3.943-10.539,7.086-5.242,10.4,29.3,16.612,29.471,9.881-4.661-8.044-4.661-8.044l-5.3-3.315s-1.18-6.69-2.862-5.621-4.418,2.777-4.418,2.777a4,4,0,0,1-2.688-.285A3.1,3.1,0,0,1,480.406,755.032Z" transform="translate(-281.419 -389.48)"/><path class="g" d="M551.773,411.233s-3.356,6.785,0,18.9,5.754,22.294,5.754,22.294,7.671-4.846,11.027-3.393-5.309-32.3-5.309-32.3S558.005,405.417,551.773,411.233Z" transform="translate(-329.36 -213.566)"/><path d="M560.6,348.074s4.642-16.38-13.513-13.571c0,0-12.031-4.2-18.445,10.818l-6.582,15.771,2.169-.794.622,2.207,3.121,1.331,1.808-2.573.162,3.487,26.179,6.773s-10.833-8.948-9.1-21.737l1.9,2.772Z" transform="translate(-313.177 -174.601)"/><path class="h" d="M0,0H95.891V90.63H0Z" transform="translate(295.102 293.182)"/><rect class="d" width="20.137" height="96.002" transform="translate(350.129 290.72)"/><path class="d" d="M1018.829,575.471c-.516,8.55-11.94,14.8-11.94,14.8s-10.594-7.609-10.074-16.158,11.94-14.8,11.94-14.8S1019.34,566.922,1018.829,575.471Z" transform="translate(-606.473 -290.735)"/><path class="d" d="M1027.89,624.008c-8.459-.495-14.681-12.024-14.681-12.024s7.494-10.728,15.953-10.234,14.68,12.024,14.68,12.024S1036.346,624.5,1027.89,624.008Z" transform="translate(-615.017 -312.597)"/><path class="i" d="M856.171,553.477v31.642L825.04,543.58h23.714Z" transform="translate(-464.833 -250.398)"/><path class="h" d="M0,0,115.862.6l.1,19.735L.1,19.735Z" transform="translate(364.609 253.84) rotate(52.85)"/><path class="d" d="M0,0,20.759.108l.108,20.7L.108,20.7Z" transform="translate(393.217 290) rotate(52.85)"/><path class="c" d="M0,0,21.723.059l.059,21.927L.059,21.927Z" transform="translate(344.424 253.573) rotate(-164.991)"/><path class="b" d="M816.221,505.055l-21.894-5.93,5.865-22.131,21.893,5.93Zm-20.715-6.615,20.041,5.428,5.37-20.259-20.041-5.428Z" transform="translate(-478.95 -248.312)"/></g></svg>