<svg id="b92250be-d9f5-40ed-a47f-f23be829550d" data-name="Layer 1" xmlns="http://www.w3.org/2000/svg" width="774.66988" height="606.97744" viewBox="0 0 774.66988 846.97744"><title>collaborating</title><path d="M838.13215,86.8817V735.08165a29.13911,29.13911,0,0,1-29.13,29.11005h-263.15a29.07908,29.07908,0,0,1-29.13-29.11V86.8817a29.12748,29.12748,0,0,1,29.13-29.13h39.38v5.05a23.987,23.987,0,0,0,23.98,23.99h133.84a23.78923,23.78923,0,0,0,14.22-4.68,22.28455,22.28455,0,0,0,2.36-1.98,23.917,23.917,0,0,0,7.4-17.33v-5.05h41.97A29.12108,29.12108,0,0,1,838.13215,86.8817Z" transform="translate(-212.66506 -26.51128)" fill="#f2f2f2"/><circle cx="472.20087" cy="436.42534" r="57" fill="#f6f6ff"/><path d="M828.13405,802.51128H523.56374a36.05651,36.05651,0,0,1-19.37842-5.58008,32.54235,32.54235,0,0,1-15.33642-27.31347V59.4273c0-18.14991,15.57324-32.916,34.71484-32.916h71.57861V33.044c0,13.9419,12.002,25.28467,26.7544,25.28467H722.80349a27.48741,27.48741,0,0,0,15.88379-4.94629A25.17836,25.17836,0,0,0,749.55788,33.044V26.51128h78.57617c19.1416,0,34.71485,14.76611,34.71485,32.916V769.61773a32.15325,32.15325,0,0,1-12.22364,25.04589A35.77459,35.77459,0,0,1,828.13405,802.51128Zm-304.57031-774c-18.03906,0-32.71484,13.86914-32.71484,30.916V769.61773a30.54921,30.54921,0,0,0,14.41259,25.62792,34.05205,34.05205,0,0,0,18.30225,5.26563H828.13405a33.76747,33.76747,0,0,0,21.2334-7.40234,30.16509,30.16509,0,0,0,11.48145-23.49121V59.4273c0-17.04688-14.67578-30.916-32.71485-30.916H751.55788V33.044a27.17792,27.17792,0,0,1-11.73144,21.98194,29.46552,29.46552,0,0,1-17.023,5.30273H621.89675c-15.85547,0-28.7544-12.23974-28.7544-27.28467V28.51128Z" transform="translate(-212.66506 -26.51128)" fill="#3f3d56"/><path d="M771.82013,558.29806H595.94329V368.93584H771.82013Zm-173.62194-2.2549h171.367V371.19075h-171.367Z" transform="translate(-212.66506 -26.51128)" fill="#3f3d56"/><rect x="405.3441" y="179.39848" width="115.46684" height="2.2549" fill="#3f3d56"/><rect x="405.3441" y="210.09179" width="115.46684" height="2.2549" fill="#3f3d56"/><rect x="405.3441" y="240.78511" width="115.46684" height="2.2549" fill="#3f3d56"/><path d="M284.22757,800.77817l-1.07324-.40234c-.23584-.08887-23.7085-9.082-34.7041-29.47363-10.99609-20.39258-5.61182-44.94531-5.55615-45.19043l.25341-1.11817,1.07276.40235c.23584.08886,23.708,9.082,34.7041,29.47363,10.99609,20.39258,5.61182,44.94531,5.55615,45.19043ZM250.211,769.953c9.29639,17.24121,27.84522,26.0791,32.54492,28.09668.89356-5.03711,3.6958-25.40625-5.59228-42.63086-9.28711-17.22266-27.84326-26.07422-32.54492-28.09668C243.72464,732.36216,240.92337,752.72935,250.211,769.953Z" transform="translate(-212.66506 -26.51128)" fill="#3f3d56"/><path d="M256.85342,763.74915c19.76056,11.88861,27.371,35.50267,27.371,35.50267s-24.42779,4.33881-44.18835-7.5498-27.371-35.50267-27.371-35.50267S237.09285,751.86054,256.85342,763.74915Z" transform="translate(-212.66506 -26.51128)" fill="#f6f6ff"/><polygon points="707.75 772.239 709.582 802.455 719.654 813.443 740.714 797.877 726.979 766.745 707.75 772.239" fill="#a0616a"/><path d="M945.13784,827.13508s.40709-6.10331,1.11919-17.702c0,0,30.9284-6.1048,29.09711,14.955s-17.39726,28.385-17.39726,28.385-7.32516-.91565-6.40952,6.40951-26.55371,22.89114-39.37275,8.24081l7.882-46.24009s8.59965,5.9517,11.34658,3.20476S945.13784,827.13508,945.13784,827.13508Z" transform="translate(-212.66506 -26.51128)" fill="#2f2e41"/><polygon points="680.723 201.334 706.361 255.357 660.267 267.937 651.422 218.731 680.723 201.334" fill="#a0616a"/><circle cx="654.16905" cy="195.84005" r="35.71017" fill="#a0616a"/><path d="M890.21157,237.67325c-3.24259-.19348-6.40876.90236-9.62886,1.32987-11.52061,1.52952-23.50555-6.83038-26.0493-18.17028a13.94172,13.94172,0,0,0-1.33234-4.34106c-1.77307-2.89487-5.81115-3.44678-9.14-2.78112s-6.48421,2.22363-9.87426,2.4015c-5.2343.27464-10.25948-2.9478-13.049-7.38534s-3.57939-9.89791-3.2028-15.12586l2.50928,2.6336a12.74537,12.74537,0,0,0,1.13619-6.92692,8.03808,8.03808,0,0,1,7.61373,1.9482c2.21261.23548.54269-4.104,2.1865-5.60365.68832-.628,1.74363-.50948,2.67532-.5005,4.707.04538,8.5148-3.5549,12.22405-6.45314a51.94468,51.94468,0,0,1,21.939-10.00722c5.3152-1.03669,10.96717-1.20329,16.00787.77594,4.13966,1.62544,7.60461,4.58589,10.81035,7.66843,7.8917,7.58841,14.8799,16.50451,18.163,26.94883a45.366,45.366,0,0,1,.21728,26.30605c-1.32292,4.465-5.30985,19.75645-11.14661,20.11257C894.937,250.95062,899.34026,238.21793,890.21157,237.67325Z" transform="translate(-212.66506 -26.51128)" fill="#2f2e41"/><polygon points="632.651 772.239 630.82 802.455 620.748 813.443 599.688 797.877 613.423 766.745 632.651 772.239" fill="#a0616a"/><path d="M856.762,276.3744s4.57823-33.87888,48.5292-22.89113,48.52921,21.05984,48.52921,21.05984.91564,9.15645,3.66258,10.0721,10.0721,5.49387,6.40952,8.24081,16.48161,30.21629,16.48161,30.21629,11.90339,7.32517,4.57823,42.11969-15.566,85.155-15.566,85.155,2.74693,16.48161-.91565,25.63807,3.66258,15.566,3.66258,19.22855-1.83129,21.97549-1.83129,21.97549-124.52776-4.57823-141.925,0S856.762,276.3744,856.762,276.3744Z" transform="translate(-212.66506 -26.51128)" fill="#575a89"/><path d="M966.18163,509.40614s7.32516,17.39726,0,45.78227-9.15645,99.80534-9.15645,99.80534,0,138.26245-6.40952,145.58761-4.57823,19.22855-4.57823,19.22855H918.56807s.91565-14.65032-2.74693-22.89113-2.74694-97.05841-2.74694-97.05841l-15.566-124.52776L866.37629,693.45086s-11.90339,87.90195-16.48162,91.56453,0,18.31291,0,18.31291a45.09751,45.09751,0,0,1-27.46936-4.57823V784.09975s-13.73468-5.49388-9.15645-25.63807,2.74693-238.98344,16.48161-249.05554S966.18163,509.40614,966.18163,509.40614Z" transform="translate(-212.66506 -26.51128)" fill="#2f2e41"/><path d="M820.594,827.13508s-.40709-6.10331-1.11919-17.702c0,0-30.9284-6.1048-29.09711,14.955s17.39726,28.385,17.39726,28.385,7.32517-.91565,6.40952,6.40951,26.55372,22.89114,39.37275,8.24081l-7.882-46.24009s-8.59964,5.9517-11.34658,3.20476S820.594,827.13508,820.594,827.13508Z" transform="translate(-212.66506 -26.51128)" fill="#2f2e41"/><path d="M808.23281,512.6109l-2.74694,12.819s-32.96323,52.19178-5.49387,57.68565,25.63807-50.36049,25.63807-50.36049l2.74693-11.90339Z" transform="translate(-212.66506 -26.51128)" fill="#a0616a"/><path d="M840.73822,284.15739s19.22855-12.819,28.385,2.74693,18.31291,51.27614,18.31291,51.27614l-11.90339,86.98631-43.951,100.721-26.55371-10.0721s4.57823-12.819,2.74693-18.31291,7.32517-19.22855,7.32517-19.22855l9.15645-71.42034S827.91918,285.073,840.73822,284.15739Z" transform="translate(-212.66506 -26.51128)" fill="#575a89"/><polygon points="662.41 396.366 632.194 505.328 618.459 499.834 662.41 396.366" opacity="0.1"/><path d="M946.06605,309.05865a89.80885,89.80885,0,0,0,22.10156-2.66288l-.44888-1.775c-17.10128,4.32741-36.43893,3.26288-57.47463-3.16855-18.71618-5.72189-36.3969-14.88639-53.4955-23.74865l-.84232,1.62563c17.171,8.90026,34.92686,18.10366,53.8031,23.87473A124.66245,124.66245,0,0,0,946.06605,309.05865Z" transform="translate(-212.66506 -26.51128)" opacity="0.1"/><rect x="267.20087" y="501.42534" width="174" height="187" fill="#f6f6ff"/><path d="M448.18185,227.49325c-11.72361-27.6619-41.56685-32.88612-41.56685-32.88612s-28.73466-7.66578-52.7319,28.84216c-22.36735,34.02841-51.21139,65.91-14.6314,79.49241l9.66262-20.293,1.15918,23.354a148.93184,148.93184,0,0,0,16.10354,2.44381c40.57429,4.12194,78.82188,10.97558,79.53025-3.68771C446.649,285.266,459.4623,254.10954,448.18185,227.49325Z" transform="translate(-212.66506 -26.51128)" fill="#2f2e41"/><path d="M324.39388,449.01545l-2.61083,66.57616s-27.41371,53.522-5.22166,52.2166,19.58122-52.2166,19.58122-52.2166l7.83249-62.65991Z" transform="translate(-212.66506 -26.51128)" fill="#ffb8b8"/><path d="M474.51659,437.26672l7.83249,66.57616s23.49747,35.2462,5.22166,46.99493-18.27581-41.77327-18.27581-41.77327L449.71371,441.183Z" transform="translate(-212.66506 -26.51128)" fill="#ffb8b8"/><path d="M447.10288,561.28113l-23.49747,91.379s-10.44332,36.55162-24.80288,54.82743l-5.22166,10.44332-20.88664-2.61083,14.35956-58.74367L396.1917,548.227Z" transform="translate(-212.66506 -26.51128)" fill="#ffb8b8"/><path d="M447.10288,561.28113l-23.49747,91.379s-10.44332,36.55162-24.80288,54.82743l-5.22166,10.44332-20.88664-2.61083,14.35956-58.74367L396.1917,548.227Z" transform="translate(-212.66506 -26.51128)" opacity="0.1"/><path d="M367.52691,700.74606l35.70031,8.2659-14.71349,34.6848s5.9801,20.76449.28362,31.76085-4.87445,30.94844-4.87445,30.94844l-7.73711-1.21862s-18.78514,35.365-40.981,25.26159,1.4121-34.13679,1.4121-34.13679,19.19135-37.944,21.62857-53.41827S367.52691,700.74606,367.52691,700.74606Z" transform="translate(-212.66506 -26.51128)" fill="#2f2e41"/><path d="M367.52691,700.74606l35.70031,8.2659-14.71349,34.6848s5.9801,20.76449.28362,31.76085-4.87445,30.94844-4.87445,30.94844l-7.73711-1.21862s-18.78514,35.365-40.981,25.26159,1.4121-34.13679,1.4121-34.13679,19.19135-37.944,21.62857-53.41827S367.52691,700.74606,367.52691,700.74606Z" transform="translate(-212.66506 -26.51128)" opacity="0.1"/><path d="M337.448,541.69991,357.02925,639.606s-6.52707,48.30036,1.30542,78.3249l7.83249,28.71913h26.10829V640.91144s1.30542-86.15738-2.61083-92.68446S337.448,541.69991,337.448,541.69991Z" transform="translate(-212.66506 -26.51128)" fill="#ffb8b8"/><path d="M397.49711,736.20673l-36.55161,2.61083,9.1379,36.55161s-9.1379,19.58123-5.22166,31.33,0,31.33,0,31.33h7.83249s13.05415,37.857,36.55162,31.33,3.91624-33.94079,3.91624-33.94079-13.05415-40.46786-13.05415-56.13284S397.49711,736.20673,397.49711,736.20673Z" transform="translate(-212.66506 -26.51128)" fill="#2f2e41"/><circle cx="193.96995" cy="222.77569" r="35.2462" fill="#ffb8b8"/><path d="M382.48484,262.99383s2.61083,44.38411-5.22166,46.99494,40.46786,0,40.46786,0-6.52707-27.41372,0-35.24621S382.48484,262.99383,382.48484,262.99383Z" transform="translate(-212.66506 -26.51128)" fill="#ffb8b8"/><path d="M418.38375,302.809s-33.94079-2.61083-40.46786,0S353.113,318.474,353.113,318.474l9.1379,82.24114,74.40865,15.665,11.74873-16.97039L460.157,374.6068l-5.22166-31.33L453.63,325.001Z" transform="translate(-212.66506 -26.51128)" fill="#d0cde1"/><path d="M346.58593,323.69562s-16.97039,3.91625-18.27581,16.9704-1.30541,45.68952,0,50.91118,0,7.83249-1.30541,9.1379-3.91625-1.30541-1.30542,2.61083,2.61083,3.91624,1.30542,7.83249-5.22166-1.30542-2.61083,5.22166,3.91624,7.83249,2.61083,9.1379-5.22166,31.33-5.22166,31.33l22.192,3.91624,22.19206-77.01947Z" transform="translate(-212.66506 -26.51128)" fill="#d0cde1"/><path d="M448.40829,323.69562a13.91205,13.91205,0,0,1,11.74874,7.83249c3.91624,7.83249,14.35956,58.74367,13.05415,62.65992s-3.91625-1.30542-1.30542,6.52707,0,6.52707,1.30542,11.74873-5.22166,0,0,5.22166,7.83249,6.52708,5.22166,9.13791-6.52708-2.61083-2.61083,2.61083,3.91624,13.05415,3.91624,13.05415l-31.33,6.52707-9.1379-73.10323Z" transform="translate(-212.66506 -26.51128)" fill="#d0cde1"/><path d="M342.49943,321.61987l6.413-3.20648a5.48954,5.48954,0,0,1,7.38649,2.49843l29.4495,60.22206,32.63537,20.88663,23.49747-10.44331s16.97039-26.1083,11.74873-39.16245c-3.54032-8.85081-7.68776-22.46856-9.9916-30.32056a2.34476,2.34476,0,0,1,3.55545-2.60566l4.44945,2.9663a6.509,6.509,0,0,1,2.7636,4.09778l9.66642,46.74878L451.01912,400.7151v26.1083L460.157,567.80821s-33.94079-5.22166-67.88158-11.74874S315.256,544.31074,315.256,544.31074,337.448,429.43423,355.72384,409.853c0,0,0-14.35956,2.61083-15.665s5.22166-10.44332,5.22166-10.44332l-23.64581-55.04823A5.48955,5.48955,0,0,1,342.49943,321.61987Z" transform="translate(-212.66506 -26.51128)" fill="#2f2e41"/><polygon points="228.888 190.932 198.98 175.266 157.678 181.675 149.133 219.416 170.404 218.598 176.347 204.732 176.347 218.37 186.162 217.992 191.859 195.917 195.419 219.416 230.313 218.704 228.888 190.932" fill="#2f2e41"/><ellipse cx="158.07105" cy="222.77569" rx="3.91624" ry="6.85343" fill="#ffb8b8"/><polygon points="500.201 436.878 471.748 436.878 471.748 408.425 470.654 408.425 470.654 436.878 442.201 436.878 442.201 437.973 470.654 437.973 470.654 466.425 471.748 466.425 471.748 437.973 500.201 437.973 500.201 436.878" fill="#2f2e41"/><rect x="296.3441" y="557.39848" width="115.46684" height="2.2549" fill="#f2f2f2"/><rect x="296.3441" y="588.09179" width="115.46684" height="2.2549" fill="#f2f2f2"/><rect x="296.3441" y="618.78511" width="115.46684" height="2.2549" fill="#f2f2f2"/></svg>