<svg width="603" height="355" viewBox="0 0 603 355" fill="none" xmlns="http://www.w3.org/2000/svg">
<path d="M17.7388 94.703L12.097 72.9234L33.7911 78.9303L17.7388 94.703Z" stroke="#008DC8" stroke-width="2"/>
<path d="M398.674 21.6155L416.381 17.4955L411.097 34.8843L398.674 21.6155Z" stroke="#008DC8" stroke-width="2"/>
<path d="M582.608 166.722L592.871 157.424L595.794 170.958L582.608 166.722Z" stroke="#008DC8" stroke-width="2"/>
<path d="M470.712 320.695L471.716 298.217L490.687 310.324L470.712 320.695Z" stroke="#008DC8" stroke-width="2"/>
<path d="M189.693 342.187L181.887 351.455L177.761 340.063L189.693 342.187Z" stroke="#008DC8" stroke-width="2"/>
<path d="M73.9446 295.322C73.9446 301.392 69.0219 306.314 62.9484 306.314C56.8749 306.314 51.9521 301.392 51.9521 295.322C51.9521 289.251 56.8749 284.33 62.9484 284.33C69.0219 284.33 73.9446 289.251 73.9446 295.322Z" stroke="#008DC8" stroke-width="3"/>
<path d="M272.885 12.492C272.885 18.5623 267.962 23.484 261.889 23.484C255.815 23.484 250.893 18.5623 250.893 12.492C250.893 6.42177 255.815 1.5 261.889 1.5C267.962 1.5 272.885 6.42177 272.885 12.492Z" stroke="#008DC8" stroke-width="3"/>
<path d="M132.927 15.9898C132.927 18.4725 130.914 20.486 128.429 20.486C125.944 20.486 123.931 18.4725 123.931 15.9898C123.931 13.5071 125.944 11.4936 128.429 11.4936C130.914 11.4936 132.927 13.5071 132.927 15.9898Z" stroke="#008DC8" stroke-width="3"/>
<path d="M359.859 339.795C359.859 344.485 356.055 348.288 351.362 348.288C346.669 348.288 342.865 344.485 342.865 339.795C342.865 335.104 346.669 331.301 351.362 331.301C356.055 331.301 359.859 335.104 359.859 339.795Z" stroke="#008DC8" stroke-width="3"/>
<path d="M563.798 58.9638C563.798 66.4138 557.756 72.4542 550.302 72.4542C542.848 72.4542 536.807 66.4138 536.807 58.9638C536.807 51.5137 542.848 45.4733 550.302 45.4733C557.756 45.4733 563.798 51.5137 563.798 58.9638Z" stroke="#008DC8" stroke-width="3"/>
<g clip-path="url(#clip0)">
<path opacity="0.1" d="M497.85 199.174C497.858 206.241 497.001 213.283 495.3 220.143C494.728 222.454 494.063 224.717 493.305 226.933C492.378 229.667 491.304 232.35 490.088 234.969C489.474 236.294 488.826 237.592 488.143 238.864C488.154 246.111 486.66 253.282 483.753 259.923C478.499 271.838 469.131 281.472 457.355 287.069C449.993 290.575 441.946 292.419 433.789 292.47H153.633C141.168 292.496 128.919 289.228 118.13 282.997L117.964 282.904C116.428 282.006 114.929 281.055 113.47 280.052C110.185 277.788 107.1 275.249 104.246 272.463C100.383 268.695 96.9797 264.486 94.1058 259.923C87.3558 249.225 83.78 236.839 83.7925 224.197C76.9567 212.225 72.9707 197.885 72.9707 182.476C72.9707 163.034 79.3051 145.299 89.7121 131.873C91.8817 129.068 94.2583 126.429 96.822 123.978C99.3516 121.552 102.07 119.331 104.953 117.335C107.259 115.737 109.669 114.293 112.167 113.015C113.21 112.485 114.256 111.985 115.32 111.521C116.254 111.106 117.2 110.721 118.155 110.358C119.303 109.923 120.464 109.524 121.64 109.159C122.816 108.794 123.976 108.475 125.121 108.201C126.805 107.791 128.517 107.457 130.258 107.2C131.701 106.988 133.144 106.84 134.587 106.728C135.734 106.642 136.892 106.595 138.057 106.581H138.688C139.972 106.581 141.249 106.631 142.515 106.718C142.649 106.451 142.793 106.181 142.927 105.918C143.432 104.957 143.955 103.999 144.481 103.063C144.48 103.055 144.48 103.047 144.481 103.038C144.572 102.873 144.662 102.711 144.756 102.552C145.181 101.785 145.625 101.026 146.079 100.273C146.289 99.9131 146.494 99.5746 146.707 99.2362C146.752 99.1521 146.801 99.0704 146.855 98.9914C147.071 98.6313 147.291 98.2713 147.515 97.9113C148.629 96.1351 149.786 94.3902 150.989 92.6764L151.296 92.2372C151.483 91.9707 151.656 91.7115 151.865 91.4451C152.363 90.7502 152.876 90.0518 153.391 89.3677C153.752 88.878 154.113 88.392 154.502 87.9276C155.44 86.7274 156.402 85.5273 157.388 84.3272C158.374 83.1271 159.399 81.9426 160.462 80.7737C160.606 80.6117 160.75 80.4533 160.902 80.2949L162.442 78.6171C162.518 78.5379 162.583 78.4659 162.655 78.3939C162.839 78.1959 163.016 77.9978 163.214 77.807C164.04 76.9321 164.888 76.0753 165.739 75.222C170.072 70.9151 174.687 66.9014 179.555 63.2077C179.746 63.0565 179.941 62.9124 180.132 62.7684C181.048 62.0808 181.979 61.4003 182.91 60.7306C188.029 57.0653 193.38 53.7341 198.93 50.7577C199.312 50.5381 199.702 50.3329 200.095 50.1313C205.07 47.5041 210.187 45.1531 215.422 43.089C218.275 41.9621 221.194 40.9036 224.13 39.9351C226.085 39.2943 228.048 38.6858 230.035 38.1133C233.142 37.2205 236.271 36.42 239.421 35.7119C248.703 33.6334 258.145 32.3494 267.645 31.874C270.531 31.7276 273.449 31.652 276.4 31.6471C290.638 31.6283 304.82 33.4189 318.605 36.9756C318.747 37.1906 318.942 37.3659 319.171 37.4849C319.4 37.6039 319.656 37.6629 319.914 37.6561H321.126C321.653 37.8001 322.176 37.9441 322.703 38.0953C325.644 38.9402 328.543 39.8631 331.4 40.864L332.121 41.1232C339.173 43.6258 346.033 46.6339 352.65 50.1241C358.615 53.2627 364.358 56.804 369.839 60.7234C370.683 61.3283 371.515 61.938 372.335 62.5524C373.331 61.9164 374.343 61.3067 375.372 60.7234C379.347 58.464 383.569 56.6677 387.955 55.3697C397.124 52.6616 406.825 52.2829 416.178 54.268C428.172 56.8063 439.03 63.1069 447.799 72.0681C451.37 75.7346 454.548 79.7623 457.283 84.086C457.481 84.3956 457.68 84.7089 457.871 85.0257C460.221 88.8525 462.241 92.8717 463.91 97.04C463.971 97.1948 464.032 97.3388 464.086 97.4901C465.626 101.393 466.868 105.407 467.802 109.497C467.845 109.706 467.896 109.911 467.939 110.12C468.812 114.078 469.405 118.093 469.714 122.134C469.714 122.278 469.714 122.426 469.743 122.577C469.894 124.668 469.971 126.78 469.973 128.914C469.973 130.822 469.908 132.716 469.789 134.595C469.789 134.8 469.761 135.013 469.743 135.225C469.71 135.769 469.663 136.305 469.616 136.852C472.371 139.07 474.95 141.498 477.329 144.114C478.38 145.259 479.397 146.447 480.38 147.679C483.376 151.426 486.009 155.449 488.244 159.693C494.344 171.185 497.85 184.705 497.85 199.174Z" fill="#008DC8"/>
<path opacity="0.1" d="M457.088 285.737C457.088 288.196 448.6 290.5 433.789 292.481H153.633C141.168 292.507 128.919 289.239 118.13 283.008L117.964 282.914C122.221 281.366 129.904 279.923 140.362 278.619L140.831 278.562C145.52 277.989 150.762 277.446 156.49 276.931C156.634 276.931 156.782 276.909 156.927 276.891C161.472 276.488 166.307 276.11 171.431 275.757C171.594 275.757 171.752 275.728 171.915 275.721C173.892 275.579 175.909 275.445 177.968 275.318L178.761 275.267C193.75 274.338 210.787 273.597 229.263 273.107H229.285C231.873 273.035 234.488 272.971 237.131 272.916C240.07 272.847 243.044 272.785 246.055 272.733C248.353 272.682 250.68 272.646 253.014 272.61H253.068C263.597 272.452 274.477 272.373 285.602 272.373C313.111 272.373 339.112 272.873 362.152 273.773H362.217C365.759 273.91 369.237 274.061 372.627 274.216L375.513 274.353C379.339 274.535 383.067 274.731 386.696 274.94C429.37 277.363 457.088 281.298 457.088 285.737Z" fill="#008DC8"/>
<g opacity="0.2">
<path opacity="0.2" d="M318.374 270.72C318.362 271.108 318.318 271.495 318.24 271.876C315.73 271.477 313.205 271.117 310.665 270.796C310.665 270.695 310.665 270.591 310.665 270.486C310.689 269.407 311 268.353 311.567 267.433C312.31 266.259 313.439 265.525 314.684 265.564C315.928 265.604 317.007 266.407 317.674 267.62C318.179 268.573 318.42 269.643 318.374 270.72Z" fill="#3F3D56"/>
<path opacity="0.2" d="M318.581 264.568C318.67 261.783 317.014 259.472 314.883 259.405C312.753 259.337 310.954 261.54 310.866 264.324C310.778 267.109 312.433 269.42 314.564 269.488C316.695 269.555 318.493 267.352 318.581 264.568Z" fill="#3F3D56"/>
<path opacity="0.2" d="M318.778 258.404C318.866 255.619 317.211 253.308 315.08 253.241C312.949 253.173 311.151 255.376 311.062 258.16C310.974 260.945 312.63 263.256 314.761 263.324C316.891 263.391 318.69 261.188 318.778 258.404Z" fill="#3F3D56"/>
<path opacity="0.2" d="M318.971 252.24C319.06 249.456 317.404 247.144 315.273 247.077C313.143 247.009 311.344 249.212 311.256 251.997C311.168 254.781 312.823 257.093 314.954 257.16C317.085 257.227 318.883 255.024 318.971 252.24Z" fill="#3F3D56"/>
<path opacity="0.2" d="M319.165 246.076C319.253 243.292 317.597 240.98 315.467 240.913C313.336 240.846 311.537 243.048 311.449 245.833C311.361 248.617 313.017 250.929 315.147 250.996C317.278 251.063 319.077 248.86 319.165 246.076Z" fill="#3F3D56"/>
<path opacity="0.2" d="M302.177 203.307C301.669 202.621 301.211 201.899 300.807 201.147L311.001 199.804L300.028 199.541C299.048 197.223 298.553 194.73 298.572 192.214C298.592 189.698 299.125 187.213 300.139 184.91L314.612 192.992L301.355 182.609C302.692 180.45 304.461 178.59 306.551 177.144C308.641 175.698 311.008 174.698 313.503 174.206C315.997 173.714 318.567 173.741 321.051 174.284C323.535 174.828 325.88 175.877 327.939 177.366C329.999 178.855 331.729 180.751 333.021 182.937C334.313 185.123 335.14 187.552 335.449 190.071C335.759 192.59 335.545 195.146 334.82 197.579C334.095 200.012 332.876 202.27 331.238 204.211C332.028 205.279 332.699 206.429 333.24 207.642L319.86 214.051L334.048 209.792C334.941 212.734 335.085 215.852 334.467 218.864C333.848 221.876 332.487 224.687 330.505 227.041C332.565 229.83 333.797 233.142 334.06 236.597C334.323 240.052 333.606 243.511 331.992 246.579C330.378 249.647 327.931 252.199 324.932 253.944C321.933 255.69 318.502 256.557 315.032 256.448C311.562 256.339 308.193 255.257 305.31 253.327C302.426 251.396 300.146 248.695 298.728 245.532C297.311 242.369 296.814 238.872 297.295 235.44C297.775 232.008 299.213 228.781 301.445 226.126C298.984 222.793 297.718 218.731 297.848 214.592C297.979 210.454 299.5 206.479 302.167 203.307H302.177Z" fill="#008DC8"/>
<path opacity="0.1" d="M334.834 215.757C334.708 219.898 333.182 223.875 330.505 227.041C332.565 229.83 333.797 233.142 334.06 236.597C334.323 240.052 333.606 243.511 331.992 246.579C330.378 249.647 327.931 252.199 324.932 253.944C321.933 255.69 318.502 256.557 315.032 256.448C311.562 256.339 308.193 255.257 305.31 253.327C302.426 251.396 300.146 248.695 298.728 245.532C297.311 242.369 296.814 238.872 297.295 235.44C297.775 232.008 299.213 228.781 301.445 226.126C299.075 222.911 334.899 213.687 334.834 215.757Z" fill="black"/>
</g>
<g opacity="0.2">
<path opacity="0.2" d="M263.543 270.72C263.532 271.108 263.487 271.495 263.41 271.876C260.899 271.477 258.374 271.117 255.834 270.796C255.834 270.695 255.834 270.591 255.834 270.486C255.858 269.407 256.169 268.353 256.736 267.433C257.479 266.259 258.608 265.525 259.853 265.564C261.098 265.604 262.176 266.407 262.843 267.62C263.348 268.573 263.59 269.643 263.543 270.72Z" fill="#3F3D56"/>
<path opacity="0.2" d="M263.746 264.569C263.835 261.785 262.179 259.473 260.048 259.406C257.918 259.339 256.119 261.542 256.031 264.326C255.943 267.11 257.598 269.422 259.729 269.489C261.86 269.556 263.658 267.354 263.746 264.569Z" fill="#3F3D56"/>
<path opacity="0.2" d="M263.944 258.405C264.032 255.621 262.376 253.309 260.245 253.242C258.115 253.175 256.316 255.378 256.228 258.162C256.14 260.946 257.796 263.258 259.926 263.325C262.057 263.392 263.856 261.19 263.944 258.405Z" fill="#3F3D56"/>
<path opacity="0.2" d="M264.137 252.241C264.225 249.457 262.569 247.145 260.439 247.078C258.308 247.011 256.51 249.214 256.421 251.998C256.333 254.782 257.989 257.094 260.12 257.161C262.25 257.228 264.049 255.026 264.137 252.241Z" fill="#3F3D56"/>
<path opacity="0.2" d="M264.33 246.077C264.418 243.293 262.762 240.981 260.632 240.914C258.501 240.847 256.702 243.05 256.614 245.834C256.526 248.618 258.182 250.93 260.312 250.997C262.443 251.065 264.242 248.862 264.33 246.077Z" fill="#3F3D56"/>
<path opacity="0.2" d="M247.347 203.307C246.839 202.621 246.381 201.899 245.976 201.147L256.17 199.804L245.197 199.541C244.218 197.223 243.723 194.73 243.742 192.214C243.761 189.698 244.294 187.213 245.309 184.91L259.781 192.992L246.524 182.609C247.862 180.45 249.631 178.59 251.721 177.144C253.811 175.698 256.177 174.698 258.672 174.206C261.167 173.714 263.736 173.741 266.22 174.284C268.704 174.828 271.049 175.877 273.109 177.366C275.169 178.855 276.898 180.751 278.191 182.937C279.483 185.123 280.309 187.552 280.619 190.071C280.928 192.59 280.714 195.146 279.989 197.579C279.265 200.012 278.045 202.27 276.407 204.211C277.197 205.279 277.869 206.429 278.409 207.642L265.03 214.051L279.217 209.792C280.111 212.734 280.255 215.852 279.636 218.864C279.018 221.876 277.656 224.687 275.675 227.041C277.735 229.83 278.966 233.142 279.229 236.597C279.492 240.052 278.776 243.511 277.161 246.579C275.547 249.647 273.101 252.199 270.101 253.944C267.102 255.69 263.671 256.557 260.201 256.448C256.731 256.339 253.362 255.257 250.479 253.327C247.596 251.396 245.315 248.695 243.898 245.532C242.481 242.369 241.984 238.872 242.464 235.44C242.945 232.008 244.383 228.781 246.615 226.126C244.154 222.793 242.887 218.731 243.018 214.592C243.149 210.454 244.67 206.479 247.336 203.307H247.347Z" fill="#008DC8"/>
<path opacity="0.1" d="M280.004 215.757C279.877 219.898 278.352 223.875 275.675 227.041C277.735 229.83 278.966 233.142 279.229 236.597C279.492 240.052 278.776 243.511 277.161 246.579C275.547 249.647 273.101 252.199 270.101 253.944C267.102 255.69 263.671 256.557 260.201 256.448C256.731 256.339 253.362 255.257 250.479 253.327C247.596 251.396 245.315 248.695 243.898 245.532C242.481 242.369 241.984 238.872 242.464 235.44C242.945 232.008 244.383 228.781 246.615 226.126C244.245 222.911 280.069 213.687 280.004 215.757Z" fill="black"/>
</g>
<g opacity="0.2">
<path opacity="0.2" d="M413.317 274.659C413.29 275.395 413.202 276.127 413.054 276.848C408.22 276.077 403.352 275.389 398.448 274.781C398.448 274.587 398.448 274.389 398.448 274.187C398.494 272.108 399.094 270.079 400.187 268.308C401.63 266.05 403.794 264.636 406.186 264.708C408.577 264.78 410.659 266.331 411.958 268.668C412.937 270.509 413.406 272.577 413.317 274.659Z" fill="#3F3D56"/>
<path opacity="0.2" d="M413.71 262.805C413.88 257.443 410.691 252.992 406.587 252.862C402.483 252.733 399.018 256.975 398.848 262.337C398.679 267.699 401.868 272.15 405.972 272.28C410.076 272.409 413.54 268.167 413.71 262.805Z" fill="#3F3D56"/>
<path opacity="0.2" d="M414.085 250.938C414.255 245.576 411.065 241.125 406.961 240.995C402.857 240.866 399.393 245.108 399.223 250.47C399.053 255.832 402.242 260.283 406.346 260.413C410.45 260.542 413.915 256.3 414.085 250.938Z" fill="#3F3D56"/>
<path opacity="0.2" d="M414.463 239.072C414.633 233.71 411.444 229.258 407.34 229.128C403.236 228.999 399.771 233.241 399.601 238.603C399.432 243.965 402.621 248.417 406.725 248.546C410.829 248.676 414.293 244.434 414.463 239.072Z" fill="#3F3D56"/>
<path opacity="0.2" d="M414.416 226.665C414.577 221.3 411.379 216.851 407.273 216.728C403.167 216.606 399.708 220.855 399.546 226.22C399.385 231.584 402.583 236.033 406.689 236.156C410.795 236.279 414.254 232.03 414.416 226.665Z" fill="#3F3D56"/>
<path opacity="0.2" d="M382.133 144.881C381.159 143.56 380.278 142.173 379.496 140.73L399.119 138.145L377.999 137.637C376.112 133.175 375.158 128.375 375.194 123.531C375.23 118.688 376.255 113.903 378.208 109.468L406.074 125.025L380.556 105.036C383.136 100.89 386.545 97.3189 390.568 94.545C394.592 91.771 399.145 89.854 403.943 88.9132C408.742 87.9724 413.683 88.0281 418.459 89.0769C423.235 90.1256 427.743 92.1449 431.703 95.0088C435.663 97.8728 438.989 101.52 441.475 105.723C443.961 109.927 445.552 114.596 446.151 119.44C446.749 124.284 446.341 129.199 444.953 133.879C443.565 138.559 441.226 142.904 438.081 146.642C439.601 148.699 440.894 150.914 441.938 153.248L416.178 165.594L443.489 157.385C445.21 163.043 445.49 169.04 444.304 174.833C443.118 180.626 440.503 186.032 436.696 190.562C440.661 195.932 443.032 202.307 443.537 208.958C444.043 215.61 442.663 222.269 439.555 228.174C436.447 234.079 431.737 238.993 425.964 242.352C420.19 245.712 413.586 247.382 406.906 247.172C400.226 246.962 393.74 244.879 388.19 241.164C382.64 237.448 378.249 232.248 375.521 226.159C372.792 220.07 371.835 213.337 372.759 206.731C373.684 200.125 376.452 193.912 380.747 188.802C376.013 182.385 373.575 174.566 373.826 166.6C374.078 158.635 377.003 150.985 382.133 144.878V144.881Z" fill="#008DC8"/>
<path opacity="0.1" d="M445.007 168.845C444.771 176.812 441.847 184.467 436.71 190.569C440.675 195.939 443.046 202.314 443.551 208.966C444.057 215.617 442.677 222.276 439.569 228.181C436.461 234.086 431.752 239 425.978 242.359C420.204 245.719 413.6 247.389 406.92 247.179C400.24 246.969 393.754 244.887 388.204 241.171C382.654 237.455 378.264 232.255 375.535 226.166C372.806 220.077 371.849 213.345 372.773 206.738C373.698 200.132 376.466 193.919 380.762 188.809C376.166 182.613 445.133 164.859 445.007 168.845Z" fill="black"/>
</g>
<path d="M129.908 275.293L133.692 275.282H139.027L145.773 165.911L212.576 54.6497L209.672 51.539V43.6615L137.426 163.333L129.908 275.293Z" fill="#F1C0C0"/>
<path opacity="0.1" d="M134.096 275.282H139.027L145.773 165.911L212.576 54.6497L209.672 51.539L140.766 164.244L134.096 275.282Z" fill="black"/>
<path d="M118.758 276.203L291.853 289.424L292.001 289.435L459.519 279.152L459.646 279.145V272.085L275.061 268.704L121.063 268.556H119.937L119.815 269.348L118.758 276.203Z" fill="#F1C0C0"/>
<path opacity="0.1" d="M118.758 276.203L291.853 289.424L292.001 289.435L459.519 279.152L459.646 279.015V272.232H459.498L291.853 277.82L121.063 268.556H121.038L120.735 268.754L119.815 269.348L118.758 276.203Z" fill="black"/>
<path opacity="0.1" d="M118.758 276.203L291.853 289.424V277.82L120.735 268.754L119.815 269.348L118.758 276.203Z" fill="black"/>
<path d="M209.651 51.3914L285.963 133.141L283.604 276.938L290.086 277.719L290.194 277.734H296.676L297.452 139.315L440.347 186.955L442.757 271.779L447.973 272.362L449.74 272.56L445.65 181.072L296.272 128.73L214.366 43.7443H209.651V51.3914Z" fill="#F1C0C0"/>
<path opacity="0.1" d="M296.864 136.669L297.452 139.315L440.347 186.955L442.757 271.779L447.973 272.362L443.882 185.191L296.864 136.669Z" fill="black"/>
<path opacity="0.1" d="M209.651 51.3914L285.963 133.141L283.604 276.938L290.086 277.719L291.854 128.435L209.651 43.7443V51.3914Z" fill="black"/>
<path d="M297.142 194.379L349.552 204.679L349.57 204.683L441.364 222.731L445.567 221.05L445.552 220.755L445.278 214.904L297.196 185.039L297.142 194.379Z" fill="#F1C0C0"/>
<path opacity="0.1" d="M349.57 204.683L441.364 222.731L445.567 221.05L445.552 220.755L349.57 204.683Z" fill="black"/>
<path d="M353.08 157.86L354.497 235.75L355.23 275.71L361.683 275.494L365.745 275.357L364.482 158.987L361.683 158.058L361.07 157.86H353.08Z" fill="#F1C0C0"/>
<path opacity="0.1" d="M353.137 157.842V157.86L354.497 235.75L355.229 275.71L361.683 275.494V157.842H353.137Z" fill="black"/>
<path d="M251.993 177.752C252.371 177.958 252.733 178.192 253.075 178.454C253.479 178.807 253.842 179.205 254.157 179.639C255.705 181.637 257.133 183.959 256.982 186.479C256.985 186.846 256.915 187.21 256.777 187.55C256.639 187.89 256.435 188.199 256.177 188.46C255.539 189.003 254.622 189.029 253.786 189.029C252.877 189.029 251.921 189.029 251.134 188.56C250.348 188.092 249.691 187.182 248.761 187.203C248.629 187.225 248.495 187.225 248.364 187.203C248.043 187.099 247.978 186.677 247.769 186.411C247.408 185.932 246.647 186.051 246.08 186.26C245.514 186.469 244.886 186.782 244.327 186.541C244.003 186.37 243.737 186.105 243.566 185.781C242.228 183.621 241.943 181.025 241.69 178.516C241.535 176.989 240.352 171.783 243.617 172.967C245.06 173.486 246.409 174.523 247.722 175.282L251.993 177.752Z" fill="#3F3D56"/>
<path d="M248.768 178.267C249.06 178.476 249.413 178.582 249.772 178.568C250.131 178.554 250.474 178.42 250.748 178.188C251.285 177.703 251.628 177.041 251.711 176.323C252.072 176.211 252.256 176.683 252.487 176.971C252.891 177.461 253.714 177.453 254.081 177.975C254.338 178.336 254.28 178.836 254.46 179.243C254.695 179.768 255.275 180.042 255.672 180.467C256.047 180.931 256.318 181.47 256.466 182.047L257.057 183.819C257.341 184.555 257.523 185.327 257.599 186.112C257.636 186.505 257.594 186.901 257.477 187.277C257.359 187.654 257.168 188.003 256.913 188.305C256.12 189.158 254.817 189.248 253.667 189.223C253.282 189.231 252.899 189.186 252.527 189.09C251.506 188.773 250.853 187.747 250.582 186.714C250.312 185.68 250.341 184.597 250.182 183.538C250.011 182.498 249.708 181.484 249.28 180.521C248.963 179.772 248.09 178.656 248.104 177.86C248.364 177.86 248.551 178.098 248.768 178.267Z" fill="#3F3D56"/>
<path d="M250.063 174.62C249.894 174.109 249.796 173.577 249.771 173.039C249.771 171.959 250.265 170.944 250.763 169.979L246.639 170.537C246.142 170.606 245.586 170.706 245.305 171.12C245.198 171.326 245.142 171.553 245.142 171.785C245.142 172.016 245.198 172.244 245.305 172.449C245.511 172.86 245.676 173.29 245.795 173.734C245.805 174.123 245.849 174.51 245.929 174.89C246.057 175.169 246.237 175.422 246.459 175.635C247.639 176.939 248.522 178.476 249.403 179.999C249.377 179.956 251.888 178.015 251.787 177.381C251.729 177.021 251.004 176.589 250.773 176.244C250.454 175.742 250.215 175.194 250.063 174.62Z" fill="#BE6F72"/>
<path d="M285.415 160.553V164.1L224.571 175.945L221.414 177.853H210.524V175.855L270.304 161.439L285.415 160.553Z" fill="#F1C0C0"/>
<path opacity="0.1" d="M285.415 164.1L224.571 175.945L221.414 177.853H210.524L270.747 164.989L285.415 164.1Z" fill="black"/>
<path d="M236.564 261.226C235.887 260.407 234.951 259.84 233.909 259.619C232.868 259.398 231.782 259.536 230.829 260.009C230.625 260.105 230.445 260.245 230.302 260.42C229.941 260.924 230.172 261.618 230.205 262.241C230.288 263.761 229.076 264.996 227.986 266.058C227.402 266.627 226.807 267.235 226.543 268.009C226.28 268.783 226.475 269.766 227.182 270.169C227.49 270.324 227.826 270.417 228.17 270.443C229.323 270.667 230.506 270.7 231.669 270.54C232.82 270.32 233.949 269.669 234.447 268.61C234.543 268.323 234.702 268.061 234.912 267.843C235.547 267.343 236.521 267.93 237.243 267.573C237.838 267.278 237.863 266.814 237.87 266.202C237.892 264.51 237.639 262.594 236.564 261.226Z" fill="#008DC8"/>
<path d="M245.222 261.161C245.666 262.328 245.727 263.599 245.785 264.844C245.817 265.564 245.839 266.335 245.449 266.943C245.06 267.552 244.298 267.872 243.57 268.023C242.066 268.333 240.323 268.041 239.353 266.85C238.61 265.939 238.455 264.69 238.592 263.509C238.707 262.54 238.952 261.406 238.256 260.718C238.076 260.535 237.841 260.405 237.675 260.207C237.315 259.768 237.372 259.105 237.567 258.565C237.821 258.049 238.011 257.504 238.134 256.942C238.162 256.675 243.018 257.129 243.465 257.348C244.075 257.647 243.981 258.148 244.165 258.753C244.421 259.595 244.912 260.355 245.222 261.161Z" fill="#008DC8"/>
<path d="M246.113 209.439C247.065 210.054 247.433 211.264 247.581 212.387C247.989 215.466 247.274 218.576 247.22 221.684C247.17 226.036 248.432 230.468 247.354 234.684C246.708 237.205 247.256 240.085 246.65 242.63C246.47 243.386 246.138 244.099 245.965 244.855C245.604 246.493 245.983 248.207 246.492 249.809C246.654 250.241 246.757 250.693 246.798 251.152C246.774 251.86 246.594 252.553 246.272 253.183L244.107 258.292C243.866 258.864 242.913 258.958 242.304 259.033C241.156 259.17 239.876 259.267 238.963 258.558C238.051 257.849 237.831 256.661 237.69 255.552C237.42 253.423 237.3 251.278 237.329 249.133C237.369 248.573 237.319 248.01 237.181 247.466C236.983 246.85 236.546 246.317 236.427 245.665C236.276 244.823 236.705 243.995 236.864 243.145C236.973 242.369 236.961 241.581 236.828 240.809C236.687 239.656 236.525 238.504 236.341 237.359C236.081 235.757 236.453 234.177 236.702 232.571C236.936 231.062 236.637 229.525 236.341 228.027C236.366 229.243 236.214 230.456 235.89 231.628C235.699 232.2 235.425 232.747 235.259 233.331C234.519 235.948 236.095 238.695 235.872 241.406C235.767 242.674 235.269 243.926 235.41 245.176C235.508 246.09 235.933 246.929 236.225 247.8C236.518 248.672 236.669 249.669 236.225 250.483C235.053 252.693 235.93 255.7 236.979 257.968C237.192 258.37 237.378 258.786 237.535 259.213C237.845 260.236 237.585 261.334 237.668 262.4C237.366 262.449 237.057 262.429 236.764 262.341C236.47 262.253 236.201 262.1 235.976 261.892C235.818 261.727 235.688 261.532 235.533 261.359C235.099 260.947 234.586 260.627 234.025 260.42C233.695 260.235 233.32 260.149 232.943 260.171C232.546 260.282 232.19 260.503 231.915 260.808C231.558 261.122 231.179 261.409 230.782 261.669C230.613 261.799 230.415 261.886 230.205 261.925C230.099 261.941 229.991 261.924 229.896 261.875C229.801 261.827 229.723 261.749 229.675 261.655C229.652 261.594 229.639 261.531 229.635 261.467C229.501 260.38 229.43 259.286 229.422 258.191C229.422 256.308 227.164 255.012 226.879 253.151C226.652 251.649 227.074 250.119 226.933 248.607C226.864 247.829 226.648 247.066 226.662 246.288C226.662 245.784 226.778 245.291 226.818 244.791C226.851 244.235 226.842 243.678 226.792 243.124L226.68 241.385C226.572 239.667 226.453 237.914 225.775 236.344C224.971 234.511 224.495 232.552 224.368 230.555C224.296 229.295 224.343 228.035 224.199 226.771C224.069 225.63 223.78 224.495 223.863 223.351C223.932 222.465 224.224 221.608 224.292 220.722C224.433 219.019 223.784 217.363 223.275 215.732C222.767 214.101 222.391 212.294 223.059 210.721C223.154 210.462 223.313 210.232 223.521 210.051C223.776 209.882 224.068 209.774 224.372 209.734C230.561 208.436 236.905 208.033 243.209 208.535C244.237 208.593 245.234 208.904 246.113 209.439Z" fill="#3F3D56"/>
<path d="M225.634 171.2C228.826 171.2 231.413 168.617 231.413 165.432C231.413 162.247 228.826 159.664 225.634 159.664C222.443 159.664 219.855 162.247 219.855 165.432C219.855 168.617 222.443 171.2 225.634 171.2Z" fill="#BE6F72"/>
<path d="M224.516 172.636C224.599 172.966 224.599 173.311 224.516 173.641C224.425 173.871 224.297 174.085 224.137 174.274C223.578 174.995 222.959 175.667 222.287 176.283C222.629 177.047 223.245 177.654 224.015 177.986C224.778 178.311 225.579 178.539 226.399 178.667C226.808 178.774 227.234 178.803 227.654 178.753C228.041 178.656 228.408 178.49 228.736 178.264L231.947 176.345C232.431 176.083 232.88 175.76 233.282 175.383C233.87 174.779 234.204 173.972 234.212 173.129C234.227 172.979 234.186 172.827 234.097 172.705C233.974 172.598 233.819 172.533 233.657 172.521C232.528 172.273 231.637 171.358 231.132 170.321C230.675 169.258 230.38 168.133 230.255 166.984L226.832 168.784C226.323 169.054 225.818 169.324 225.291 169.558C224.956 169.709 224.278 169.835 224.04 170.141C223.585 170.706 224.397 171.956 224.516 172.636Z" fill="#BE6F72"/>
<path d="M222.309 175.236C221.821 175.634 221.441 176.148 221.201 176.73C220.977 177.45 221.201 178.21 221.403 178.922C222.35 181.961 223.073 185.064 223.567 188.208C223.87 190.368 223.982 192.56 224.13 194.746C224.433 199.203 224.873 206.31 225.461 210.739C227.626 210.836 229.736 210.206 231.882 209.975C235.894 209.55 240.024 210.523 243.952 209.615C243 205.86 242.048 199.448 241.095 195.696C240.674 194.218 240.382 192.706 240.222 191.178C240.139 190.08 240.19 188.978 240.204 187.873C240.237 185.713 240.118 183.552 239.999 181.392C239.862 178.872 239.724 176.352 239.126 173.886C239.084 173.571 238.936 173.281 238.707 173.061C238.346 172.798 237.878 172.892 237.448 172.949C236.134 173.116 234.804 172.801 233.704 172.064C233.228 171.74 232.589 171.344 232.146 171.704C231.956 171.921 231.831 172.186 231.785 172.471C231.589 172.98 231.286 173.442 230.896 173.825C230.507 174.208 230.04 174.503 229.527 174.692C228.499 175.064 227.422 175.284 226.331 175.347C225.997 175.419 225.648 175.38 225.339 175.236C224.826 174.922 224.79 173.796 224.145 173.72C223.578 173.655 222.691 174.872 222.309 175.236Z" fill="#3F3D56"/>
<path d="M230.843 184.028C229.512 182.757 228.928 180.913 227.958 179.347C227.297 178.294 226.453 177.367 225.465 176.611C224.968 176.284 224.513 175.898 224.109 175.462C223.766 175.041 223.506 174.48 222.987 174.318C222.772 174.271 222.549 174.277 222.338 174.335C222.126 174.394 221.931 174.502 221.771 174.652C221.453 174.955 221.152 175.275 220.869 175.61C219.34 177.191 216.652 177.41 215.44 179.239C215.113 179.627 214.891 180.092 214.795 180.589C214.446 183.251 215.135 185.945 216.721 188.114C217.028 188.617 217.499 188.998 218.056 189.194C217.98 189.865 218.069 190.545 218.315 191.174C218.983 193.453 219.804 195.684 220.772 197.853C220.54 198.701 220.379 199.567 220.289 200.442C220.036 202.641 220.271 204.874 220.032 207.077C219.838 208.877 219.311 210.631 219.293 212.434C219.293 212.722 219.318 213.064 219.567 213.212C219.7 213.28 219.848 213.311 219.996 213.302L224.433 213.435C227.009 213.511 229.61 213.586 232.146 213.111C232.483 213.061 232.811 212.958 233.116 212.805C233.975 212.326 234.26 211.246 234.397 210.285C234.576 209.038 234.647 207.778 234.609 206.519C235.147 208.215 235.785 209.968 237.409 210.703C238.267 211.091 239.248 211.063 240.19 211.037C242.219 210.947 244.241 210.739 246.247 210.414C246.37 210.43 246.496 210.416 246.613 210.374C246.73 210.332 246.836 210.264 246.922 210.174C247.008 210.084 247.071 209.975 247.108 209.856C247.144 209.737 247.152 209.612 247.13 209.489L247.152 207.523C247.195 203.531 246.203 199.714 245.817 195.74C245.695 194.487 245.705 193.219 245.399 191.992C245.273 191.477 245.089 190.973 244.977 190.454C244.881 189.947 244.82 189.433 244.796 188.917L244.515 184.957C244.382 183.124 244.19 181.356 244.05 179.527C243.972 177.746 243.714 175.978 243.278 174.249C242.964 173.169 242.311 171.945 241.182 171.812C240.58 171.743 239.995 172.006 239.422 172.19C238.012 172.633 236.499 172.626 235.093 172.172C234.658 172.001 234.206 171.88 233.744 171.812C233.511 171.78 233.274 171.811 233.058 171.901C232.841 171.99 232.652 172.136 232.51 172.323C232.37 172.604 232.304 172.917 232.319 173.23C232.149 176.827 231.835 180.532 230.843 184.028Z" fill="#008DC8"/>
<path d="M225.039 184.136C223.376 182.386 221.67 180.604 219.527 179.491C218.683 179.052 217.724 178.721 216.789 178.886C215.855 179.052 214.986 179.862 215.029 180.809C215.058 181.396 215.415 181.914 215.527 182.49C215.657 183.138 215.469 183.83 215.671 184.456C215.835 184.869 216.08 185.245 216.392 185.561L218.946 188.582C220.029 189.842 221.111 191.12 222.503 191.992C223.896 192.863 225.699 193.27 227.229 192.65C228.317 192.146 229.222 191.317 229.819 190.278C230.454 189.27 230.901 188.168 231.496 187.128C232.422 185.465 233.645 183.985 235.103 182.76C234.353 182.566 233.412 182.292 232.939 181.68C232.805 181.486 232.69 181.278 232.596 181.061L232.012 179.801C231.813 179.791 231.614 179.821 231.428 179.891C231.242 179.961 231.072 180.069 230.93 180.208C230.679 180.497 230.41 180.77 230.125 181.025C229.617 181.407 228.928 181.511 228.466 181.947C228.287 182.134 228.126 182.336 227.983 182.552C227.633 183.01 227.19 183.388 226.682 183.661C226.175 183.934 225.614 184.096 225.039 184.136Z" fill="#3F3D56"/>
<path d="M235.237 176.607C236.489 174.328 236.431 171.596 236.788 169.021C236.827 168.34 237.066 167.685 237.477 167.138C238.198 166.325 239.472 166.314 240.561 166.418C240.882 166.454 241.283 166.606 241.265 166.926C241.239 167.041 241.183 167.147 241.102 167.232C240.046 168.592 239.426 170.238 239.32 171.956C239.887 172.348 240.763 171.542 241.308 171.956C241.669 172.258 241.503 172.856 241.286 173.288C240.784 174.289 240.265 175.282 239.732 176.269C239.305 177.138 238.75 177.938 238.083 178.642C237.625 179.081 237.087 179.426 236.622 179.858C235.54 180.87 234.887 182.3 233.769 183.286C233.674 183.388 233.546 183.453 233.408 183.47C233.266 183.459 233.132 183.4 233.029 183.3C232.471 182.847 232.007 182.288 231.666 181.655C231.24 180.87 231.305 180.64 231.976 180.085C233.231 179.095 234.454 178.033 235.237 176.607Z" fill="#BE6F72"/>
<path d="M222.947 182.588C223.164 182.721 223.43 182.872 223.669 182.76C223.766 182.702 223.848 182.622 223.91 182.526C224.323 181.977 224.667 181.38 224.935 180.748C224.981 180.658 225.007 180.56 225.01 180.46C225.01 180.229 224.805 180.06 224.614 179.927C223.589 179.275 222.488 178.753 221.335 178.372C220.382 178.012 219.387 177.698 218.377 177.788C217.997 177.814 217.627 177.916 217.288 178.088C216.949 178.26 216.648 178.498 216.404 178.789C215.682 179.714 216.89 179.995 217.648 180.33C219.401 181.126 221.299 181.587 222.947 182.588Z" fill="#008DC8"/>
<path opacity="0.1" d="M221.811 188.708C221.799 188.79 221.806 188.874 221.832 188.953C221.859 189.032 221.903 189.103 221.962 189.162C222.067 188.65 221.93 188.11 222.038 187.596C222.197 186.822 222.951 186.238 223.016 185.461C221.634 185.191 221.822 187.873 221.811 188.708Z" fill="black"/>
<path opacity="0.2" d="M285.414 160.553V164.1L270.747 164.989L270.303 161.439L285.414 160.553Z" fill="black"/>
<path d="M220.433 166.289C221.349 165.544 220.819 163.981 221.439 162.98C221.8 162.433 222.41 162.145 223.009 161.9C223.731 161.563 224.506 161.348 225.299 161.266C225.697 161.228 226.098 161.28 226.472 161.418C226.847 161.555 227.186 161.776 227.464 162.062C227.698 162.328 227.857 162.652 228.077 162.93C228.349 163.253 228.704 163.497 229.105 163.635C229.505 163.773 229.935 163.801 230.349 163.715C230.829 163.607 231.327 163.243 231.295 162.753C231.24 162.455 231.088 162.184 230.862 161.983L229.83 160.842C228.658 159.545 227.355 158.17 225.635 157.846C224.437 157.619 223.211 157.94 222.056 158.325C221.591 158.48 221.068 158.71 220.938 159.182C220.851 159.506 220.981 159.859 220.906 160.186C220.758 160.838 219.921 161.058 219.531 161.605C219.142 162.152 219.261 162.8 219.149 163.405C219.037 164.01 218.712 164.6 218.673 165.227C218.647 165.605 218.839 166.307 219.264 166.444C219.69 166.58 220.17 165.839 220.433 166.289Z" fill="#3F3D56"/>
<path d="M230.944 162.235C230.64 160.651 229.985 159.155 229.025 157.857C228.172 156.644 226.986 155.704 225.609 155.149C224.921 154.881 224.181 154.772 223.444 154.83C222.708 154.888 221.994 155.111 221.356 155.484C220.41 156.158 219.673 157.086 219.232 158.159C218.297 160.168 217.951 162.624 219.037 164.553C219.47 164.028 220.213 164.265 220.869 164.075C221.692 163.841 222.388 163.293 223.171 162.951C225.533 161.911 228.419 162.753 230.944 162.235Z" fill="#FED253"/>
<path opacity="0.1" d="M219.589 162.123C219.506 161.475 219.452 160.723 219.914 160.262C219.937 160.234 219.966 160.211 219.999 160.196C220.032 160.181 220.068 160.174 220.105 160.175C220.137 160.186 220.167 160.203 220.192 160.225C220.218 160.247 220.238 160.275 220.253 160.305C220.519 160.725 220.746 161.168 220.931 161.63C220.662 161.568 220.381 161.588 220.124 161.688C219.866 161.787 219.645 161.962 219.488 162.188" fill="black"/>
<path opacity="0.1" d="M228.019 160.294L227.889 159.009C227.868 158.903 227.877 158.793 227.914 158.692C227.968 158.607 228.052 158.546 228.15 158.519C228.247 158.492 228.351 158.503 228.441 158.548C228.618 158.646 228.765 158.792 228.863 158.969C229.163 159.429 229.413 159.921 229.606 160.435C229.025 160.323 228.427 160.33 227.849 160.456" fill="black"/>
<path opacity="0.1" d="M231.247 212.46V215.397L228.762 215.563H215.689V212.46H231.247Z" fill="black"/>
<path d="M231.247 212.46V215.563H215.689L174.357 163.887V161.446H183.022L231.247 212.46Z" fill="#F1C0C0"/>
<path opacity="0.1" d="M231.247 212.46V215.563H215.689L174.357 163.887V161.446H183.022L231.247 212.46Z" fill="black"/>
<path opacity="0.1" d="M231.247 212.46V215.563H215.689L174.357 163.887V161.446L215.913 212.46H231.247Z" fill="black"/>
<path d="M179.775 264.254C179.803 264.4 179.799 264.55 179.766 264.695C179.732 264.839 179.669 264.976 179.58 265.095C179.492 265.214 179.379 265.314 179.25 265.388C179.121 265.462 178.978 265.508 178.83 265.525C177.828 265.863 176.763 266.198 176.053 266.965C175.342 267.732 175.201 269.154 176.053 269.777C176.488 270.039 176.988 270.175 177.496 270.169C179.13 270.281 180.832 270.259 182.315 269.568C183.376 269.078 184.375 268.243 185.54 268.319C186.142 268.355 186.784 268.636 187.322 268.362C187.859 268.088 188.011 267.325 188.014 266.688C188.028 265.357 187.827 264.034 187.419 262.767C187.365 262.594 185.071 262.461 184.797 262.407L182.016 262.047C181.489 261.978 180.353 261.582 179.938 262.022C179.523 262.461 179.775 263.732 179.775 264.254Z" fill="#008DC8"/>
<path d="M196.372 255.267C196.49 255.916 196.681 256.549 196.942 257.154C197.328 258.133 197.822 259.174 198.768 259.649C199.626 260.077 200.679 259.923 201.552 259.516C201.917 259.365 202.236 259.123 202.479 258.814C202.761 258.324 202.887 257.76 202.84 257.197C202.84 255.804 202.757 254.364 202.119 253.125C201.57 252.045 200.614 251.116 200.6 249.921L197.314 250.555C197.138 250.572 196.97 250.638 196.83 250.745C196.726 250.855 196.654 250.991 196.621 251.138C196.27 252.485 196.186 253.888 196.372 255.267Z" fill="#008DC8"/>
<path d="M157.128 221.064C156.991 222.224 157.049 223.466 157.655 224.467C158.261 225.467 159.538 226.13 160.642 225.73C160.699 225.716 160.752 225.69 160.798 225.655C160.845 225.62 160.883 225.576 160.913 225.525C160.942 225.403 160.925 225.275 160.866 225.165C160.378 223.867 160.418 222.43 160.977 221.161C161.05 220.996 161.205 220.801 161.374 220.866C161.445 220.902 161.502 220.96 161.537 221.032C161.711 221.333 161.799 221.677 161.789 222.026C161.738 222.341 161.728 222.662 161.76 222.98C161.829 223.289 162.161 223.581 162.449 223.448C162.533 223.397 162.605 223.329 162.661 223.249C162.718 223.169 162.757 223.079 162.777 222.983C163.582 220.661 163.218 218.123 162.85 215.693C162.853 215.637 162.843 215.581 162.823 215.529C162.802 215.477 162.77 215.431 162.729 215.393C162.688 215.354 162.639 215.326 162.586 215.309C162.532 215.291 162.476 215.286 162.42 215.293C160.718 215.124 159.787 214.717 158.813 216.297C157.976 217.63 157.128 219.462 157.128 221.064Z" fill="#008DC8"/>
<path d="M177.033 215.156C176.528 217.252 176.02 219.372 175.987 221.525C175.996 222.866 176.097 224.205 176.29 225.532L176.669 228.65C176.799 229.701 176.925 230.749 177.109 231.79C177.227 232.326 177.291 232.872 177.3 233.421C177.265 233.961 177.179 234.498 177.044 235.023C176.817 236.125 176.691 237.246 176.665 238.371C176.626 240.171 176.849 241.971 176.99 243.772C177.271 247.359 177.229 250.964 176.864 254.544C176.718 255.51 176.928 256.496 177.455 257.32C177.669 257.579 177.845 257.868 177.979 258.177C178.249 259.001 177.618 259.825 177.455 260.672C177.352 261.331 177.514 262.005 177.908 262.545C178.302 263.085 178.894 263.447 179.555 263.552C182.441 263.894 185.406 263.739 188.007 265.057C188.281 264.257 187.682 263.35 187.956 262.537C188.129 262.032 188.606 261.705 188.93 261.28C189.366 260.633 189.584 259.863 189.551 259.084C189.563 258.067 189.382 257.056 189.017 256.106C188.71 255.314 188.27 254.533 188.295 253.683C188.295 253.266 188.443 252.826 188.274 252.441C188.157 252.22 187.999 252.023 187.808 251.862C186.73 250.683 186.068 249.185 185.922 247.595C185.781 246.018 185.832 244.429 186.073 242.864C186.25 241.374 186.488 239.8 187.437 238.638C186.997 235.111 187.255 231.533 188.198 228.107C188.292 227.79 188.44 227.422 188.764 227.347C188.893 227.334 189.024 227.352 189.144 227.399C189.265 227.447 189.372 227.523 189.457 227.621C190.023 228.15 190.294 228.917 190.539 229.651C190.81 230.447 191.084 231.296 190.878 232.11C190.792 232.47 190.618 232.787 190.517 233.133C190.298 233.827 190.336 234.577 190.626 235.246C190.767 235.49 190.855 235.761 190.885 236.042C190.852 236.282 190.779 236.516 190.669 236.733C190.535 237.159 190.493 237.608 190.544 238.052C190.596 238.495 190.74 238.923 190.968 239.307C191.428 240.072 191.995 240.766 192.653 241.37C192.339 242.752 192.42 244.194 192.887 245.532C192.921 245.592 192.943 245.659 192.951 245.727C192.959 245.796 192.953 245.865 192.934 245.932C192.869 246.069 192.703 246.119 192.574 246.216C192.213 246.511 192.437 247.069 192.678 247.455C193.341 248.512 194.072 249.525 194.868 250.486C195.589 251.347 195.524 253.006 196.599 253.316C197.051 253.413 197.518 253.413 197.97 253.316C199.031 253.154 200.214 252.848 200.733 251.912C200.946 251.527 201.033 251.059 201.365 250.771C201.696 250.483 202.126 250.432 202.31 250.087C202.494 249.741 202.288 249.287 202.349 248.888C202.411 248.488 202.761 248.168 202.872 247.746C203.139 246.774 202.003 245.975 201.848 244.981C201.624 243.541 203.442 242.461 203.367 241.021C203.208 237.892 203.107 234.749 202.945 231.62C202.741 228.818 202.712 226.005 202.858 223.199C202.984 221.453 203.219 219.624 202.577 218C201.653 215.711 199.106 214.425 196.643 214.18C194.179 213.936 191.722 214.519 189.28 214.901C185.227 215.524 181.109 215.61 177.033 215.156Z" fill="#3F3D56"/>
<path d="M184.356 180.744C187.548 180.744 190.135 178.162 190.135 174.976C190.135 171.791 187.548 169.209 184.356 169.209C181.164 169.209 178.577 171.791 178.577 174.976C178.577 178.162 181.164 180.744 184.356 180.744Z" fill="#FBBEBE"/>
<path d="M182.004 181.821C181.808 182.277 181.478 182.663 181.057 182.929C180.637 183.194 180.146 183.326 179.649 183.308C179.439 184.172 179.941 185.043 180.514 185.723C181.705 187.107 183.244 188.148 184.973 188.74C186.701 189.331 188.557 189.452 190.348 189.09C191.045 188.965 191.706 188.69 192.285 188.283C193.065 187.633 193.589 186.727 193.764 185.727C193.93 184.734 193.977 183.725 193.905 182.721C193.925 182.522 193.868 182.324 193.746 182.166C193.602 182.055 193.423 181.996 193.241 182.001C192.022 181.893 190.748 181.846 189.677 181.248C188.605 180.651 187.844 179.3 188.36 178.192C188.277 178.364 186.171 178.447 185.893 178.483C185.023 178.606 184.154 178.742 183.288 178.901C182.872 178.924 182.461 179.001 182.065 179.131C181.542 179.401 181.737 179.268 181.86 179.758C182.044 180.507 182.314 181.043 182.004 181.821Z" fill="#FBBEBE"/>
<path d="M186.402 185.327C185.624 185.336 184.847 185.251 184.09 185.072C183.325 184.893 182.651 184.444 182.192 183.808C181.925 183.405 181.752 182.897 181.327 182.67C180.63 182.31 179.837 182.919 179.281 183.477C178.775 184.027 178.189 184.498 177.543 184.874C176.771 185.281 175.869 185.425 175.14 185.903C174.571 186.333 174.082 186.859 173.697 187.459L168.586 194.407C166.533 197.201 164.748 200.2 162.919 203.149C161.335 205.702 160.505 208.64 159.311 211.394C159.217 211.562 159.178 211.756 159.2 211.948C159.243 212.135 159.47 212.287 159.629 212.179C159.091 212.712 159.564 213.619 159.438 214.368C159.294 214.892 158.995 215.36 158.579 215.711C159.373 215.607 160.179 215.645 160.96 215.822C161.767 216.05 162.528 216.416 163.211 216.902C163.647 216.834 163.608 216.06 163.932 215.772C164.127 215.603 164.416 215.624 164.672 215.574C165.635 215.387 166.017 214.231 166.757 213.579C167.374 213.036 168.247 212.859 168.9 212.348C169.96 211.516 170.187 210.036 170.743 208.809C171.215 207.768 171.958 206.861 172.373 205.795C172.644 205.104 172.774 204.355 173.16 203.718C173.777 202.688 174.938 202.141 176.046 201.648C176.745 201.334 177.488 201.01 178.242 201.061C178.203 202.735 177.99 204.384 178.354 206.018C178.48 206.595 178.657 207.156 178.809 207.729C179.498 210.306 179.66 212.992 179.692 215.649C181.35 215.271 183.043 215.068 184.743 215.045C186.081 215.005 187.416 215.178 188.754 215.153C190.341 215.124 191.91 214.818 193.498 214.71C195.085 214.602 196.744 214.71 198.147 215.43C198.033 213.148 198.097 210.861 198.338 208.589L198.721 205.01C198.807 203.971 198.967 202.938 199.201 201.921C199.41 201.1 199.713 200.308 199.944 199.491C200.755 196.611 200.607 193.536 200.452 190.537C200.373 188.996 199.778 187.48 199.078 186.109C198.825 185.599 198.535 185.108 198.212 184.64C197.367 183.477 196.24 182.547 194.936 181.936C193.633 181.325 192.196 181.054 190.76 181.147C190.576 181.153 190.395 181.192 190.226 181.263C189.921 181.457 189.683 181.74 189.544 182.073C188.798 183.412 187.715 184.533 186.402 185.327Z" fill="#3F3D56"/>
<path d="M179.274 176.888C179.436 176.528 179.873 176.395 180.14 176.107C180.652 175.56 180.421 174.685 180.5 173.947C180.63 172.867 181.528 171.963 182.556 171.578C183.605 171.242 184.72 171.171 185.803 171.372C186.324 171.41 186.827 171.578 187.268 171.859C187.455 171.995 187.628 172.172 187.805 172.298C188.127 172.492 188.513 172.553 188.879 172.468C189.246 172.382 189.565 172.157 189.767 171.841C188.49 170.307 187.076 168.687 185.136 168.215C184.47 168.079 183.791 168.015 183.112 168.024C182.214 168.006 181.287 167.992 180.457 168.334C179.328 168.798 178.534 169.868 178.127 171.02C177.77 172.187 177.58 173.399 177.56 174.62C177.486 175.434 177.486 176.254 177.56 177.068C177.7 178.18 178.114 179.241 178.765 180.154C178.853 180.296 178.978 180.411 179.126 180.489C180.771 181.209 179.14 177.187 179.274 176.888Z" fill="#3F3D56"/>
<path d="M189.58 170.951C189.381 169.255 188.169 167.855 186.881 166.728C185.843 165.751 184.607 165.008 183.256 164.55C181.896 164.15 180.331 164.237 179.165 165.047C178.228 165.698 177.632 166.735 177.174 167.779C176.572 169.011 176.274 170.369 176.305 171.74C176.395 173.101 177.059 174.48 178.242 175.167C178.668 174.541 179.407 174.217 180.118 173.961C183.215 172.788 186.374 171.784 189.58 170.951Z" fill="#FED253"/>
<path opacity="0.1" d="M178.639 170.246C178.754 170.246 178.83 170.364 178.888 170.462C179.182 170.918 179.434 171.4 179.642 171.902C179.22 171.992 178.495 172.093 178.285 171.722C178.174 171.535 178.307 170.228 178.639 170.246Z" fill="black"/>
<path opacity="0.1" d="M186.86 169.432C186.773 169.515 186.672 169.345 186.672 169.223V167.826C186.67 167.787 186.679 167.749 186.698 167.715C186.712 167.697 186.731 167.684 186.751 167.674C186.772 167.664 186.794 167.658 186.817 167.657C187.109 167.625 187.351 167.873 187.538 168.111C187.823 168.496 188.071 168.907 188.278 169.338L186.752 169.291" fill="black"/>
<path d="M205.903 192.564C206.235 192.25 206.589 191.96 206.963 191.696C207.963 191.03 209.171 190.767 210.293 190.343C211.415 189.918 212.555 189.23 212.991 188.114C213.21 187.416 213.281 186.681 213.2 185.954C213.211 185.65 213.157 185.347 213.042 185.065C212.904 184.815 212.709 184.603 212.472 184.445C210.949 183.322 208.908 183.232 207.018 183.347C202.85 183.605 198.765 184.623 194.966 186.35C194.765 186.416 194.589 186.542 194.461 186.71C194.387 186.866 194.353 187.038 194.363 187.21C194.296 188.272 194.434 189.337 194.771 190.346C195.269 191.628 196.293 192.661 196.722 193.968C196.917 194.555 196.982 195.178 197.152 195.768C197.291 196.378 197.652 196.915 198.165 197.273C199.59 198.123 200.936 196.982 201.924 196.096L205.903 192.564Z" fill="#3F3D56"/>
<path d="M187.242 197.551L185.413 193.569C185.145 193.017 184.914 192.448 184.721 191.866C184.511 191.171 184.41 190.451 184.215 189.752C183.573 187.426 181.954 185.489 181.164 183.21C181.114 183.005 181.012 182.815 180.868 182.66C180.753 182.578 180.621 182.523 180.482 182.498C180.343 182.473 180.2 182.479 180.064 182.516C178.96 182.706 178.098 183.545 177.088 184.02C176.619 184.236 176.114 184.38 175.645 184.629C175.41 184.74 175.202 184.9 175.036 185.098C174.869 185.296 174.747 185.528 174.678 185.777C174.566 186.328 174.84 186.858 175.071 187.394C176.052 189.605 176.276 192.074 176.319 194.494C176.352 196.121 176.269 197.867 175.306 199.174C173.455 201.694 174.638 205.396 175.331 208.445C175.414 208.805 175.511 209.194 175.569 209.576C175.63 210.053 175.658 210.534 175.652 211.016C175.652 212.632 175.562 214.299 174.883 215.765C175.553 216.12 176.291 216.329 177.048 216.377C179.142 216.643 181.245 216.83 183.357 216.938C184.019 217 184.686 216.966 185.337 216.837C186.111 216.629 186.794 216.168 187.276 215.53C187.759 214.891 188.015 214.109 188.003 213.309C188.119 214.306 188.331 215.39 189.056 216.081C189.782 216.773 190.838 216.877 191.823 216.931C194.603 217.078 197.389 217 200.156 216.697C200.333 216.689 200.506 216.649 200.668 216.578C201.202 216.312 201.231 215.577 201.188 214.987C201.108 213.882 201.025 212.776 200.892 211.678C200.779 210.978 200.721 210.27 200.719 209.561C200.774 208.832 200.895 208.109 201.08 207.401C201.563 205.154 201.945 202.861 201.783 200.56C201.719 200 201.696 199.436 201.714 198.872C201.808 197.601 202.479 196.391 202.353 195.127C201.992 191.412 201.7 187.599 200.661 184.013C200.474 183.372 200.235 182.685 199.676 182.317C198.955 181.835 197.941 182.087 197.115 181.781C196.728 181.601 196.359 181.383 196.015 181.129C195.267 180.663 194.411 180.4 193.529 180.366C192.866 180.341 192.126 180.489 191.726 181.021C191.54 181.321 191.418 181.656 191.365 182.004C190.842 184.2 190.229 186.371 189.616 188.542L189.028 190.623L187.451 196.211C187.296 196.805 187.401 196.989 187.242 197.551Z" fill="#008DC8"/>
<path d="M196.466 175.75L231.359 212.348V215.451H215.801L189.58 181.295" fill="#F1C0C0"/>
<path opacity="0.1" d="M196.466 175.75L231.359 212.348V215.451H215.801L189.58 181.295" fill="black"/>
<path opacity="0.1" d="M190.135 180.813L190.247 180.852L216.025 212.348H231.359V215.451H215.801L189.58 181.295L190.135 180.813Z" fill="black"/>
<path d="M194.15 181.583C192.887 182.134 191.484 182.84 191.105 184.164C191.031 184.397 191.014 184.644 191.058 184.885C191.151 185.167 191.327 185.415 191.563 185.596C191.799 185.776 192.085 185.881 192.382 185.896C192.976 185.911 193.567 185.803 194.117 185.579L201.566 183.124C201.768 183.059 201.999 182.962 202.05 182.764C202.063 182.639 202.038 182.514 201.978 182.404C201.747 181.842 201.52 180.694 201.036 180.301C200.639 179.984 199.853 180.096 199.373 180.103C197.526 180.118 195.791 180.863 194.15 181.583Z" fill="#008DC8"/>
<path d="M200.791 183.416C202.046 183.412 203.294 183.605 204.488 183.988C205.689 184.377 206.752 185.102 207.551 186.076C207.784 186.349 207.949 186.672 208.034 187.02C208.107 187.38 209.283 187.596 209.023 187.84C209.813 187.714 209.625 188.085 210.426 188.078C211.227 188.071 212.093 187.866 212.572 187.228C212.906 186.705 213.054 186.085 212.994 185.468C213.005 185.04 212.924 184.616 212.756 184.222C212.396 183.466 211.566 183.059 210.801 182.71L204.359 179.768C203.985 179.57 203.584 179.428 203.168 179.347C202.819 179.314 202.466 179.323 202.118 179.372L199.2 179.707C199.838 180.119 200.358 180.691 200.708 181.364C201.058 182.038 201.226 182.791 201.195 183.549" fill="#3F3D56"/>
</g>
<defs>
<clipPath id="clip0">
<rect width="424.872" height="260.833" fill="white" transform="translate(72.978 31.6472)"/>
</clipPath>
</defs>
</svg>
