<svg xmlns="http://www.w3.org/2000/svg" width="645.392" height="569.852" viewBox="0 0 645.392 569.852"><defs><style>.a{fill:#e6e6e6;}.b{fill:#fff;}.c{fill:#008dc8;}.d{fill:#ccc;}</style></defs><g transform="translate(-314.46)"><rect class="a" width="611.461" height="391.607" transform="translate(348.391 0.347)"/><rect class="b" width="576.492" height="319.322" transform="translate(365.876 49.464)"/><rect class="c" width="611.461" height="25.977" transform="translate(348.13)"/><circle class="b" cx="4.815" cy="4.815" r="4.815" transform="translate(314.46 8.466)"/><circle class="b" cx="4.815" cy="4.815" r="4.815" transform="translate(334.234 8.466)"/><circle class="b" cx="4.815" cy="4.815" r="4.815" transform="translate(354.007 8.466)"/><path class="d" d="M863.33,244.533H675.643a1.666,1.666,0,0,1,0-3.3H863.33a1.666,1.666,0,0,1,0,3.3Z" transform="translate(-102.578 -165.16)"/><path class="d" d="M733.282,262.7H613.95a1.666,1.666,0,0,1,0-3.3H733.282a1.666,1.666,0,0,1,0,3.3Z" transform="translate(-113.153 -165.16)"/><path class="d" d="M863.33,263.03H744a1.666,1.666,0,0,1,0-3.3H863.33a1.666,1.666,0,0,1,0,3.3Z" transform="translate(-100.926 -165.16)"/><path class="d" d="M733.571,280.867H614.24a1.666,1.666,0,0,1,0-3.3H733.571a1.666,1.666,0,0,1,0,3.3Z" transform="translate(-113.125 -147.601)"/><path class="d" d="M733.861,299.035H614.529a1.666,1.666,0,0,1,0-3.3H733.861a1.666,1.666,0,0,1,0,3.3Z" transform="translate(-113.098 -144.763)"/><path class="d" d="M788.024,280.867H753.846a1.666,1.666,0,0,1,0-3.3h34.178a1.666,1.666,0,0,1,0,3.3Z" transform="translate(-105.612 -147.601)"/><path class="d" d="M788.024,298.7H753.846a1.666,1.666,0,0,1,0-3.3h34.178a1.666,1.666,0,0,1,0,3.3Z" transform="translate(-105.612 -144.814)"/><path class="d" d="M845.373,298.7H811.2a1.666,1.666,0,0,1,0-3.3h34.178a1.666,1.666,0,0,1,0,3.3Z" transform="translate(-100.76 -144.814)"/><path class="d" d="M647.259,244.533H613.081a1.666,1.666,0,0,1,0-3.3h34.178a1.666,1.666,0,0,1,0,3.3Z" transform="translate(-117.521 -165.16)"/><path class="d" d="M732.847,452.838H613.515a1.666,1.666,0,0,1,0-3.3H732.847a1.666,1.666,0,0,1,0,3.3Z" transform="translate(-113.193 -120.736)"/><path class="d" d="M732.268,489.173H612.936a1.666,1.666,0,0,1,0-3.3H732.268a1.666,1.666,0,0,1,0,3.3Z" transform="translate(-113.248 -115.06)"/><path class="d" d="M732.558,507.341H613.226a1.666,1.666,0,0,1,0-3.3H732.558a1.666,1.666,0,0,1,0,3.3Z" transform="translate(-113.221 -112.222)"/><path class="d" d="M783.534,489.5H749.357a1.666,1.666,0,0,1,0-3.3h34.178a1.666,1.666,0,0,1,0,3.3Z" transform="translate(-105.992 -115.008)"/><path class="d" d="M783.534,507.341H749.357a1.666,1.666,0,0,1,0-3.3h34.178a1.666,1.666,0,0,1,0,3.3Z" transform="translate(-105.992 -112.222)"/><path class="d" d="M840.883,489.5H806.706a1.666,1.666,0,0,1,0-3.3h34.178a1.666,1.666,0,0,1,0,3.3Z" transform="translate(-101.14 -115.008)"/><path class="d" d="M863.475,471.006H675.788a1.666,1.666,0,0,1,0-3.3H863.475a1.666,1.666,0,0,1,0,3.3Z" transform="translate(-102.563 -117.898)"/><path class="d" d="M647.4,471.006H613.225a1.666,1.666,0,0,1,0-3.3H647.4a1.666,1.666,0,0,1,0,3.3Z" transform="translate(-117.509 -117.898)"/><path class="a" d="M547.965,163.221l-46.343,45.764,46.343,45.763,10.427-10.427-35.047-35.047,35.336-35.336Z" transform="translate(43.46 30.203)"/><path class="a" d="M616.32,163.221l46.342,45.764L616.32,254.748l-10.427-10.427,35.046-35.047L605.6,173.938Z" transform="translate(52.468 30.203)"/><path class="c" d="M547.965,163.221l-46.343,45.764,46.343,45.763,10.427-10.427-35.047-35.047,35.336-35.336Z" transform="translate(43.46 30.203)"/><path class="c" d="M616.32,163.221l46.342,45.764L616.32,254.748l-10.427-10.427,35.046-35.047L605.6,173.938Z" transform="translate(52.468 30.203)"/><path class="a" d="M626.667,711.2c14.42,19.311,44.352,21.344,44.352,21.344s6.554-29.277-7.866-48.588S618.8,662.607,618.8,662.607,612.247,691.884,626.667,711.2Z" transform="translate(42.809 -162.692)"/><path class="a" d="M700.123,718.455c-9.515,12.743-29.267,14.084-29.267,14.084s-4.324-19.319,5.191-32.062,29.267-14.084,29.267-14.084S709.638,705.712,700.123,718.455Z" transform="translate(39.373 -169.692)"/></g></svg>