<svg xmlns="http://www.w3.org/2000/svg" width="664.53" height="455.022" viewBox="0 0 664.53 455.022"><defs><style>.a{fill:#394855;}.b{fill:none;}.c,.k,.l{fill:#212b34;}.c,.q{opacity:0.4;}.d{fill:#454b69;}.e,.i,.l{opacity:0.1;}.f{fill:#efb7b9;}.g{fill:#fff;}.h{fill:#008dc8;}.j{opacity:0.08;}.m{fill:#3f3d56;}.n{fill:#bd6997;}.o{fill:#9c9ca1;}.p{fill:#939498;}</style></defs><g transform="translate(-0.11 -11.492)"><path class="a" d="M689.68,714.152a157.581,157.581,0,0,1-9.585,23.523,104.146,104.146,0,0,1-5.806,10.189H25.15c.584-.581,4.013-4.122,9.346-10.189,3.826-4.345,8.627-10,14.019-16.793l68.418-18.037a10.552,10.552,0,0,1,2.687-.35l72.939-.134h.076l36.128-.06h.082l30.491-.045h40.4l83.774-.149h36.046l14.387-.209H438.7l41.846-.075h19.79l48.336-.082h14.393l45.783-.082,38.645-.06a10.9,10.9,0,0,1,3.2.484Z" transform="translate(-25.04 -281.35)"/><path class="b" d="M34.46,750H677.594a104.311,104.311,0,0,1-5.784,10.189H25.15C25.72,759.57,29.136,756.03,34.46,750Z" transform="translate(-25.04 -293.675)"/><path class="c" d="M34.46,750H677.594a104.311,104.311,0,0,1-5.784,10.189H25.15C25.72,759.57,29.136,756.03,34.46,750Z" transform="translate(-25.04 -293.675)"/><path class="d" d="M682.854,365.827l-1.635.32-73.91,14.37c-21.468,4.174-43.245,8.37-65.051,6.768-15.8-1.163-30.555-5.9-45.734-10.062-8.58-2.355-17.675-3.294-20.584-13.014-4.014-13.416,2.519-33.28,4.058-46.875,1.473-13.342,2.342-27.019-.28-40.2a72.174,72.174,0,0,0-2.3-8.75c-2.629-7.893-6.761-16.1-4.529-24.112,1.76-6.358,7.129-10.9,12.151-15.1,9.839-8.2,19.884-17.389,23.787-29.68,1.915-5.963,2.276-12.38,4.338-18.3,3.911-11.255,13.735-19.67,24.664-24.127s22.948-5.4,34.738-5.4a232.513,232.513,0,0,1,31.1,2.091c11.28,1.494,22.636,3.947,32.527,9.6s18.227,14.907,20.532,26.191c3.263,15.958-5.8,32.952-.935,48.447,2.445,7.834,8.1,14.162,12.026,21.332a51.36,51.36,0,0,1,3.682,39.5c-4.7,14.735-16.2,29.642-10.31,43.93,3.749,9.086,13.322,13.938,19.995,21.138Q682.081,364.858,682.854,365.827Z" transform="translate(-232.581 -140.173)"/><path class="e" d="M682.079,394.849v2.2l-73.91,14.37c-21.468,4.174-43.245,8.37-65.051,6.768-15.8-1.163-30.555-5.9-45.734-10.062-8.58-2.355-17.675-3.294-20.584-13.014-4.014-13.416,2.519-33.28,4.058-46.875,1.473-13.342,24.148-62.05,21.526-75.235l135.507,5.963c.913,7.282,36.727,43.834,34.5,50.817-4.7,14.735-16.2,29.642-10.31,43.93C665.833,382.8,675.407,387.648,682.079,394.849Z" transform="translate(-233.525 -171.43)"/><path class="f" d="M552.241,372.026c.8,4.614,1.23,9.689-1.1,13.714-3.1,5.4-9.861,7.118-15.907,8.34l-20.989,4.248a8.091,8.091,0,0,0-4.014,1.61,7.15,7.15,0,0,0-1.871,4.643c-.847,7.692,1.841,15.272,4.294,22.6,4.956,14.84,9.117,29.993,15.384,44.311s14.869,27.988,27.146,37.558,28.523,14.668,43.554,10.927c13.094-3.257,23.832-12.611,33.089-22.532,7.637-8.2,14.781-17.143,18.485-27.779,2.555-7.3,3.388-15.086,4.19-22.793l3.726-35.448c.582-5.545.965-11.784-2.592-16.04a18.886,18.886,0,0,0-5.847-4.271c-8.057-4.33-16.541-7.908-24.038-13.125s-14.147-12.4-16.423-21.317c-1.362-5.352-1.119-11.18-3.439-16.166-2.592-5.59-8.1-9.376-13.993-11.039s-12.107-1.439-18.176-.745-29.458,2.467-31.969,9.391c-1.348,3.727,4.242,11.724,5.568,15.391a108.484,108.484,0,0,1,4.922,18.522Z" transform="translate(-240.89 -185.719)"/><path class="e" d="M552.241,372.026c.8,4.614,1.23,9.689-1.1,13.714-3.1,5.4-9.861,7.118-15.907,8.34l-20.989,4.248a8.091,8.091,0,0,0-4.014,1.61,7.15,7.15,0,0,0-1.871,4.643c-.847,7.692,1.841,15.272,4.294,22.6,4.956,14.84,9.117,29.993,15.384,44.311s14.869,27.988,27.146,37.558,28.523,14.668,43.554,10.927c13.094-3.257,23.832-12.611,33.089-22.532,7.637-8.2,14.781-17.143,18.485-27.779,2.555-7.3,3.388-15.086,4.19-22.793l3.726-35.448c.582-5.545.965-11.784-2.592-16.04a18.886,18.886,0,0,0-5.847-4.271c-8.057-4.33-16.541-7.908-24.038-13.125s-14.147-12.4-16.423-21.317c-1.362-5.352-1.119-11.18-3.439-16.166-2.592-5.59-8.1-9.376-13.993-11.039s-12.107-1.439-18.176-.745-29.458,2.467-31.969,9.391c-1.348,3.727,4.242,11.724,5.568,15.391a108.484,108.484,0,0,1,4.922,18.522Z" transform="translate(-240.89 -185.719)"/><path class="g" d="M599.326,470.741l12.306-26.37c5.766-12.358,11.658-25.342,11.047-38.989-.118-2.713-.147-6.1,2.209-7.334a6.25,6.25,0,0,1,3.233-.417,129.427,129.427,0,0,1,37.935,7.767c2.364.865,4.787,1.863,6.444,3.771s2.327,4.472,2.894,6.932a204.616,204.616,0,0,1,4.22,25.245c2.209,21.034,1.112,42.253,0,63.354l-3.27,64.42a6.222,6.222,0,0,1-.538,2.653c-.81,1.491-2.636,1.99-4.279,2.273-6.326,1.1-12.792.872-19.2.626-45.071-1.729-90.377-4.383-135.154,1.148q.3-10.055-.317-20.124c-1.775-28.986-9.2-57.265-16.489-85.349-4.249-16.4-8.366-34.286-1.524-49.737a21.334,21.334,0,0,1,4.264-6.574c2.909-2.884,6.878-4.4,10.811-5.493a68.029,68.029,0,0,1,20.834-2.385L581.188,508.47c2.121,4.681,3.866,9.608,5.98,14.229,1.9-7.983-.383-17.337,1.9-25.99C591.527,487.727,595.4,479.134,599.326,470.741Z" transform="translate(-239.677 -203.557)"/><path class="h" d="M575.461,540.538c8.307.529,16.379-3.779,22.094-9.868s9.485-13.811,12.674-21.615a215.017,215.017,0,0,0,10.892-34.368c2.209-9.988,3.778-20.325,2.253-30.447-2.106-13.975-9.92-26.676-11.253-40.748-.228-2.46-.081-5.337,1.871-6.82a7.7,7.7,0,0,1,4.3-1.133c13.89-.835,29.149-.678,39.908,8.243,3.277,2.713,5.936,6.1,9.139,8.9,7.63,6.708,18.411,10.122,23.309,19.029,1.709,3.1,2.526,6.611,3.719,9.95,2.813,7.9,7.681,14.847,12.52,21.682-4.691,20.035-10.082,40.084-14.773,60.119-2.747,11.754-5.516,23.553-9.832,34.807-2.828,7.379-6.385,14.907-5.516,22.807a52.585,52.585,0,0,0,2.261,9.078,105.528,105.528,0,0,1,4.338,32.445l-210.139.522c10.067-14.609,13.02-32.527,12-50.3-.493-8.519-2.393-17.091-6.628-24.462-6.672-11.553-18.411-19.081-29.981-25.528-8.1-4.472-16.8,20.691-25.555,17.806,1.414-10.122,2.062-49.193,1.473-59.381-.191-3.339-.486-6.768.53-9.958.692-2.184,1.966-4.137,2.828-6.261,3.454-8.5.162-19.379,5.744-26.616,3.859-5.031,10.627-6.462,16.128-9.563,5.649-3.19,10.016-8.2,14.935-12.477A66.047,66.047,0,0,1,498.7,401.019a43.685,43.685,0,0,1,6.488,19.379c.376,4.33.1,8.721.7,13.029.817,5.836,3.2,11.314,5.568,16.711,9.846,22.5,19.73,45.071,32.205,66.2,3.528,5.963,7.365,11.925,12.476,16.569S568.6,540.866,575.461,540.538Z" transform="translate(-220.132 -203.326)"/><path class="e" d="M575.461,540.538c8.307.529,16.379-3.779,22.094-9.868s9.485-13.811,12.674-21.615a215.017,215.017,0,0,0,10.892-34.368c2.209-9.988,3.778-20.325,2.253-30.447-2.106-13.975-9.92-26.676-11.253-40.748-.228-2.46-.081-5.337,1.871-6.82a7.7,7.7,0,0,1,4.3-1.133c13.89-.835,29.149-.678,39.908,8.243,3.277,2.713,5.936,6.1,9.139,8.9,7.63,6.708,18.411,10.122,23.309,19.029,1.709,3.1,2.526,6.611,3.719,9.95,2.813,7.9,7.681,14.847,12.52,21.682-4.691,20.035-10.082,40.084-14.773,60.119-2.747,11.754-5.516,23.553-9.832,34.807-2.828,7.379-6.385,14.907-5.516,22.807a52.585,52.585,0,0,0,2.261,9.078,105.528,105.528,0,0,1,4.338,32.445l-210.139.522c10.067-14.609,13.02-32.527,12-50.3-.493-8.519-2.393-17.091-6.628-24.462-6.672-11.553-18.411-19.081-29.981-25.528-8.1-4.472-16.8,20.691-25.555,17.806,1.414-10.122,2.062-49.193,1.473-59.381-.191-3.339-.486-6.768.53-9.958.692-2.184,1.966-4.137,2.828-6.261,3.454-8.5.162-19.379,5.744-26.616,3.859-5.031,10.627-6.462,16.128-9.563,5.649-3.19,10.016-8.2,14.935-12.477A66.047,66.047,0,0,1,498.7,401.019a43.685,43.685,0,0,1,6.488,19.379c.376,4.33.1,8.721.7,13.029.817,5.836,3.2,11.314,5.568,16.711,9.846,22.5,19.73,45.071,32.205,66.2,3.528,5.963,7.365,11.925,12.476,16.569S568.6,540.866,575.461,540.538Z" transform="translate(-220.132 -203.326)"/><ellipse class="f" cx="63.129" cy="63.891" rx="63.129" ry="63.891" transform="translate(282.019 57.423)"/><path class="d" d="M552.031,352.069c1.731-16.532-5.059-32.706-12.748-47.4-3.682-7.021-7.63-14.02-9.478-21.734s-1.318-16.45,3.41-22.793c4.021-5.4,10.4-8.311,16.3-11.478,16.651-8.944,31.874-22.092,39.194-39.675-4.139,2.281-3.064,9.086.589,12.089s8.631,3.585,13.124,5.016c16.379,5.217,26.2,21.749,34.083,37.193,1.289,2.519,2.6,5.18,2.585,8.02s-1.3,5.359-2.637,7.774c-3.888,7.006-8.646,13.737-10.413,21.57-2.025,8.944.11,18.35,2.887,27.123,2.946,9.332,6.856,18.738,13.926,25.431s18.036,10.017,26.733,5.694c-8.683-15.108-17.675-31.99-14.287-49.118,1.635-8.2,6.032-15.652,7.9-23.806,3.564-15.555-2.371-31.558-8.2-46.4l-17.41-44.311c-2.659-6.775-5.685-14-11.783-17.843-4.124-2.586-9.117-3.257-13.948-3.727-15.554-1.4-31.667-.939-46.146,4.919-26.38,10.666-42.92,36.962-56.044,62.467-3.933,7.64-7.814,15.757-7.652,24.373.088,4.725,1.392,9.324,2.452,13.93,4.316,18.753,4.551,38.184,4.772,57.436.169,14.773-.589,28.7-6.974,42.149,8.749,1.759,21.438,6.507,30.1,3.034C543.657,377.485,550.609,363.569,552.031,352.069Z" transform="translate(-240.333 -145.615)"/><g class="i" transform="translate(261.65 62.2)"><path d="M509.193,366.772q.044-3.153,0-6.365c-.221-19.252-.457-38.683-4.772-57.436a97.944,97.944,0,0,1-2.254-11.091,29.347,29.347,0,0,0-.2,3.868c.088,4.725,1.392,9.324,2.452,13.93C508.715,328.32,508.98,347.632,509.193,366.772Z" transform="translate(-501.966 -238.081)"/><path d="M717.79,320.032a45.63,45.63,0,0,0,.957-13.282,41.866,41.866,0,0,1-.957,6.574c-1.871,8.2-6.267,15.585-7.9,23.806a39.964,39.964,0,0,0-.589,11.016,39.559,39.559,0,0,1,.589-4.308C711.522,335.617,715.919,328.2,717.79,320.032Z" transform="translate(-556.57 -241.868)"/><path d="M648.1,279.775a10.857,10.857,0,0,0,.574-3.287c0-2.84-1.3-5.5-2.585-8.02-7.88-15.443-17.675-31.96-34.083-37.193-4.492-1.431-9.463-2.012-13.124-5.016a9.492,9.492,0,0,1-3.226-6.559c-7.983,14.832-21.7,26.176-36.557,34.144-5.892,3.168-12.277,6.082-16.3,11.478-3.778,5.068-4.875,11.665-4.22,18.045a22.979,22.979,0,0,1,4.22-11.337c4.021-5.4,10.4-8.31,16.3-11.478,14.862-7.968,28.574-19.312,36.557-34.144a9.492,9.492,0,0,0,3.226,6.559c3.682,2.981,8.631,3.585,13.124,5.016,16.379,5.217,26.2,21.749,34.083,37.193a29.543,29.543,0,0,1,2.011,4.6Z" transform="translate(-511.57 -219.7)"/><path d="M686.95,391.552c-7.07-6.708-10.966-16.1-13.926-25.431a74.376,74.376,0,0,1-3.535-16.181c-.685,7.655,1.193,15.488,3.535,22.889,2.946,9.332,6.856,18.738,13.926,25.431s18.036,10.017,26.733,5.694c-1.046-1.811-2.084-3.652-3.115-5.508C702.489,400.75,693.21,397.47,686.95,391.552Z" transform="translate(-546.078 -252.867)"/><path d="M552.112,403.573c-1.421,11.5-8.373,25.416-19.693,29.963-7.858,3.153-19.045-.47-27.58-2.475a65.01,65.01,0,0,1-2.519,6.149c8.749,1.759,21.438,6.507,30.1,3.034,11.319-4.547,18.271-18.462,19.693-29.963a52.42,52.42,0,0,0,.162-8.661C552.229,402.268,552.163,402.924,552.112,403.573Z" transform="translate(-502.059 -266.027)"/></g><path class="g" d="M672.433,650.89c-11.378-1.826-22.926-5.352-34.208-2.981-6.54,1.371-12.52,4.666-17.955,8.646,2.99,2.422,6.481,4.584,8.381,7.953a31.548,31.548,0,0,1,2.636,7.357,63.272,63.272,0,0,1,2.578,13.684c.184,4.651-.736,9.5-3.476,13.245,14.346,1.431,28.25-2.147,42.243-5.642a11.489,11.489,0,0,0,4.47-1.826c2.209-1.759,2.857-4.889,2.872-7.744,0-5.1-1.414-10.07-2.85-14.959C675.416,662.756,674.149,656.719,672.433,650.89Z" transform="translate(-278.392 -267.475)"/><path class="h" d="M764.419,483.348c5.649.745,10.03,5.359,13.256,10.1,9.051,13.193,12.954,29.188,17.3,44.639q8.1,28.822,19.052,56.735a85.877,85.877,0,0,0,5.715,12.447c1.819,3.078,4.028,6.037,4.831,9.533,1.944,8.452-4.942,16.4-12.122,21.108a47.729,47.729,0,0,1-12.409,6.052,73.1,73.1,0,0,1-13.2,2.281l-40.88,4.472c-18.816,2.072-37.8,4.144-56.626,2.147-1.186-4.174,1.142-7.125.972-11.471-.118-3.108-1.473-6-2.681-8.862A57.174,57.174,0,0,1,683.26,616.5a21.97,21.97,0,0,0-1.053-6.015c-.766-1.893-2.408-3.593-4.419-3.727,11.047-1.111,19.435-3.22,30.482-4.338,4.1-.417,8.366-.887,11.864-3.093,4.338-2.735,6.768-7.669,8.7-12.455,4.78-11.851,7.858-24.909,5.347-37.461-2.062-10.293-7.814-19.878-7.784-30.38,0-6.253,2.106-12.313,4.6-18.037,2.637-6.052,6.076-12.239,11.864-15.309S757.886,482.453,764.419,483.348Z" transform="translate(-316.097 -225.649)"/><path class="j" d="M764.419,483.348c5.649.745,10.03,5.359,13.256,10.1,9.051,13.193,12.954,29.188,17.3,44.639q8.1,28.822,19.052,56.735a85.877,85.877,0,0,0,5.715,12.447c1.819,3.078,4.028,6.037,4.831,9.533,1.944,8.452-4.942,16.4-12.122,21.108a47.729,47.729,0,0,1-12.409,6.052,73.1,73.1,0,0,1-13.2,2.281l-40.88,4.472c-18.816,2.072-37.8,4.144-56.626,2.147-1.186-4.174,1.142-7.125.972-11.471-.118-3.108-1.473-6-2.681-8.862A57.174,57.174,0,0,1,683.26,616.5a21.97,21.97,0,0,0-1.053-6.015c-.766-1.893-2.408-3.593-4.419-3.727,11.047-1.111,19.435-3.22,30.482-4.338,4.1-.417,8.366-.887,11.864-3.093,4.338-2.735,6.768-7.669,8.7-12.455,4.78-11.851,7.858-24.909,5.347-37.461-2.062-10.293-7.814-19.878-7.784-30.38,0-6.253,2.106-12.313,4.6-18.037,2.637-6.052,6.076-12.239,11.864-15.309S757.886,482.453,764.419,483.348Z" transform="translate(-316.097 -225.649)"/><path class="f" d="M445.821,431.061c2.673-6.425,5.391-13.058,5.464-20.027.081-7.535-2.946-14.691-5.258-21.846a127.649,127.649,0,0,1-5.678-26.974,3.766,3.766,0,0,1,.368-2.586c.611-.872,1.79-1.051,2.828-1.282,5.1-1.178,8.948-5.344,12.129-9.54a104.871,104.871,0,0,0,12.417-20.989c2.438-5.493,5.737-12.194,11.688-12.246a344.98,344.98,0,0,1-8.9,33.727c6.223-1.61,12.137-3.95,18.36-5.56a10.87,10.87,0,0,1,3.771-.507c3.727.4,6.009,5.5,3.844,8.594,3.042,3.607,8.1,4.576,12.078,7.051s6.834,8.6,3.3,11.709a9.9,9.9,0,0,0-2.069,1.8c-1.709,2.668,2.474,5.732,2.128,8.892-.28,2.586-3.557,3.794-6.039,3.108s-4.419-2.564-6.628-3.943-5.1-2.236-7.239-.8c-.574,7.014-1.193,14.161-4.19,20.549-1.1,2.333-2.5,4.517-3.388,6.939a34.567,34.567,0,0,0-1.561,8.147l-2.673,24.738C467.819,442.6,456.382,438.73,445.821,431.061Z" transform="translate(-221.976 -183.355)"/><path class="g" d="M442.6,489.77l-2.349-16.092a26.457,26.457,0,0,1-.376-3.965c0-3.727,1.62-7.282,3.189-10.673,13,6.142,27.05,8.326,41.389,8.333,1.893,0,4.051-.179,5.229-1.677,2.438,2.84,2.511,7.409,1.473,11.016s-3.034,6.857-4.36,10.375c-.67,1.781-1.215,3.727-2.5,5.1-1.988,2.169-5.214,2.542-8.145,2.527a51.468,51.468,0,0,1-9.191-.887C459.116,492.349,450.455,488.347,442.6,489.77Z" transform="translate(-223.945 -224.079)"/><path class="h" d="M483.776,496.744q-15.134-1.744-30.069-4.919c-4.883-1.036-9.81-2.191-14.788-1.99-3.24.134-6.724.79-9.574-.835a47.185,47.185,0,0,1-.376,29.024c-1.966,5.59-4.964,10.8-6.407,16.554-3,12.037,1.119,25.163-2.637,36.984a9.394,9.394,0,0,1-2.268,4.114c-1.149,1.066-2.718,1.617-3.778,2.773-1.561,1.7-1.657,4.256-1.664,6.574l-.066,20.534c-.044,13.073.125,26.937,6.945,38.012,7.777,12.671,24.148,19.237,38.4,15.384a28.408,28.408,0,0,0,10.428-5.165c4.949-3.98,8.1-9.734,11.187-15.339,3.682-6.708,7.365-13.565,8.55-21.116.84-5.344.368-10.8-.236-16.174-3.329-29.814-10.553-59.374-9-89.3a27.268,27.268,0,0,1,5.354-15.116Z" transform="translate(-218.122 -228.209)"/><path class="f" d="M534.794,664.256a88.21,88.21,0,0,1-15.37,0c-3.682-.447-7.276-1.364-10.929-1.99a69.455,69.455,0,0,0-56.4,15.861c-2.828,2.445-5.685,6.194-4.124,9.615,1.679,3.682,6.812,3.578,10.767,2.892a32.462,32.462,0,0,0-11.047,8.743c-1.1,1.364-2.15,2.981-1.937,4.748.449,3.689,5.4,4.36,9.058,4.04-1.193,1.3-.39,3.593,1.127,4.472s3.4.7,5.118.38a37.639,37.639,0,0,0,10.87-3.809c-.692,1.826.508,3.965,2.209,4.875a9,9,0,0,0,5.678.529c9-1.491,16.511-7.826,25.29-10.316,14.037-3.973,28.722,2.363,43.311,2.81a29.9,29.9,0,0,0,13.411-2.236c5.1-2.348,9.22-6.753,14.611-8.318,5.987-1.729,12.859.261,18.338-2.728,3.984-2.169.39-18.887-.626-22.107-1.863-5.888-3.734-9.794-9.942-10.39C568.494,659.769,550.621,663.332,534.794,664.256Z" transform="translate(-213.027 -270.995)"/><path class="g" d="M619.88,658.32s23.78,20.37,10.06,42.6l26.512-9.265V672.206c0-.924-10.067-14.81-10.067-14.81l-11.894-1.856Z" transform="translate(-275.473 -269.62)"/><path class="k" d="M250.2,521.32h8.918a18.523,18.523,0,0,1,18.411,18.634v27.66H231.79v-27.66A18.523,18.523,0,0,1,250.2,521.32Z" transform="translate(-102.012 -134.88)"/><path class="l" d="M250.2,521.32h8.918a18.523,18.523,0,0,1,18.411,18.634v27.66H231.79v-27.66A18.523,18.523,0,0,1,250.2,521.32Z" transform="translate(-104.012 -135.88)"/><ellipse class="k" cx="3.66" cy="3.704" rx="3.66" ry="3.704" transform="translate(149.26 390.213)"/><ellipse class="k" cx="3.66" cy="3.704" rx="3.66" ry="3.704" transform="translate(149.26 385.584)"/><ellipse class="k" cx="3.66" cy="3.704" rx="3.66" ry="3.704" transform="translate(149.26 380.956)"/><ellipse class="k" cx="3.66" cy="3.704" rx="3.66" ry="3.704" transform="translate(149.26 376.327)"/><ellipse class="k" cx="3.66" cy="3.704" rx="3.66" ry="3.704" transform="translate(149.26 371.914)"/><ellipse class="k" cx="3.66" cy="3.704" rx="3.66" ry="3.704" transform="translate(149.26 367.296)"/><ellipse class="k" cx="3.66" cy="3.704" rx="3.66" ry="3.704" transform="translate(149.26 362.672)"/><ellipse class="k" cx="3.66" cy="3.704" rx="3.66" ry="3.704" transform="translate(153.62 364.523)"/><ellipse class="k" cx="3.66" cy="3.704" rx="3.66" ry="3.704" transform="translate(156.525 362.672)"/><ellipse class="k" cx="3.66" cy="3.704" rx="3.66" ry="3.704" transform="translate(159.429 360.828)"/><ellipse class="k" cx="3.66" cy="3.704" rx="3.66" ry="3.704" transform="translate(149.26 358.055)"/><ellipse class="k" cx="3.66" cy="3.704" rx="3.66" ry="3.704" transform="translate(149.26 353.437)"/><ellipse class="k" cx="3.66" cy="3.704" rx="3.66" ry="3.704" transform="translate(149.26 348.82)"/><ellipse class="m" cx="3.66" cy="3.704" rx="3.66" ry="3.704" transform="translate(149.26 344.203)"/><path class="n" d="M295,583.667q-1.37.2-2.74.291a21.171,21.171,0,0,0,2.357-2.445,15.722,15.722,0,0,0-2.209-4.345,7.463,7.463,0,0,1-2.946.939c-.906.134-1.819.231-2.732.3a45.945,45.945,0,0,0,3.5-3.727,15.4,15.4,0,0,0-19.542-1.091,15.842,15.842,0,0,0-5.1,19.125,15.494,15.494,0,0,0,17.434,9,15.775,15.775,0,0,0,12.072-18.106Z" transform="translate(-125.481 -247.699)"/><path class="n" d="M317.354,612.2a7.042,7.042,0,0,1-3.078,1.036c-.906.134-1.819.239-2.732.3a26.993,26.993,0,0,0,2.71-2.847,9.14,9.14,0,0,0-10.92,5.8,9.315,9.315,0,0,0,4.677,11.548,9.1,9.1,0,0,0,11.8-3.626,9.344,9.344,0,0,0-2.457-12.23Z" transform="translate(-140.995 -257.88)"/><ellipse class="k" cx="3.66" cy="3.704" rx="3.66" ry="3.704" transform="translate(144.906 364.523)"/><ellipse class="k" cx="3.66" cy="3.704" rx="3.66" ry="3.704" transform="translate(142.001 362.672)"/><ellipse class="k" cx="3.66" cy="3.704" rx="3.66" ry="3.704" transform="translate(139.097 360.828)"/><path class="n" d="M246.818,612.2a7.041,7.041,0,0,0,3.078,1.036c.906.134,1.819.239,2.732.3a26.26,26.26,0,0,1-2.71-2.847,9.14,9.14,0,0,1,10.92,5.8,9.315,9.315,0,0,1-4.677,11.548,9.1,9.1,0,0,1-11.8-3.626,9.344,9.344,0,0,1,2.457-12.23Z" transform="translate(-116.06 -257.88)"/><path class="k" d="M250.193,525h8.918a18.523,18.523,0,0,1,18.411,18.634v24.5a3.142,3.142,0,0,1-3.123,3.16H234.883a3.142,3.142,0,0,1-3.123-3.16v-24.5a18.748,18.748,0,0,1,5.4-13.184A18.3,18.3,0,0,1,250.193,525Z" transform="translate(-98.001 -134.817)"/><g class="i" transform="translate(138.946 323.121)"><path d="M305.918,589.49a13.936,13.936,0,0,1-1.178,1.133,11.848,11.848,0,0,0,1.252-.112C305.977,590.168,305.955,589.825,305.918,589.49Z" transform="translate(-275.134 -575.623)"/><path d="M297.28,582.5c.921-.06,1.826-.157,2.74-.291a8.752,8.752,0,0,0,2.379-.656,16.383,16.383,0,0,0-1.281-2.139,5.507,5.507,0,0,1-1.473.634,21.339,21.339,0,0,1-2.365,2.452Z" transform="translate(-273.168 -573.056)"/><path d="M266.153,588.277a15.742,15.742,0,0,1,8.08-13.818,15.366,15.366,0,0,1,15.855.581l.236-.253a15.41,15.41,0,0,0-21.928,1.457,15.859,15.859,0,0,0,1.44,22.193,15.765,15.765,0,0,1-3.682-10.159Z" transform="translate(-264.54 -570.885)"/></g><g class="i" transform="translate(161.773 352.51)"><path d="M314.68,616c.913-.06,1.826-.157,2.732-.291a7.05,7.05,0,0,0,3.078-1.044,9.29,9.29,0,0,1,3.682,6.559,8.576,8.576,0,0,0,.052-.976,9.265,9.265,0,0,0-3.682-7.453,7.042,7.042,0,0,1-3.078,1.036l-.736.1A18.8,18.8,0,0,1,314.68,616Z" transform="translate(-305.901 -610.986)"/><path d="M311.907,612.218a7.429,7.429,0,0,1,.913.067c.479-.514.95-1.066,1.429-1.6a9.046,9.046,0,0,0-7.925,1.6,9.282,9.282,0,0,0-3.564,7.341,6.424,6.424,0,0,0,.044.924,9.189,9.189,0,0,1,9.1-8.332Z" transform="translate(-302.76 -610.37)"/></g><g class="i" transform="translate(127.02 352.51)"><path d="M252.634,616c-.913-.06-1.826-.157-2.732-.291a7.05,7.05,0,0,1-3.078-1.044,9.29,9.29,0,0,0-3.682,6.559,8.583,8.583,0,0,1-.052-.976,9.265,9.265,0,0,1,3.682-7.453,7.043,7.043,0,0,0,3.078,1.036l.736.1A17.544,17.544,0,0,0,252.634,616Z" transform="translate(-243.09 -610.986)"/><path d="M254.712,612.218a7.634,7.634,0,0,0-.921.067c-.471-.514-.943-1.066-1.421-1.6a9.046,9.046,0,0,1,7.925,1.6,9.282,9.282,0,0,1,3.564,7.341,6.416,6.416,0,0,1-.044.924,9.189,9.189,0,0,0-9.1-8.332Z" transform="translate(-245.536 -610.37)"/></g><path class="h" d="M195.008,721.5H123.056A3.075,3.075,0,0,1,120,718.407V683.943a3.1,3.1,0,0,1,1.423-2.615,3.025,3.025,0,0,1,2.944-.18c20.672,9.928,42.943,13.334,69.227.157a3.032,3.032,0,0,1,2.966.144,3.109,3.109,0,0,1,1.452,2.622v34.286a3.076,3.076,0,0,1-3,3.143Z" transform="translate(-50.037 -276.065)"/><path class="e" d="M195.008,721.5H123.056A3.075,3.075,0,0,1,120,718.407V683.943a3.1,3.1,0,0,1,1.423-2.615,3.025,3.025,0,0,1,2.944-.18c20.672,9.928,42.943,13.334,69.227.157a3.032,3.032,0,0,1,2.966.144,3.109,3.109,0,0,1,1.452,2.622v34.286a3.076,3.076,0,0,1-3,3.143Z" transform="translate(-50.037 -276.065)"/><ellipse class="k" cx="4.257" cy="5.642" rx="4.257" ry="5.642" transform="translate(104.237 407.952)"/><ellipse class="k" cx="4.257" cy="5.642" rx="4.257" ry="5.642" transform="translate(104.237 401.058)"/><ellipse class="k" cx="4.257" cy="5.642" rx="4.257" ry="5.642" transform="translate(104.237 394.156)"/><ellipse class="k" cx="4.257" cy="5.642" rx="4.257" ry="5.642" transform="translate(104.237 387.262)"/><ellipse class="k" cx="4.257" cy="5.642" rx="4.257" ry="5.642" transform="translate(104.237 380.36)"/><ellipse class="m" cx="4.257" cy="5.642" rx="4.257" ry="5.642" transform="translate(104.237 373.458)"/><ellipse class="m" cx="4.257" cy="5.642" rx="4.257" ry="5.642" transform="translate(104.237 366.783)"/><path class="n" d="M180.957,562.353a21.931,21.931,0,0,0,1.583-2.363l-11.194-1.863,12.107.089a20.882,20.882,0,0,0,.39-16.4L167.6,550.343l14.979-11.18a20.3,20.3,0,0,0-36.231,1.763,20.857,20.857,0,0,0,2.524,21.343,20.239,20.239,0,0,0-2.327,3.764l14.523,7.722-15.465-5.292a20.876,20.876,0,0,0,3.292,19.379,20.833,20.833,0,0,0,2.193,27.94,20.229,20.229,0,0,0,27.694,0,20.833,20.833,0,0,0,2.193-27.94,20.85,20.85,0,0,0,0-25.535Z" transform="translate(-56.497 -237.109)"/><path class="e" d="M144.49,590.826a20.722,20.722,0,0,0,4.367,12.768,20.833,20.833,0,0,0,2.193,27.94,20.229,20.229,0,0,0,27.694,0,20.833,20.833,0,0,0,2.193-27.94C183.669,600.083,144.49,588.508,144.49,590.826Z" transform="translate(-56.491 -252.841)"/><path class="h" d="M195.008,723.327H123.056A3.075,3.075,0,0,1,120,720.234V683.943a3.1,3.1,0,0,1,1.423-2.615,3.025,3.025,0,0,1,2.944-.18c20.672,9.928,37.066,21.5,69.227.157,1.907-1.267,4.419.462,4.419,2.765v36.149A3.076,3.076,0,0,1,195.008,723.327Z" transform="translate(-50.037 -276.065)"/><path class="o" d="M863.37,574.963,757.218,589.176l-5.31.708-51.9-28.055v-6.566l162.182-17.9Z" transform="translate(-315.187 -137.964)"/><path class="p" d="M740.85,569.5l115-13.722-1.178,21.488L765.1,583.914Z" transform="translate(-324.436 -142.655)"/><path class="q" d="M782.215,724.495v7.051l-5.31.745L725,704.206V697.64l49.541,26.832S781.037,725.091,782.215,724.495Z" transform="translate(-322.615 -280.341)"/><path class="k" d="M821.774,578.984,797.942,690.823a7.2,7.2,0,0,0,1.705,6.353,7.008,7.008,0,0,0,6.116,2.241l150.774-20.2a7.077,7.077,0,0,0,5.774-4.83l32.529-99.28a7.225,7.225,0,0,0-1.081-6.569,7.038,7.038,0,0,0-5.959-2.823L828.343,573.38A7.094,7.094,0,0,0,821.774,578.984Z" transform="translate(-401.967 -246.744)"/><path class="g" d="M6.536.083c3.581,0,6.481,1.835,6.478,4.109S10.107,8.313,6.526,8.318.045,6.482.047,4.208,2.955.087,6.536.083Z" transform="translate(528.942 379.338) rotate(-84)"/></g></svg>