<svg xmlns="http://www.w3.org/2000/svg" width="266.766" height="205.948" viewBox="0 0 266.766 259.948"><defs><style>.a{fill:#3f3d56;}.b{fill:#008dc8;}.c{fill:#bd6997;}.d,.j{fill:#212b34;}.e{fill:#2f2e41;}.f,.g{fill:#394855;}.g,.i,.j{opacity:0.1;}.h{fill:#fbbebe;}</style></defs><g transform="translate(-119.436 -1.039)"><path class="a" d="M453.4,378.528c-.185-.7-.392-1.4-.606-2.091l.665-.227c.217.7.424,1.412.614,2.12Z" transform="translate(-295.758 -272.452)"/><path class="a" d="M441.027,266.71h-.7c0-.734.012-1.479.037-2.214l.7.025C441.041,265.248,441.027,265.984,441.027,266.71Z" transform="translate(-287.657 -201.712)"/><path class="a" d="M441.986,156.192l-.7-.078c.15-1.478.353-2.966.6-4.426l.689.13C442.335,153.26,442.131,154.734,441.986,156.192Zm1.49-8.7-.678-.181c.35-1.439.756-2.883,1.2-4.291l.664.232c-.443,1.391-.843,2.817-1.19,4.239Zm111.649-7.739c-.523-1.362-1.1-2.72-1.716-4.036l.629-.323c.623,1.333,1.206,2.707,1.737,4.085Zm-108.979-.64-.647-.281c.544-1.371,1.144-2.739,1.782-4.067l.625.33c-.631,1.309-1.223,2.664-1.761,4.021Zm105.273-7.295c-.7-1.267-1.461-2.525-2.249-3.741l.578-.413c.8,1.227,1.565,2.5,2.276,3.783Zm-101.482-.6-.6-.374c.725-1.274,1.506-2.538,2.319-3.757l.574.42c-.8,1.2-1.57,2.454-2.291,3.713Zm96.734-6.69c-.87-1.151-1.791-2.284-2.735-3.367l.516-.5c.956,1.094,1.887,2.24,2.771,3.4Zm-91.9-.55-.544-.462c.893-1.154,1.837-2.288,2.8-3.371l.511.5c-.956,1.076-1.889,2.193-2.771,3.333Zm86.21-5.968c-1.016-1.01-2.082-1.993-3.164-2.923l.443-.567c1.1.941,2.173,1.937,3.2,2.958Zm-80.447-.481-.476-.539c1.039-1.008,2.125-1.991,3.233-2.92l.438.572c-1.093.917-2.167,1.888-3.195,2.885Zm73.927-5.122c-1.144-.848-2.331-1.663-3.529-2.422l.362-.628c1.212.769,2.414,1.59,3.571,2.45Zm-67.347-.4-.4-.6c1.166-.842,2.375-1.652,3.6-2.407l.356.632c-1.206.748-2.4,1.545-3.553,2.378Zm60.135-4.171c-1.248-.668-2.534-1.3-3.824-1.87l.277-.675c1.3.578,2.606,1.216,3.87,1.89Zm-52.877-.313-.311-.655c1.268-.659,2.576-1.279,3.886-1.842l.265.679c-1.293.556-2.587,1.168-3.839,1.82Zm45.11-3.129c-1.324-.472-2.684-.9-4.041-1.272l.177-.71c1.373.374,2.749.809,4.089,1.287Zm-37.317-.217-.218-.7c1.345-.462,2.725-.879,4.1-1.238l.17.712c-1.359.355-2.722.767-4.052,1.224Zm29.16-2.017c-1.376-.267-2.78-.486-4.172-.655l.078-.729c1.408.166,2.829.387,4.222.655Zm-20.982-.121-.12-.723c1.4-.254,2.817-.459,4.227-.609l.07.73C493.126,101.583,491.721,101.785,490.343,102.037Zm12.6-.866c-1.4-.06-2.827-.067-4.218-.024l-.021-.733c1.408-.044,2.849-.036,4.268.024Z" transform="translate(-288.282 -97.794)"/><path class="a" d="M771.234,220.9c-.185-.7-.39-1.4-.6-2.095l.667-.224c.214.7.418,1.413.609,2.12Z" transform="translate(-502.343 -172.635)"/><ellipse class="b" cx="11.66" cy="0.916" rx="11.66" ry="0.916" transform="translate(145.625 114.319)"/><ellipse class="b" cx="11.66" cy="0.916" rx="11.66" ry="0.916" transform="translate(260.482 68.195)"/><path class="a" d="M.031,1.561,50.806.376l-.016.717L.017,2.278Z" transform="translate(231.333 101.762) rotate(-45)"/><rect class="a" width="58.886" height="0.733" transform="translate(163.408 107.537)"/><path class="a" d="M47.7.353.011,1.466Z" transform="translate(119.179 146.535) rotate(-45)"/><path class="a" d="M441.458,382.586a6.7,6.7,0,0,1-6.354-4.024,6.847,6.847,0,0,1,1.3-7.471,6.644,6.644,0,0,1,7.331-1.576,6.785,6.785,0,0,1,4.191,6.29A6.633,6.633,0,0,1,441.458,382.586Zm0-12.829a5.973,5.973,0,0,0-5.668,3.588,6.107,6.107,0,0,0,1.163,6.664,5.926,5.926,0,0,0,6.539,1.406,6.052,6.052,0,0,0,3.738-5.611A5.915,5.915,0,0,0,441.458,369.757Z" transform="translate(-284.172 -267.901)"/><path class="a" d="M644.664,382.586a6.7,6.7,0,0,1-6.354-4.024,6.848,6.848,0,0,1,1.3-7.472,6.644,6.644,0,0,1,7.331-1.576,6.785,6.785,0,0,1,4.191,6.29A6.633,6.633,0,0,1,644.664,382.586Zm0-12.829A5.973,5.973,0,0,0,639,373.345a6.108,6.108,0,0,0,1.163,6.664,5.926,5.926,0,0,0,6.539,1.406,6.052,6.052,0,0,0,3.738-5.611A5.915,5.915,0,0,0,644.664,369.757Z" transform="translate(-416.248 -267.901)"/><path class="a" d="M769.586,256.832a6.7,6.7,0,0,1-6.354-4.024,6.847,6.847,0,0,1,1.3-7.472,6.644,6.644,0,0,1,7.331-1.576,6.785,6.785,0,0,1,4.191,6.29,6.633,6.633,0,0,1-6.472,6.781Zm0-12.829a5.973,5.973,0,0,0-5.668,3.589,6.107,6.107,0,0,0,1.163,6.664,5.926,5.926,0,0,0,6.539,1.406,6.052,6.052,0,0,0,3.738-5.611A5.915,5.915,0,0,0,769.586,244Z" transform="translate(-497.443 -188.271)"/><path class="c" d="M431.861,274.251A11.95,11.95,0,0,0,420.2,286.469c0,6.748,11.66,29.018,11.66,29.018s11.661-22.27,11.661-29.018a11.95,11.95,0,0,0-11.661-12.218Zm0,18.633a6.334,6.334,0,0,1-6.011-3.806,6.477,6.477,0,0,1,1.233-7.068,6.285,6.285,0,0,1,6.935-1.491,6.419,6.419,0,0,1,3.964,5.951,6.274,6.274,0,0,1-6.122,6.415Z" transform="translate(-274.576 -207.888)"/><path class="d" d="M171.845.958Z" transform="translate(214.358 260.029)"/><path d="M976.287,142.276c-2.469,7.656-6.253,14.633-13.965,14.633s-13.53-6.564-13.965-14.633c-.554-10.311,6.074-14.676,13.965-14.633C971.642,127.7,979.217,133.19,976.287,142.276Z" transform="translate(-617.835 -115.052)"/><rect class="e" width="27.563" height="36.582" transform="translate(330.521 26.069)"/><path class="f" d="M1025.6,238.7h2.345a22.675,22.675,0,0,1,3.126,18.015c-2.605,10.372-.521,12.283-.521,12.283s3.391,11.232-.256,28.154,3.381,21.522,3.381,21.522l-6.512-13.647L1023.514,269Z" transform="translate(-666.708 -185.376)"/><path class="g" d="M1025.6,241.146h2.345a22.675,22.675,0,0,1,3.126,18.015c-2.605,10.372-.521,12.283-.521,12.283s3.391,11.232-.256,28.154,3.381,21.522,3.381,21.522l-6.512-13.647-3.647-36.029Z" transform="translate(-666.708 -185.991)"/><path class="h" d="M979.427,202.528s-2.084,8.734-1.042,8.734,4.688,4.64,4.688,4.64l2.345,9.007-1.824,6.546-6.252-1.364-7.815-9.007-2.345-2.457-2.084-7.916s2.605-3.273.782-6S979.427,202.528,979.427,202.528Z" transform="translate(-628.74 -162.443)"/><path class="i" d="M979.427,202.528s-2.084,8.734-1.042,8.734,4.688,4.64,4.688,4.64l2.345,9.007-1.824,6.546-6.252-1.364-7.815-9.007-2.345-2.457-2.084-7.916s2.605-3.273.782-6S979.427,202.528,979.427,202.528Z" transform="translate(-628.74 -162.443)"/><path class="h" d="M793.656,234.114l-5.731-9.827s-6.19-14.341-10.615-9.156,6.707,15.707,6.707,15.707l5.728,7.916Z" transform="translate(-506.007 -169.737)"/><path class="h" d="M983.26,489.984l-4.169,31.93s.521,2.457-4.688,11.464-19.276,28.659-19.276,28.659l-4.168-8.189s4.949-25.93,13.545-31.389l-1.042-39.3Z" transform="translate(-619.547 -340.175)"/><path class="i" d="M983.26,489.984l-4.169,31.93s.521,2.457-4.688,11.464-19.276,28.659-19.276,28.659l-4.168-8.189s4.949-25.93,13.545-31.389l-1.042-39.3Z" transform="translate(-619.547 -340.175)"/><path class="d" d="M926.292,666.973l5.728,11.464s-4.688,13.92-2.864,15.285,4.168,13.647-.782,12.283-8.857-6.827-8.857-7.642,2.864-12.283,1.3-15.012a13.155,13.155,0,0,0-2.605-3.548l-3.908,6.827-1.3-.819,6.512-11.464a7.012,7.012,0,0,1,3.908-3.548Z" transform="translate(-594.881 -456.571)"/><path class="j" d="M926.292,666.973l5.728,11.464s-4.688,13.92-2.864,15.285,4.168,13.647-.782,12.283-8.857-6.827-8.857-7.642,2.864-12.283,1.3-15.012a13.155,13.155,0,0,0-2.605-3.548l-3.908,6.827-1.3-.819,6.512-11.464a7.012,7.012,0,0,1,3.908-3.548Z" transform="translate(-594.881 -456.571)"/><path class="h" d="M948.532,485.454s2.023,30.187-2.4,38.1v39.3l-5.991.819s-12.1-20.808-7.668-41.28-4.572-39.239-4.572-39.239Z" transform="translate(-604.555 -340.177)"/><ellipse class="h" cx="10.941" cy="11.464" rx="10.941" ry="11.464" transform="translate(331.542 23.845)"/><path class="f" d="M879.709,239.3l-10.941-14.466-6.252-4.367-2.606,3.548-7.3,2.184s-4.688,1.091-9.638,7.1-13.8,9.559-13.8,9.559l-7.3-1.364s-8.592-4.094-8.592-5.186-7.554,7.369-5.728,10.644,5.728,7.369,7.815,9.553,2.864,8.462,15.629,6.546,17.453-8.462,17.453-8.462,2.345,12.555,9.117,15.012,28.916,4.094,28.916,4.094l4.688-16.376s5.209-7.1-1.824-17.469a71.626,71.626,0,0,0-.891-9.661,6.551,6.551,0,0,0-1.193-3.168c-1.824-1.638-11.462-4.367-11.462-4.367s1.563,5.459,2.345,5.732S880.749,237.933,879.709,239.3Z" transform="translate(-526.154 -173.83)"/><path class="d" d="M905.888,402.876c13.118-.956,20.755,1.3,24.164,3.013a8.576,8.576,0,0,1,1.776,1.13c.25.221.37.393.37.5,0,.819,17.974,2.457,24.486.819s-4.428-36.847-7.3-39.85-1.321-13.991-1.321-13.991-5.713-1.293-7.275-.748-9.638-.819-12.5-2.457-6.512-.546-8.857-1.091a1.446,1.446,0,0,0-1.839.7,4.619,4.619,0,0,1-1.774,1.887c-5.53,3.338-9.969,26.418-13.311,39.178C898.855,405.879,905.888,402.876,905.888,402.876Z" transform="translate(-587.372 -255.934)"/><path class="d" d="M966.378,693.763l1.042,6s5.472,8.189,3.907,15.012c0,0,1.3,9.007,5.991,11.464s.782,8.189-3.647,7.916-8.6.273-9.117-1.091-3.647-14.739-3.647-14.739l-.856,15.65-2.605.273.855-18.107s-2.084-4.094.782-10.918l-.723-10.474S965.6,696.493,966.378,693.763Z" transform="translate(-623.766 -473.535)"/><path class="i" d="M983.154,473.162a8.58,8.58,0,0,1,1.776,1.13c.138-2.579.935-18.178-.021-17.927Z" transform="translate(-640.474 -323.207)"/><path d="M944.03,144.636s-.121-.707-4.86,1.155-7.575,15.6-5.209,23.671a7.673,7.673,0,0,1-1.09,7.237c-4.758,6.155-2.884,15.4,4.045,18.566q.294.134.6.265l2.962,1.862a14.728,14.728,0,0,1-1.886-11.864,35.711,35.711,0,0,0,.588-17.477c-.217-.975-.462-1.98-.739-3.006-2.37-8.689-1.217-7.685,7.075-16.375a52.335,52.335,0,0,0,8.883,5.587c4.146,1.862,7.7,3.724,4.738,9.931s-10.07,11.793-5.331,19.861,5.331,4.965,4.738,8.069h0l-.592,3.1L961.5,191.5l-2.37,4.965s7.7,0,10.07-6.207l1.184,1.241s4.738-8.689-4.146-16.758c0,0-2.962-1.862,1.184-8.069s.962-19.55-4.369-22.033S944.03,144.636,944.03,144.636Z" transform="translate(-606.077 -125.115)"/><ellipse cx="5.512" cy="5.776" rx="5.512" ry="5.776" transform="translate(338.973 4.119)"/><path d="M967.366,101.923a5.682,5.682,0,0,1,4.961-5.747,5.292,5.292,0,0,0-.554-.029,5.782,5.782,0,0,0,0,11.553,5.321,5.321,0,0,0,.554-.029,5.682,5.682,0,0,1-4.961-5.747Z" transform="translate(-629.495 -95.108)"/><path class="c" d="M759.989,154.326a11.95,11.95,0,0,0-11.661,12.218c0,6.747,11.661,29.018,11.661,29.018s11.66-22.27,11.66-29.018A11.95,11.95,0,0,0,759.989,154.326Zm0,18.633a6.334,6.334,0,0,1-6.011-3.806,6.478,6.478,0,0,1,1.233-7.068,6.285,6.285,0,0,1,6.935-1.491,6.418,6.418,0,0,1,3.964,5.951A6.274,6.274,0,0,1,759.989,172.959Z" transform="translate(-487.846 -131.949)"/></g></svg>